<?xml version="1.0" encoding="UTF-8"?><svg id="house" xmlns="http://www.w3.org/2000/svg" width="1962.4" height="2005.15" viewBox="0 0 1962.4 2005.15"><path d="M810.16,1001.95c-20.47,10.37-40.71,22.85-62.26,31.13-3.78,1.45-14.4,3.75-16.19,8.72-1.42,3.95,3.47,13.97,4.54,16.58,3.92,9.57,8.3,18.99,12.96,28.22,4.22,8.34,8.47,16.53,12.14,25.12,2,4.68,5.78,10.45,5.93,15.72,2.16.38,12.55-5.74,12.35-5.64,9.94-4.63,19.41-9.31,29-14.61,11.14-6.15,22.98-10.98,33.94-17.45,4.03-2.37,7.7-5.56,11.86-7.7,3.29-1.69,7.17-2.32,10.15-4.63" fill="none" stroke="#fff" stroke-miterlimit="10"/><path d="M471.11,1158.7c4.58,9.38,9.71,18.44,15.39,27.17,3.44,5.64,7.04,11.18,10.82,16.6,3.13,5.02,5.98,10.22,9.25,15.15,2.95,4.45,6.21,8.72,9.05,13.24,1.67,2.65,2.91,6.22,4.99,8.48,5.15-2.13,10.26-4.46,15.25-6.94,5.48-2.72,9.55-5.75,14.34-9.53,2.99-2.36,6.01-3.99,9.38-5.77,1.18-.62,2.31-1.44,3.66-1.65,1.11-3.89-6.31-12.16-7.97-14.68-4.21-6.4-7.82-12.89-11.15-19.76-5.4-11.13-12.24-21.11-18.52-31.73-3.98-6.75-7.67-13.54-12.36-19.84-1.03-1.38-2.67-4.89-4.59-4.88-2.02,0-5.19,4.96-6.49,6.3-4.91,5.09-10.44,9.48-15.85,14.01-3.66,2.94-7.18,6.03-10.58,9.27-1.05,1.36-2.3,2.45-3.76,3.27" fill="none" stroke="#fff" stroke-miterlimit="10"/><path d="M515.84,1231.39c-24.68,17.35-49.42,34.61-75.09,50.49-6.3,3.9-12.21,8.05-18.34,12.19-5.55,3.75-11.38,7.07-16.83,10.97-1.7,1.21-6.86,3.11-6.48,5.58l1.74,3.38c2,3.15,3.83,6.4,5.49,9.75,3.9,8.25,6.87,18.35,13.75,24.82,2.54-1.06,4.63-2.62,6.92-4.16,7.96-5.34,16.37-9.59,24.91-13.92,17.72-9,35.11-19.18,51.66-30.18,8.1-5.39,15.78-11.39,23.9-16.74,5.07-3.34,10.31-6.4,15.22-9.99,8.17-5.98,16.43-11.33,24.97-16.77,3.75-2.39,7.27-5.1,10.91-7.66.83-.59,2.26-1.15,2.37-2.28.12-1.3-1.76-3.54-2.36-4.52-2.67-4.35-5.47-8.63-7.51-13.33s-3.73-8.81-6.18-13.1" fill="none" stroke="#fff" stroke-miterlimit="10"/><path d="M358.84,1249.03c8.61,7.96,16.89,14.99,23.33,24.74,1.14,1.73,2.28,3.87,4.25,4.79-2.26,3.37-6.99,6.08-10.1,8.66-9.53,7.92-18.62,16.1-28.44,23.67-4.08,2.72-7.87,5.79-11.36,9.22-2.7,2.5-5.4,5.02-8.08,7.54-1.92,1.44-3.86,2.86-5.82,4.24-1.02.57-1.88,1.33-2.57,2.27-1.44.6-.54,2.14-2.96-.27-3.64-3.63-6.01-8.91-9.25-12.91s-6.33-7.59-9.63-11.27c-1.62-1.81-3.13-4.01-5.29-5.24.6-1.85,1.91-3.18,3.92-4l6.08-5.77c4.63-4.99,9.32-9.92,14.06-14.8,3.61-3.27,7.27-6.48,10.96-9.66,6.03-5.22,11.58-10.95,17.66-16.11,3.9-3.31,9.3-8.72,13.22-5.09Z" fill="none" stroke="#fff" stroke-miterlimit="10"/><path d="M303.71,1389.02c8.61,12.32,17.2,24.48,24.63,37.53,1.05-.92,1.64-2.23,2.56-3.26,4.14-4.67,10.83-7.59,16.19-10.41,4.25-2.24,10.82-4.58,13.4-9.01-.65-1.77-2.02-3.12-3.15-4.6-3.56-4.63-6.71-9.57-9.61-14.64s-5.55-10.96-9.32-15.75c-.79-1.01-1.16-1.76-2.44-1.76-1.46,0-4.2,1.97-5.44,2.61-10.03,5.18-19.57,12.04-26.82,19.28Z" fill="none" stroke="#fff" stroke-miterlimit="10"/><path d="M333.81,1434.82c8.74-5.64,17.4-11.47,26.4-16.71.93-.54,6.06-4.13,7.98-4.77,1.51-.5,1.22-.57,2.77.99,4.41,4.45,8.04,9.86,11.64,14.98,9.51,13.53,16.38,28.49,25.4,42.32,9.07,13.9,16.91,28.56,25.51,42.76,5.34,8.83,9.91,18.09,15.28,26.91,1.93,3.17,3.86,3.83,1.2,6.37-5.35,5.1-12.99,9.02-19.36,12.74-3.18,1.86-6.38,3.61-9.25,5.94-1.34,1.09-2.65,2.79-4.27,3.43-4.12-5.74-8.13-11.45-12.35-17.14-5.69-7.68-10.4-15.46-15.44-23.54-3.8-6.08-7.91-11.96-11.84-17.96-4.85-7.42-9.12-15.18-14.28-22.39-4.11-5.74-8.33-11.37-11.78-17.55-2.46-4.4-4.18-9.16-6.68-13.54-4.02-7.06-8.62-13.37-10.92-22.84Z" fill="none" stroke="#fff" stroke-miterlimit="10"/><path d="M390.08,1399.49c12.71,19.41,25.27,39.22,39.07,57.91,2.25,3.05,7.38,7.78,8.33,11.82,2.8-1.72,5.34-3.81,8.1-5.59,4.93-3.18,10.44-5.38,15.35-8.59,2.55-1.67,4.58-3.5,6.58-5.79.22-.25,1.43-1.36,1.56-1.71.59-1.67-1.29-4.43-1.94-5.85-2.67-5.89-5.94-11.61-9.42-17.04s-7.06-10.4-10.35-15.75c-3.61-5.87-6.16-12.51-10.11-18.18-3.17-4.56-6.52-9.41-10.05-13.66-2.21-2.66-5.05.64-7.22,2.39-8.71,7.03-19.14,11.3-29.89,20.04Z" fill="none" stroke="#fff" stroke-miterlimit="10"/><path d="M445.03,1488.9c7.78,12.9,15.42,25.44,22.06,38.9.92,1.87,2.53,7,4.27,8.1,1.46.92,1.47.72,3.37-.26,7.49-3.85,15.09-8.24,22.16-12.76,7.9-5.06,15.47-11.19,23.74-15.62,2.56-1.37,5.46-2.55,7.83-4.27,1.36-.98,1.42-.61,1.2-2.43-.44-3.65-5.87-10.04-7.34-12.37-3.43-5.39-6.41-10.92-9.27-16.64-1.83-3.66-3.94-7.14-6-10.66-.78-1.34-1.35-3.41-3.06-3.58-2.76-.29-6.82,3.3-9.04,4.61-6.33,3.75-12.92,6.83-19.47,10.12-8.85,4.45-17.22,9.75-30.44,16.84Z" fill="none" stroke="#fff" stroke-miterlimit="10"/><path d="M507.84,1449.65c6.67-5.17,13.89-9.34,21.66-12.5,2.31-.51,4.54-1.25,6.68-2.22,2.75-1.14,5.1-2.58,7.43-4.42,4.72,2.09,8.91,9.15,11.3,12.98,2.58,4.13,4.76,8.45,7.16,12.68,2.74,4.82,5.6,9.6,8.67,14.22,1.5,2.26,4.39,5.11,4.73,7.84-2.98,1.61-6.34,2.04-9.44,3.42-5.33,2.38-10.09,5.82-15.15,8.68-4.6,2.6-9.74,4.34-13.91,7.65-1.08-1.01-1.8-2.26-2.18-3.76-1.72-3.54-3.72-6.92-6-10.13-3.75-5.59-7.75-11.01-11.21-16.79-2-3.35-3.88-6.76-5.92-10.09-1.38-2.27-2.55-4.03-3.83-7.57Z" fill="none" stroke="#fff" stroke-miterlimit="10"/><path d="M562.8,1415.63c10.17-5.28,22.18-10.55,31.2-18.02,2.61-2.16,3.12-1.35,5.84,1.73,3.28,3.71,5.83,8.12,8.41,12.31,5.97,9.72,11.72,19.6,17.38,29.5.35.61,4.01,5.65,3.93,6.82-.11,1.81-4.26,3.28-5.54,4.06-8.29,5.11-15.54,11.52-24.61,15.15-.98.23-1.9.6-2.76,1.12-.92.39-1.74.93-2.46,1.62-2.53.23-4.33-5.53-5.23-7.2-2.99-5.57-5.69-11.36-9.19-16.64-2.78-4.19-5.8-8.24-8.72-12.34-3.56-5.01-7.22-10.03-8.27-18.11Z" fill="none" stroke="#fff" stroke-miterlimit="10"/><path d="M501.3,1325.77c12.36,18.89,26.09,37.25,37.26,56.9,1.89,3.33,4.08,6.5,5.9,9.87.74,1.36,1.01,3.04,2.59,3.3,1.69.28,6.45-3.33,7.83-4.07,5.78-3.09,11.52-6.23,17.09-9.68,3.61-2.23,6.94-4.83,10.5-7.14,1.2-.78,2.65-1.82,4.09-2.03-.51-1.61-1.68-3-2.56-4.42-4.36-6.97-8.57-14.02-13.02-20.93-5.94-9.23-10.61-19.27-17.19-28.08-4.31-5.77-9.5-11.49-12.45-18.17-4.82,4.23-9.34,8.19-15.14,11.49-4.05,2.31-8.55,4.21-12.36,6.89-2.9,2.04-5.54,4.26-12.54,6.06Z" fill="none" stroke="#fff" stroke-miterlimit="10"/><path d="M445.47,1361.1c9.42-5.68,18.66-11.43,28.44-16.42,2.53-1.29,4.77-2.75,7.16-4.27.6-.38,1.8-1.55,2.55-1.58,2.48-.07,9.87,13.88,8.68,11.96,5.78,9.29,11.77,18.46,17,28.07,3.5,6.44,6.48,13.15,10.13,19.51,1.38,2.41,5.87,7.35,5.56,10.63-9.02,4.21-17.27,9.64-25.97,14.48-2.63,1.46-5.42,2.78-7.68,4.82-.95.86-1.57,2.46-2.64,3.15-8.64-14.39-18.32-28.04-27.36-42.19-4.97-7.78-10.19-15.45-15.87-28.17Z" fill="none" stroke="#fff" stroke-miterlimit="10"/></svg>