<?xml version="1.0" encoding="UTF-8"?><svg id="Layer_2" xmlns="http://www.w3.org/2000/svg" width="994.14" height="719.8" viewBox="0 0 994.14 719.8"><path d="M245.85,114.01s8.54-8.52,12.91-10.08c0,0-1.09-2.5-3.43-1.87s-8.58-2.34-8.73-7.33-1.87-4.83-4.37-7.49-4.05-6.55.31-11.07-1.72-13.57-1.56-17.15,4.83-7.49,4.83-7.49c0,0-1.09-12.94,7.02-21.21,8.11-8.26,15.44-12.48,24.01-12.01,8.58.47,22.14,8.26,25.73,14.97s18.4,27.45,18.56,32.12-3.59,10.92-1.87,14.5-.47,3.59-.47,5.93.47,9.67,5.93,9.67,25.42,1.87,27.13,5.77,1.39,14.32,1.39,14.32c0,0,12.83,2.89,16.04,8.98s7.72,11.9,7.72,11.9l2.22.93s3.26-.71,6.06-.71,5.88-3.64,7.85-7.85,7.01-9.25,8.41-11.49-6.45-7.57-6.45-12.05-1.68-6.73-3.64-10.37,2.8-11.49,3.08-15.69-1.4-7.29-2.52-15.69c-1.12-8.41,3.08-16.53,5.88-17.09s12.61-8.97,20.18-11.77,8.69,2.8,12.61,5.6,7.85-4.2,10.09-4.48,10.37,3.08,11.77,7.01,1.68,8.69,5.88,10.93,5.6,7.85,5.6,7.85l-1.68,9.81c-1.68,9.81,8.41,12.05,10.65,16.25s-1.12,11.49-7.85,12.61-6.16,6.45-6.16,10.37-.84,4.48-5.04,7.57-3.08,7.85,6.16,7.85,7.57,6.73,8.41,10.37,4.76,3.64,11.21,2.24,12.33,2.52,12.33,2.52c3.92-2.8,7.01-1.68,11.21-.84s4.76-1.68,7.29-1.68,9.53-2.8,14.01-5.88v-3.65s-2.92-8.71,3.27-13.28,13.69-13.03,14.34-16.94,10.1-9.45,10.1-14.66-1.63-21.18,3.91-25.09,18.9-13.36,27.37-13.36,17.27,1.3,21.18,7.82,6.19,9.12,7.17,14.66,11.08,6.52,15.31,9.45,4.56,11.08,7.82,17.92.98,14.01,3.91,15.64,14.01,4.56,14.01,12.38v26.72s11.61,4.26,13.47,7.98l1.41-.45-.74-5.05c0-1.71-.51-9.9,4.86-24.23s13.17-27.35,13.17-27.35c1.96-3.91,7.44-5.87,4.7-6.26s-6.26-5.48-3.52-8.61,14.88,2.74,18.01,2.35,2.35-23.1,2.35-23.1c0,0-.78-17.22,3.91-19.57s7.83-9.4,12.92-14.09,17.22-7.05,23.49-7.05,19.97,10.18,23.49,14.88,3.52,21.92,3.52,32.1-3.13,12.92-4.7,17.62-.78,11.35-3.52,17.62-4.23,11.91-1.88,15.44l2.07,1.68c2.59.5,8.47,1.49,14.27,1.49,7.74,0,7.74-7.95,10.96-9.03s4.94,3.22,9.89,2.79,12.03-2.79,12.03-2.79c1.29-5.16,13.54-13.11,13.54-13.11,0,0-2.36-3.65-2.36-8.6s-2.15-4.51-4.73-7.31-.43-4.73,1.07-10.75.21-7.31.21-11.82,5.37-7.95,6.88-8.17,1.72-8.6,5.16-9.46,7.95-6.23,11.82-6.23,3.87-3.65,9.03-3.65,8.17,3.65,12.25,3.65,9.67,2.58,12.25,2.58,7.52,5.16,10.75,5.16,5.8,4.3,8.38,6.02,3.87,10.75,3.87,14.61,2.36,9.03.21,12.03-3.44,4.94-2.79,7.74-1.59,4.01-1.59,6.72-6.8,6.46-10.53,10.87,6.46,5.78,13.93,5.78,20.39,5.78,21.07,11.18-1.02,6.83-2.72,10.91,9.85,5.78,13.93,8.83,3.4,15.29,3.06,21.07,1.02,13.25,5.1,18.01,10.87,21.07,14.27,29.22c3.4,8.16.34,15.97-1.02,21.41-1.36,5.44,2.72,7.14,3.74,9.51,1.02,2.38-.68,13.93-1.36,20.73-.68,6.8-3.74,11.55-8.16,14.27s1.36,6.8,2.04,8.83,2.72,4.76-3.74,12.23-5.78,11.55-5.44,17.33-1.36,11.55-1.36,19.71,1.36,33.98,1.36,38.74-5.78,9.85-9.85,14.27-2.04,23.45-1.7,31.26.34,43.15,5.78,53.01,15.97,11.21,20.05,12.91,12.91,6.46,15.29,8.83c2.38,2.38,1.36,22.09-.34,26.16-1.7,4.08-3.06,6.46,2.72,16.65,5.78,10.19,2.72,23.11,2.72,27.52s-8.49,18.01-17.67,17.33-8.16-13.25-8.49-20.73-1.36-13.93-5.78-14.95-6.8,7.82-7.14,14.27-1.36,7.82-6.8,7.82-7.48.68-7.48.68c0,0,1.02,13.59-4.08,18.69s-21.75,7.82-29.56,0-2.38-16.31-5.44-22.09-4.08-18.35-4.76-28.88,1.7-35,1.7-37.38-25.48-40.78-32.28-49.95-11.07-19.01-11.07-19.01c0,0-1.76-12.48-5.1-18.81s-2.28-24.26-3.16-29.53-2.11-42.36-2.46-45.59-5.45-.81-10.55-.11-5.1-2.11-5.45-4.04-2.24-3.59-2.24-3.59h-1.61s.78,41.85.78,50.07,6.26,32.88,7.05,39.54-9.4-1.17-14.88-4.7-7.44-5.87-5.87,1.57,3.52,49.72,4.31,64.59-7.05,23.49-9.4,27.79,4.31,25.05,10.18,37.97,6.66,37.97,6.66,43.85,10.96,16.44,12.92,21.14-3.91,14.88-3.91,14.88c0,0,8.61,4.7,12.53,7.05s4.31,8.61,5.87,16.83-9.4,5.87-14.09,5.72-18.33,0-18.33,0c0,0-9.98,20.14-22.69,30.94-7.86,6.68-23.21,17.53-39.19,17.53s-36.1,0-43.83-2.06c-7.74-2.06-23.21-24.75-27.33-37.64s-7.22-31.46-7.22-52.08-1.55-30.42-9.8-47.96-11.34-34.03-5.16-51.57,8.25-40.22,3.61-54.66-19.08-53.11-19.08-48.99,1.03,47.96,1.03,47.96v42.8c0,5.67-5.16,20.63-13.92,26.81s-33.52,22.17-45.38,25.78c0,0,4.13,15.47-11.86,21.66,0,0,2.58,29.91,2.58,37.64s2.06,17.53,6.19,23.72,26.3,23.72,26.81,27.85.52,12.38-6.7,16.5c-7.22,4.13-19.6,5.16-27.33,4.13s-22.17-15.99-22.17-15.99c0,0-20.63-7.74-25.78-12.38l-15.47,6.19s3.61,24.24-7.74,24.75c-11.34.52-28.88-12.89-29.91-20.11s-6.19-19.08-5.67-39.71c0,0-10.88-12.69-9.31-38.83l-1.36-16.46c-.66-5.93-1.98-22.74-2.64-33.28s2.31-44.49,3.62-59.65,2.97-32.3,1.32-39.22-11.53-29.66-12.85-32.95-4.28-14.17-5.27-10.99-5.93,21.21-7.91,26.81-2.97,15.16-4.43,32.3c-1.46,17.14-.19,53.39-.02,61.95s-1.16,35.92-.36,41.19,0,56.35,0,56.35c0,0-2.12,3.95-7.39,3.11s5.93,8.43,7.25,21.61-6.59,14.17-17.8,14.83-18.12-7.58-22.41-11.53-2.64-18.12-3.3-20.43-8.49-6.8-8.49-6.8c0,0-4.88,2.71-10.01,2.28-4.06-.35-10.67-.43-12.16-2.77s-2.77-5.97-8.11-11.52-1.92-28.37-2.35-41.6-3.2-89.39-3.2-89.39c0,0-.85-20.05-4.27-33.71s-13.23-40.11-13.23-47.79-2.13-17.28-4.69-17.49-18.35-.21-18.35,1.92-.21,13.23-4.69,13.23-11.73,0-11.95,4.69-12.8,49.71-13.01,57.39.6,59.41.6,68.48,3.22,36.85,3.51,41.53-.29,9.94-.29,15.79,2.05,13.16-2.92,15.79-8.48,8.19-23.98,7.9-11.7.88-13.75,0-7.31-5.26-11.11-3.51-6.73,2.92-20.18,2.92-21.39-4.27-25.74-8.19c-3.59-3.24-7.08-10.71-7.08-10.71,2.87-11.58,18.22-12.01,18.22-12.01,0,0,4.65-1.85,7.58-1.85s21.35-5.56,23.1-6.14-.29-15.21-.29-20.76,1.46-45.33.88-51.47-2.34-17.84-2.92-26.91l3.14-36.64h-2.67c-2.07,4.97-3.97,17.5-7.7,27.43-3.73,9.94-17.39,28.57-21.12,32.29s-15.73,20.29-16.56,23.6,8.69,24.01,10.35,32.29-3.31,12.01-3.31,12.01c6.21,3.73,9.52,16.15,9.52,16.15-16.56,1.66-18.22,12.01-18.22,12.01-12.42.41-25.67-4.55-25.67-4.55-6.62,4.97-15.73,2.07-23.6,0s-19.87-13.25-21.94-16.15-1.66-16.15-1.66-16.15c-2.9-1.24-12.42-8.28-12.42-8.28,0,0-3.73,2.07-8.69-2.07s-6.62-11.18-5.8-18.22,14.49-21.12,17.8-22.77,20.26-16.73,20.26-16.73c-1.1-11.79,1.37-28.53,1.37-33.19s5.76-21.39,5.76-25.51-.27-17.83.27-23.04,1.65-13.44.27-32.37-1.37-57.87-1.1-71.04,8.23-27.98,8.78-31.27-6.58-6.31-7.13-11.52,4.11-8.5,4.94-9.87-11.79-6.31-16.18-8.23-7.41-4.94-7.41-7.41-3.46-3.29-3.46-3.29c0,0-6.41-3.57-22.05-12.62s-32.37-27.15-37.85-32.09-2.47-11.79,0-17.01,35.11-23.59,38.95-25.51,32.37-16.73,37.85-21.39,10.97-3.02,10.97-3.02c.82-6.86,6.31-5.76,12.07-6.03s23.04,0,23.04,0l2.58-2.76c2.58-2.76-1.93-3.85-4.81-3.85s-4.09-2.17-5.06-5.06-3.85-3.13-5.3-4.81.72-5.3-.96-6.98-4.33-4.57-4.33-7.46-3.37-5.06-4.33-6.26-.24-6.26-.96-9.39,1.44-6.74,3.13-9.63.48-7.46,3.37-8.67,5.54-2.89,6.5-4.33,6.26-4.57,9.87-4.81,14.69-4.57,17.82-7.46,8.67-2.17,13-1.69,8.91.96,15.41,3.13,5.06,6.74,5.3,8.43,7.7,4.33,9.15,7.7,8.43,15.89,10.11,17.57,6.26,7.46,3.85,9.39-2.41,4.09-1.93,5.54,3.37,5.78,1.2,8.43-1.69,3.61-.96,8.43-1.22,6.14-5.36,7.38-7.04,4.55-2.48,8.28,19.87,5.38,19.87,5.38c2.8,3.5,12.2,5.77,15.47,6.4l2.33.22ZM105.84,206.14v-15.34s0-3.07-1.36-7.16,0-15.68,0-15.68c0,0,.68-11.25-4.43-11.25s-14.32,7.16-19.09,7.5-12.95,3.41-11.25,5.8,9.2,7.5,10.91,11.42,2.16,9.72,7.04,10.74,10.34,4.09,11.02,7.16,3.07,6.14,7.16,6.82Z" fill="none" stroke="#000" stroke-miterlimit="10" stroke-width="4"/></svg>