<?xml version="1.0" encoding="UTF-8"?><svg id="streets" xmlns="http://www.w3.org/2000/svg" width="1966.75" height="1944.04" viewBox="0 0 1966.75 1944.04"><path d="M347.06,237.54c3,3.2,4.82,6.94,5.46,11.24.13,2.5.15,5,.06,7.5-.03,3.15-.13,6.26-.28,9.4s.51,7.76-1.12,10.73c-1.87,2.28-4.04,4.21-6.52,5.8-1.91,1.44-3.44,3.2-4.59,5.29-2.3,4.06-2.52,8.64-3.32,13.12-.73,4.08-1.45,7.7-.63,11.88,1.1,5.59,3.94,10.02,6.3,15.07,1.61,3.44,3.22,7.05,4.49,10.63,1.7,4.79,1.26,10.7,1.27,15.67,0,1.8,1.39,14.5-3.53,13.7-1.13-.66-2.17-1.44-3.12-2.33-1.96-1.65-3.94-3.29-5.93-4.91-2.64-2.1-5.05-4.43-7.24-6.98-1.64-2.21-3.24-4.45-4.77-6.73-5.15-6.46-12.74-10.22-19.75-14.21-6.21-3.54-12.33-7.28-18.16-11.41-4.3-3.05-9.03-7.03-14.39-7.94" fill="none" stroke="#fff" stroke-miterlimit="10"/><path d="M262.1,323.68c5.61.47,11.03,1.68,16.27,3.64,1.17.82,2.36,1.6,3.58,2.35,3.23,2.04,6.78,3.48,9.98,5.6,2.03,1.3,3.99,2.7,5.88,4.19,2.37,1.51,4.75,3,7.15,4.46,3.56,2.76,6.35,6.3,9.82,9.18,6.8,5.63,14.31,10.33,20.94,16.14,2.58,2.26,5.15,4.07,8.05,5.82.94.57,1.98,1.66,3.08,1.95-1.18,1.64-2.81,2.99-4.21,4.45s-2.64,3.45-4.28,4.5c-8.08-5.11-15.8-10.8-23-17.08-2.71-2.36-5.24-4.93-8.24-6.92-4.28-2.83-9.24-4.26-14.11-5.75-4.39-1.35-8.75-2.7-13.02-4.42-5.13-2.06-10-4.71-15.09-6.85-3.64-1.53-7.38-2.8-10.96-4.47-1.75-.82-4.15-1.51,8.15-16.81Z" fill="none" stroke="#fff" stroke-miterlimit="10"/><path d="M130.73,501.47c4.28,1.75,7.74,2.37,12.4,2.84,3.38.34,6.38,1.26,9.61,2.24,4.08,1.23,8.64,1.25,12.86.99,4.43-.28,9.24-.09,13.61-.95,3.27-.64,6.43-1.65,9.76-2.06,2.86-.35,5.67-.39,8.55-.31,6.8.18,13.6.21,20.4,0s13.59-.44,20.42-1.54c9.63-1.55,18.74-2.55,28.52-1.95,6.22.38,12.31,1.19,18.49,1.78,1.95.19,3.54.05,5.18-1.02.71-.46,1.31-1.73,2.26-1.41.55.19.92,1.38,1.45,1.49.86.18,1.44-.75,1.97-1.26,3.1-3.03,6.48-5.86,9.32-9.15,1.41-1.64,2.68-3.4,4.27-4.87,1.38-1.28,2.36-.98,3.96-.11,4.88,2.64,9.76,5.12,14.12,8.58,1.28,1.02,2.79,2.89,4.64,2.64s3.51-2.66,4.62-3.91c1.26-1.42,2.71-2.68,3.79-4.24-1.61-1.42-4.92-2.9-4.8-5.39.66-1.95,1.65-3.73,2.98-5.33,2.07-2.39,4.18-4.76,6.32-7.1,3.59-4.67,4.61-9.94,6.02-15.5,1.04-4.07,2.07-8.13,3.35-12.13,1.58-4.95,3.95-9.72,5.06-14.81.72-3.32,1.44-6.88-1.23-9.55-2.19-1.42-4.4-2.78-6.65-4.1-2.4-1.6-4.17-3.71-5.32-6.34-.75-2.61-1.02-5.26-.82-7.96.29-1.67-.23-2.74-1.54-3.2-.94-.73-2.03-.87-3.26-.44-1.89.16-3.61-.33-5.15-1.45-2.98-1.84-5.75-4.44-8.25-6.85-7.38-7.07-16.06-12.55-24.28-18.58-3.39-2.48-6.25-3.75-10.32-4.75-3.11-.65-6.13-1.59-9.06-2.83-3.07-1.56-6.15-3.1-9.24-4.63-7.11-3.26-14.54-6.26-21.88-8.97-4.12-1.52-8.35-2.32-12.52-3.63" fill="none" stroke="#fff" stroke-miterlimit="10"/><path d="M116.97,516.94c7.38-.49,14.66-.59,22.03-.82,5.24-.16,10.42-.94,15.65-1.25,12.03-.7,23.97.31,35.98-.83,5.3-.5,10.59-.47,15.91-.56,7.66-.13,15.28-.98,22.95-1.03,6.5-.04,13.05-.3,19.51.48,3.72.45,7.39,1.06,11.14,1.21,4.76.19,9.12-.7,13.83-1.26,4.02-.48,7.87-.6,11.82.36,2.11.51,4.53.7,6.48,1.72,2.6,1.35,4.59,3.48,6.46,5.69,2.29,2.71,4.97,4.49,7.83,6.56,4.16,3.01,7.34,7.1,11.51,10.05,2.7,1.91,5.62,3.48,8.01,5.79,1.69,1.63,3.37,3.06,5.18,4.55,3.1,2.54,3.68,6.58,4.51,10.3,1.13,5.1,2.56,10.17,2.72,15.42.06,1.95-.54,4.68-.22,6.73.24,1.54.96,1.95,2.03,2.79,1.76,1.38,3.72,2.7,4.52,4.86.36.98.3,1.88.28,2.9-.05,2.4-.27,4.74-.16,7.14.16,3.7,1.15,7.85.46,11.53-.33,1.75-.75,2.47-2.44,3.2s-3.74.69-5.14,1.88c-.86.73-.95.62-1.14,1.74-.25,1.51-.5,2.95-.82,4.46-2.21,10.24-.42,20.35.56,30.64.24,2.57.41,5.06.22,7.64-.14,1.98-1.05,6.94-2.53,8.91-.75,1-1.88,1.69-2.71,2.59-1.87,2.04-3.55,5.19-5.05,7.29-3.58,5.02-7.41,9.95-11.95,14.15-.36.33-2.75,1.97-3.02,2.56-.71,1.49,1.89,6.61,2.38,7.42.52.85,1.2,1.43,1.78,2.07.93,1.02,1,.67.31,2.37-1.53,3.77-3.85,7.33-5.15,11.17-.59,1.74-.32,3.54-.09,5.32.5,3.85,1.59,7.7,2.18,11.53.16,1.06.84,3.05.27,4-.77,1.29-6.68.14-8.08-.16-2.25-.49-4.29-1.26-6.21-2.53-1.31-.86-4.08-2.21-4.51-3.65-.86-2.92,2.48-8.51-1.92-9.59-3.03-.74-6.09-.03-9.15-.75-3.58-.84-7.61-1.54-11.05-2.6s-6.52-2.46-9.56-4.7c-2.09-1.54-3.49-2.79-5.69-3.99-5.17-2.82-10.59-4.97-15.63-8.05-6.07-3.72-11.96-8.65-18.61-11.38-4.41-1.81-8.87-3.58-13.66-3.42-2.3.08-4.58.25-6.87.44-3.12.26-6.41.05-9.26,1.38.03,4.03,1.01,7.87,1.61,11.85.95,6.33.98,12.71.92,19.11-.02,2.86-.1,5.72-.02,8.58.12,4.14,1.22,8.22.87,12.35-4.42-2.16-8.05-5.65-12.73-7.37-3.42-1.26-5.95-1.02-9.31-.18-3.99.95-8.05,1.45-12.16,1.51-6.68.37-13.36.52-20.04.43-6.8,0-14.11.67-20.8-1.04-5.69-1.46-10.16-5.81-15.97-7-3.14-.64-6.2-.35-9.03-2.08-1.19-.53-1.83-1.43-1.93-2.71.14-4.13.49-8.25,1.05-12.35,1.09-8.86,2.97-17.46,5.39-26.04,1.34-4.76,1.84-9.55,2.54-14.44,1.12-7.8,2.55-15.57,4.09-23.3,2.57-12.92,2.35-26.13,4.6-39.1,1.1-6.37,2.36-12.55,2.98-18.99.72-7.49,1.67-14.99,2.9-22.41.89-5.35,2.29-10.54,2.63-15.98.13-2.11.19-4.22.18-6.34-.22-.93-.04-1.72.55-2.37" fill="none" stroke="#fff" stroke-miterlimit="10"/><path d="M40.54,740.73c6.77-.67,13.39-2.07,19.87-4.18,5.13-1.65,10.31-3.09,15.55-4.32,1.78-.31,3.47-.88,5.06-1.71.99-.46,2.02-.78,3.1-.98.77-.02,1.16-.39,1.16-1.11.03-.99,0-1.98-.12-2.97-.34-4.41.1-8.2,1.48-12.39,1.22-3.68,1.23-7.46,1.4-11.3.24-5.35,1.33-10.48,2.32-15.73,1.72-9.09,3.4-18.14,4.45-27.33,1.16-10.16,2.77-20.23,5.06-30.2,1.1-4.78,2.47-9.42,2.86-14.33s.31-9.76.71-14.63c.31-3.75.75-7.48,1.37-11.2s1.88-7.51,2.41-11.31c.56-4.03,1.05-8.14,1.37-12.19.36-4.6.85-9.16-.15-13.69" fill="none" stroke="#fff" stroke-miterlimit="10"/><path d="M36.23,753.53c6.58-2.52,12.92-5.15,19.75-6.82,3.39-.83,6.75-1.82,10.24-2.16,3.17-.31,6.34-.27,9.51-.7,4.29-.59,9.04-1.82,13.15-3.31,2.43-.88,2.39-1.65,4.02-3.56,3.05-3.58,5.88-3.2,9.97-1.49,6.01,2.51,12.66,3.89,18.29,7.22,1.46.86,2.49,1.59,4.22,1.86,2.25.35,4.47.67,6.75.79,6.12.33,12.71-.32,18.83-1.04,2.96-.35,5.63-.78,8.6-.52,2.79.25,5.22.21,8.03-.13,2.27-.27,4.63-.74,6.93-.56,1.62.12,3.15.63,4.74.93,2.45.45,5.09.21,7.29,1.5,3.59,2.11,6.54,5.17,10.82,5.73,2.83.37,8.02.72,9.77-2.14s-.03-7.23-.6-10.12c-.77-3.92-2.11-7.98-2.38-11.95-.14-2.11.09-4.2.21-6.31.16-2.73-.58-5.17-.88-7.82-.2-1.79.05-3.59-.06-5.37-.16-2.61-1.73-4.86-3.09-6.98,1.09-1.8,5.43-1.35,7.42-1.59,3.1-.37,5.17-.66,7.93.78,3.64,1.89,6.6,4.84,10.38,6.61,3.03,1.42,6.39,2.15,9.62,2.95,3.56.88,6.28,2.14,9.03,4.49,1.66,1.87,3.66,3.28,5.99,4.23l2.98,1.07c4.53,1.55,8.83,3.31,13.07,5.55,3.07,1.62,5.71,2.97,8.97,4.05,2.34.78,5.41,1.34,7.13,3.32.92,1.82,2.19,3.35,3.82,4.61l3.63,2.23c2.28,1.26,4.05,2.01,6.01,3.68,3.83,3.25,7.8,5.64,12.63,7.03,2.23.64,3.02.46,4.45,2.08,2,2.25,3.69,4.73,5.33,7.25,2.79,4.3,3.24,8.34,3.16,13.51-.05,3.21-.15,6.36.44,9.53.53,2.9,1.58,5.62,1.83,8.58.75,8.69-.68,17.2-4.6,25.01-2.71,5.4-5.6,10.69-8.05,16.22-2.07,4.68-3.43,9.63-6,14.08-1.72,2.99-4.14,5.92-4.82,9.35-.81,4.05,1.76,7.77,3.84,11.04,2.44,3.85,5.08,7.53,6.68,11.84,1.25,3.36.94,6.63.81,10.17-.24,6.09-.64,12.27-.12,18.35.16,1.81,1.23,3.27,1.36,4.95s-1.27,3.34-2.16,4.7c-4.1,6.26-8.18,12.63-13.58,17.86s-12.06,10.39-13.24,18.53c-.77,3.51-1.33,7.05-1.71,10.62.14.19.16.38.08.58-.6,1.73-2.13,2.14-3.72,2.69-2.39.86-4.82,1.59-7.3,2.18-2.2.76-4.44,1.34-6.73,1.75-2.32.27-6.17-.5-7.64,1.77-.89,1.37-.06,2.98-.7,4.39-1.1,2.44-5.72,2.65-7.98,3.19-3.27.72-6.5,1.58-9.7,2.57l-3.69,1.38c-1.7,1.4-1.96,3.11-.76,5.11.94,1.53,1.14,3.11.6,4.72-3.94.8-7.78,1.43-11.62,2.65s-8.25,2.62-10.32,6.51c-2.2,4.12-1.91,9.87-2.54,14.41-.58,4.72-1.68,9.31-3.3,13.78-1.04,2.17-1.68,4.43-1.91,6.79-.77,5.24,1.34,10.35,2.43,15.43,1.44,6.68,1.5,13.46,2.48,20.19.73,5.01,1.88,9.97,2.85,14.93.31,1.57,1.12,3.73.45,5.32-5.6,1.07-11.45.69-17.11,1.56-2.8.43-5.62.8-8.42,1.26-1.5.24-3.82,1.09-5.28.5-.51-4.18-1.11-8.28-2.02-12.39-.05-.23-1.11-7.47-2.8-8.14-1.44.4-2.88.83-4.32,1.27-1.91.7-3.9,1.05-5.95,1.04-3.21.08-7.26-1.06-9.06,2.52l-1.14,4.57c-.79,3.98-1.68,7.94-2.68,11.88-.83,3.8-1.46,7.6-2.02,11.45-.69,4.79-1.64,9.37-3.51,13.84-2.19,5.25-5.22,10.07-7.6,15.23-1.62,3.5-2.93,7.13-4.58,10.61-.68,1.43-2.21,5.38-4.23,5.92-.45.12-1.56-.01-2-.32-.17-.12-1.64-1.61-1.73-1.77-1.07-1.75,2.85-9.88,2.87-9.92,2.19-4.83,4.98-9.36,6.87-14.34,1.31-3.45,2.48-6.96,3.78-10.41,1.79-4.77,4.47-8.95,6.71-13.49l-1.28-1.77c-2.62-.42-5.21-.32-7.77.31-1.8.32-3.61.6-5.43.84-1.55.54-3.06.46-4.53-.27-.94-.97-.26-2.25-.01-3.36.91-2.33,1.09-4.68.55-7.04.31-1.57-.25-2.65-1.66-3.22-5.58,4.63-12.66,6.79-19.4,9.16-7.17,2.51-14.43,4.25-21.75,6.25-10.84,2.96-21.69,6.05-32.19,10.05-7.99,3.04-16.25,5.18-24.16,8.45" fill="none" stroke="#fff" stroke-miterlimit="10"/><path d="M30.1,1134c7.32-3.08,14.79-5.68,22.25-8.39,8.94-3.24,18.1-5.37,27.17-8.15,8.98-2.75,17.55-6.59,26.64-9.02,5.31-1.42,10.55-2.68,15.76-4.39.53,1.36.07,2.97.07,4.41,0,2.45.63,3.49,3.09,4.23,1.88.56,3.93,1.13,5.86,1.48,1.28.33,2.51.28,3.71-.14.64-.43,1.21-.36,1.7.2-1.04,4.47-3.25,8.07-5.66,11.91-2.96,4.72-5.43,9.4-7.77,14.45-1.67,3.61-3.28,7.25-5.34,10.66-1.19,1.97-2.65,3.64-3.45,5.82,1.45,1.35,3.03,1.79,4.76,2.74,1.13.63,2.09,1.42,3.28,1.97,2.88,1.33,6.15,3.15,9.32,3.57,4.71.62,7.11-5.19,9.07-8.64,3.21-5.66,7.65-10.62,10.4-16.55,3.01-6.47,4.21-13.84,6.43-20.61,2.38-7.28,5.11-14.27,6.89-21.73.44-1.86,2.43-12.64,6.08-8.45,1.66,1.91,1.62,5.16,1.97,7.51.44,2.98.9,5.85.77,8.89-.44,10.14-3.34,19.56-6.54,29.14-5.05,15.1-9.87,30.09-12.83,45.75-1.06,5.62-1.95,10.87-3.7,16.29-2.05,6.35-4.14,12.72-6.45,18.98-1.11,3.01-2.19,6.21-3.78,9.01-1.3,2.27-2.76,2.88-4.87,4.16-2.76,1.68-5.23,3.97-8.27,5.19l-3.68,1c-2.93.74-5.44,2.17-7.53,4.28-4,3.28-6.8,7.72-10.91,10.87-2.15,1.65-4.48,3.13-6.71,4.68-3.23,2.23-6.52,4.34-9.7,6.65-3.61,2.63-7.16,6.1-11.27,7.93-1.91.85-3.92,1.51-5.87,2.27-.63.24-1.01.27-1.39.76" fill="none" stroke="#fff" stroke-miterlimit="10"/><path d="M70.65,1281.08c3.05-.78,6.11-1.66,9.21-2.22,1.24-.22,2.48-.33,3.65-.88,2.73-1.27,4.86-4.11,7.14-6.01,2.84-2.37,6.03-4.27,9-6.49s5.87-4.96,8.8-7.5c2.38-2.07,4.93-3.9,7.33-5.94,2.22-1.88,4.16-4.2,6.51-5.91.64-.47,2.83-2.35,3.76-2.13,1.96.47.91,5.53.86,6.95-.05,1.29.04,2.22.96,3.21,1.22.72,2.36,1.55,3.41,2.5,1.01.69,1.85,1.55,2.52,2.58,1.45,1.79,2.79,3.71,4.47,5.3,1.11,1.05,2.32,1.93,3.4,3.02,2.01,2.03,3.69,4.38,5.36,6.7,3.02,4.19,6.52,7.84,9.97,11.69,15.6,17.39,27.87,37.14,41.36,56.13,3.48,4.9,7.31,9.53,10.62,14.54,2.39,3.61,4.6,7.31,7.18,10.79,6.38,8.61,12.73,17.23,19.17,25.8,6.83,9.1,13.77,18.45,19.37,28.37,1.96,3.47,3.65,7.1,5.8,10.46s4.71,6.53,7.14,9.72c2.05,2.68,4,5.5,6.21,8.06s4.62,4.7,6.95,7.03c2.15,2.15,4.15,4.36,5.93,6.83,1.21,1.68,2.33,3.49,4.12,5.59,4.22,6.03,8.43,12.06,12.71,18.05,3.08,4.32,6.55,8.31,9.75,12.53,3.49,4.63,6.26,9.73,9.62,14.45,3.88,5.46,8.35,10.4,12.07,15.99,8.83,13.26,16.45,27.31,24.86,40.84,3.65,5.87,7.05,11.87,11.05,17.52s8.35,11.47,11.89,17.72c7.75,13.71,14.55,27.91,22.27,41.64,3.86,6.86,7.73,13.45,12.53,19.68,3.34,4.34,6.8,8.57,9.92,13.08,2.47,3.58,5,7.04,7.78,10.4,2.53,3.06,4.14,6.23,6.21,9.62,4.96,8.11,11.54,15.03,16.47,23.6,7.79,10.94,16.73,21.14,24.11,32.36,4.75,7.22,7.67,15.28,12.61,22.39,3.42,4.93,7.11,9.22,9.69,14.64,2.75,5.79,6.31,11.18,9.84,16.52" fill="none" stroke="#fff" stroke-miterlimit="10"/><path d="M318.28,1486.59c5.07,10.09,10.53,19.93,16.37,29.59,3.12,5.16,6.02,10.44,9.68,15.23,9.93,12.99,18.91,26.71,28.36,40.04,5.01,7.07,9.19,14.34,13.2,22.02,3.65,7,8.06,13.58,11.5,20.69,2.34,4.85,4.63,9.51,7.55,14.06,5.42,8.43,10.47,17.27,16.49,25.28,8.97,11.95,15.18,25.42,22.94,38.11,3.35,5.47,7.74,10.26,11.32,15.58,3.09,4.58,5.91,9.43,9.43,13.71,2.18,2.65,4.51,5.17,6.62,7.9,5.67,7.31,11.86,14.54,16.53,22.55,2.27,3.89,4.4,7.79,6.94,11.52s5.31,7.25,7.66,11.07c4.5,7.3,8.21,15.2,12.08,22.85,2.92,5.76,5.08,11.85,7.87,17.67" fill="none" stroke="#fff" stroke-miterlimit="10"/><path d="M523.33,1820.58c2.99-2.88,5.84-5.81,8.61-8.88,2.58-2.85,5.29-4.84,8.39-7.06,1.97-1.41,3.53-3.15,5.11-4.97,2.9-3.36,5.92-6.5,9.22-9.46,6.51-5.83,12.81-11.79,19.54-17.38,3.43-2.85,6.95-5.4,10.64-7.89,8.85-5.98,17.16-13.39,26.07-20.82,11.24-7.65,22.68-15.01,33.54-23.2,3.9-2.94,7.64-5.86,11.08-9.36,5.92-6.04,11.52-14.12,19.9-16.64,6.38-1.92,12.66-3.38,19.2-4.59,4.5-.84,8.9-2.06,13.39-2.93,3.55-.68,7.08-1.5,10.62-2.18,3.89-.74,8.14-.48,13.94-.58,7,.42,13.06,1.27,19.73-.16,3.24-.7,6.42.1,9.66-.44,5.25-.88,10.02-3.49,14.75-5.77,5.3-2.56,10.69-5.11,16.49-6.31,14.79-3.07,27.75,4.36,40.17,11.23-.06-1.94-2.74-4.68-3.76-6.37-2.26-3.72-3.92-7.75-5.78-11.66s-4.37-7.08-6.79-10.77-4.36-7.83-5.78-12.18l-.94-2.96c-.3-1.85.53-3.12,2.5-3.83,4.21-3.21,8.73-6.16,13.16-9.04,5.5-3.58,11.38-6.34,16.28-10.79,4.06-3.7,8.35-6.22,13.29-8.56,7.87-3.73,15.81-7.18,23.46-11.36,4.26-2.32,7.36-5.57,10.94-8.74s7.8-6.04,11.37-9.41c2.79-2.64,5.39-5.26,8.36-7.74,2.46-2.06,5.21-3.92,7.37-6.3,1.87-2.06,3.72-4.12,5.67-6.11s4.59-4.12,6.54-7.22c4.79-4.57,9.25-9.42,13.4-14.58,2.77-3.91,5.6-7.76,8.5-11.57,4.27-4.97,8.8-9.51,12.67-14.83,2.88-3.96,5.91-7.55,9.14-11.2,1.77-1.79,3.11-3.85,4.01-6.2.44-1.51.97-3,1.59-4.45,2.03-4,5.17-6.61,8.84-9.1,4.06-2.76,7.8-5.78,11.65-8.82,2.87-1.77,5.27-4.04,7.19-6.82,1.65-3.04,2.76-6.27,3.34-9.67.73-3,1.24-6.08,2.9-8.76,1.8-2.91,4.7-4.69,6.74-7.37,1.21-1.8,2.19-3.72,2.95-5.75,1.1-2.11,2.75-3.53,4.95-4.27,2.96-1.63,6.06-2.95,9.31-3.95,4.3-1.9,8.54-3.91,12.72-6.06,5.11-2.47,10.06-4.29,15.42-6.12,1.52-.52,7.73-1.89,8.68-3.73.67-.63.61-1.38-.18-2.24-.83-1.6-1.36-3.29-1.59-5.07-.71-3.3-1.52-6.37-2.17-8.33-5.33-.67-10.63-.54-15.89.39-5.49.61-10.95,1.37-16.4,2.27-7.06.96-14.09,2.04-21.14,3.03-21.27,2.99-43,4.87-64.47,5.73-9.23.37-18.43.48-27.65-.23-8.31-.64-16.57-1.72-24.86-2.54-12.59-1.26-25.14-3.5-37.54-5.97-5.05-1.01-9.98-2.43-15-3.58-6.52-1.49-13.1-2.72-19.6-4.28-12.19-2.93-24.39-7.01-36.01-11.72-7.74-3.14-15.42-6.31-23.04-9.71-5.95-2.65-10.93-6.31-16.05-9.62-9.32-5.75-18.64-11.32-27.58-17.66-6.65-4.72-13.59-9.01-20.25-13.7-5.8-4.09-11.21-8.76-16.61-13.35-4.04-3.35-7.98-6.81-11.83-10.39-4.54-4.74-9.03-9.53-13.47-14.37-7.1-7.37-14.66-14.3-21.94-21.49-3.38-3.34-7.17-6.13-10.69-9.29-4.18-3.77-6.77-8.91-10.53-13.05-3.06-3.36-6.03-6.14-8.31-9.08-16.23,12.7-33.97,23.15-49.72,36.5-8.05,6.82-15.73,14.21-24.31,21.84-9.23,5.9-18.65,11.59-27.62,17.88s-17.38,11.77-25.73,18.09c-5.97,4.52-12.03,8.88-18.01,13.37-1.71.73-2.88,1.91-3.53,3.54.24,1.21.69,2.33,1.35,3.36.58,1.01,1.1,2.05,1.54,3.12-.34,1.17-.98,2.15-1.92,2.93-3.59,3.68-7.87,6.8-11.8,10.08-5.57,4.65-11.29,9.05-17.07,13.43-2.96,2.39-5.99,4.67-9.12,6.83-1.27.37-2.34,1.03-3.21,1.98.66,2.07,1.89,3.76,3.71,5.06,1.79.99,2.63,2.4,2.53,4.24-2.36,1.64-4.66,3.36-6.91,5.16-3.09,3.02-6.09,6.11-9.03,9.28-2.85,2.78-5.59,5.21-8.34,8.1-7.32,7.69-15.84,13.94-24.13,20.52-4.42,3.53-8.87,7.03-13.34,10.49-2.68,2.08-5.4,4.11-8.16,6.08-3.47,3.35-7.03,6.48-10.71,9.61-3.15,2.69-6.24,5.46-9.26,8.29-2.18,1.8-4.58,3.26-7.17,4.38-3.36,1.88-6.92,3.91-9.33,7.3-1.11,1.03-2.18,2.11-3.19,3.24l.34-.11" fill="none" stroke="#fff" stroke-miterlimit="10"/><path d="M300.26,1469.01c2.74.94,5.02,2.5,6.84,4.67,1.45,1.33,2.75,2.79,3.9,4.38.28.28.95,1.2,1.33,1.26.91-.94,1.92-1.76,2.93-2.6,2.74-2.27,5.53-4.46,8.2-6.81s5.26-4.9,7.95-7.29c2.95-2.61,6.05-5.04,9.23-7.36,5.33-3.9,11-7.34,16.33-11.24l5.82-4.46,2.25-2.29c.42-.73.6-1.61,1.03-2.35,1.36-2.3,3.69-4.12,5.55-5.97,4.92-4.9,10.66-8.93,16.24-13.04,7.32-5.39,15.3-9.77,22.63-15.14,2.05-1.5,4.37-3.08,5.95-5.11.8-1.02.38-.28.27-1.01-.3-.42-.61-.84-.91-1.26-.63-.91-1.32-1.78-2.05-2.62-1.69-2.07-3.45-4.08-5.2-6.1.12-.88.67-1.38,1.65-1.5,1.97-1,3.95-2,5.93-2.99,3.39-1.92,6.56-4.09,9.65-6.47.95-.69,1.85-1.42,2.72-2.21,1.31-1.09,2.56-2.24,3.77-3.44,2.25-1.75,4.61-3,7.41-4.97,4.2-3.26,8.32-6.68,12.7-9.71.73-.5,1.57-.89,2.27-1.43-.33-2.29-2.73-4.28-4.07-5.94-.9-1.12-2.46-2.56-2.52-3.9-.07-1.53,4.66-4.66,5.88-5.65,3.89-3.15,7.98-6.12,11.97-9.12,4.95-3.72,9.97-7.37,14.84-11.19,2.9-2.28,5.71-4.56,8.75-6.65,6.63-4.57,13.53-8.62,19.71-13.83,2.15-1.82,4.29-3.64,6.49-5.4,7.9-6.31,15.76-12.49,24.38-17.82s18.81-9.76,26.7-16.92c3.24-2.94,6.04-6.3,9.25-9.28,3.66-3.39,7.8-6.2,11.82-9.16,5.3-3.91,11.05-7.39,15.4-13.19-7.31-11.46-15.45-23.12-21.75-35.27-3.08-5.93-5.65-12.06-8.17-18.24-4.9-12.02-10.5-23.75-15.37-35.78-6.59-16.3-12.28-32.92-17.21-49.8-3.19-10.92-4.56-21.34-5.61-32.66-.89-9.6-1.98-19.18-2.71-28.79-1.51-20.05-.68-40.04.65-60.08,1.51-22.77,5.41-45.52,11.21-67.57,3.34-12.69,5.87-25.47,9.93-37.96,1.16-3.56,2.37-6.96,3.12-10.61.26-1.29.53-2.57,1.1-5.12-11.21-5.32-21.95-12.02-33.93-15.41-5.5-1.56-10.88-3.44-16.37-4.97s-11.02-2.43-16.44-4.04c-8.05-2.4-16.19-4.49-24.18-7.1-6.01-1.96-12.06-3.83-18.01-5.94-6.64-2.36-13.09-5.19-19.81-7.3-10.2-3.2-20.33-6.56-30.52-9.82-9-2.88-17.78-2.3-27.16-2.58-12.64-.38-25.42-.78-38.9-.61,1.25,5.12,1.84,10.28,1.77,15.49.54,1.9.12,3.52-1.26,4.86-1.81,2.77-3.33,5.68-5.05,8.51-2,3.3-4.37,6.36-5.78,9.99s-1.62,7.61-3.21,11.32c-2.71,6.34-6.27,12.38-9.22,18.63-.89,1.89-1.9,3.44-1.65,5.61.53,4.51,5.3,10,7.37,13.73,2.21,3.98,4.4,8.04,5.38,12.52.59,2.71.19,5.27.04,8.01-.45,7.94,1.63,16.41-.58,24.17-1.36,4.75-5.76,5.3-8.79,8.56-2.47,2.67-4.32,5.89-6.85,8.56-2.23,2.36-4.65,4.51-6.23,9.31-2.68,6.03-4.75,11.27-5.48,17.82-.51,4.55-.37,7.59-4.48,10.2-5.86,3.73-13.46,4.31-19.93,6.59-2.5.17-4.21,1.35-5.13,3.56.21,1.59-.03,3.08-.7,4.47-.32,1.67-1.54,2.35-3.67,2.02-3.14.67-6.25,1.46-9.32,2.38-1.37.23-2.74.41-4.12.52-1.53,1.28-1.99,2.96-1.38,5.02.34,2.64-.74,4.39-3.24,5.25-2.86.87-5.71,1.74-8.57,2.62-2.61.82-7.77,1.45-9.43,3.48-2.63,7.91-6.53,15.21-8.26,23.41-.91,4.3-.18,8.26.59,12.53.82,4.57,1.53,9.12,2.53,13.66,1.98,8.97,3.94,17.98,5.22,27.08l.91,7.01c.56,2.73.59,5.46.09,8.18l-2.32,1.3c-4.24.5-8.49.91-12.74,1.22-5,.7-9.82,2.17-14.82,2.79-2.95.36-8.51-.29-10.76,2.51-.95,2.17-1.48,4.44-1.58,6.8-.49,3.92-1.01,7.83-1.54,11.75-1.38,9.63-3.34,18.88-5.66,28.32-2.49,10.12-4.61,20.38-8.06,30.22-2.54,7.22-5.09,14.54-7.86,21.68-1.59,4.63-3.9,8.85-6.95,12.66l-2.67,3.24c-.89,1.38-1.28,2.91-1.15,4.58-.35,2.64-1.08,5.16-2.19,7.56-1.95,4.88-4.74,8.86-8.12,12.84,1.22,2.86,3.17,4.78,5.24,7.11,4.58,5.15,9.22,10.25,13.67,15.52,5.84,6.91,10.79,14.62,16.23,21.85,6.74,8.95,13.38,18,19.62,27.31,4.67,6.97,9.35,13.92,14.28,20.71,6.13,8.45,12.97,16.27,19.33,24.54,7.14,9.28,13.42,19.13,20.38,28.54,10.09,13.65,21.28,26.45,30.91,40.45,4.81,6.99,9.2,14.25,13.99,21.25,3.02,4.42,5.66,8.79,8.32,14.95Z" fill="none" stroke="#fff" stroke-miterlimit="10"/><path d="M354.89,218.45c3.9,4.53,7.23,9.45,9.98,14.76,1.71,3.7,2.15,7.52,1.32,11.45-.74,7.13-.51,13.88-.27,21.04.2,5.92-.91,11.07-4.6,15.85-1.74,1.71-3.21,3.62-4.41,5.74-1.2,2.48-2.18,5.03-2.95,7.67-1.61,4.27-2.54,8.7-2.81,13.3-.92,5.53.48,10.22,4.2,14.09,2.67,1.98,4.12,4.63,4.35,7.96.5,4.7.91,9.42,1.23,14.14.24,6.83-.55,13.56-.55,20.37,0,9.31-3.95,17.24-8.26,25.3-.36,1,2.43,4.2,2.76,4.77,1.85,3.08,1.94,6.12,2.3,9.59s1.98,4.55,4.7,6.43c2.3,1.59,4.39,3.56,6.65,5.22,1.17.69,2.14,1.6,2.91,2.73-.2,2.36-.65,4.66-1.36,6.93-1.73,7.71-3.08,15.5-5.45,23.05-1.87,5.98-3.68,11.96-5.49,17.95-1.71,5.66-4.57,9.79-7.41,14.82.33.78.95,1.23,1.84,1.35,1.21.68,1.63,1.61,1.26,2.8.07,1.86-.78,3.38-2.55,4.56-1.62,1.88-3.14,3.83-4.56,5.87-2.66,3.71-6.13,6.48-9.09,9.92-1.84,2.13-3.28,4.34-5.62,5.97-4.09-2.1-8.2-5.28-11.8-8.02l-5.78-4.56-3.8-2.8c-3.79-.97-5.21,6.45-6.56,8.91-.86,1.57-2.25,2.77-1.93,4.63.35,2.05,2.12,2.13,3.66,3.13,2.79,1.82,5.21,4.4,7.66,6.62,3.55,3.21,7.15,6.24,11.06,9.03,5.6,4.01,11.88,8.06,16.53,13.2,2.18,2.41,5.68,5.08,6.69,8.23,1.99,6.17-.72,13.61-1.54,19.67-.26,1.94-1.23,5.2-.04,7.06.77,1.21,2.71,1.85,3.95,2.31,2.33.87,3.41.77,4.46,2.84,1.12,2.21.75,5.7.74,8.09-.02,4.94-1.64,9.73-2.27,14.66-.59,4.55-.79,9.12-1.03,13.71-.09,1.78.29,6.21-1.01,7.73-1.87,2.18-6.13-.77-7.04,3.15-.62,2.69-.13,5.78-.47,8.54-.26,2.07-.32,4.09-.28,6.18.06,3.63-.03,7.38.83,10.93.55,2.28,1.4,4.51,1.68,6.85.54,4.42-.45,8.01-3.26,11.47-2.03,2.5-4.45,4.62-6.64,6.98-4.5,4.85-8.7,9.97-13.17,14.85,1.75,2.05,3.74,4.39,5.77,6.68.98,1.11,1.82,1.83,1.77,3.34-.1,2.92-3.57,6.87-5.13,9.23-1.72,2.6-1.91,4.9-1.93,7.94-.04,6.01-1.95,12.14-1.5,18.11.52,6.9,5.09,13.11,6.53,19.8.32,1.5.41,3.05.37,4.58-.02.9-.26,2.94.18,3.8,1.14,2.23,5.57,2.22,7.63,2.39,3.72.31,7.4-.07,11.12-.15,6.59-.14,13.18,1.16,19.77,1.37,5.39.18,10.68.84,16.04,1.4,6.95.72,13.81,1.25,20.64,2.75,5.71,1.25,11.6,2.2,17.19,3.94,8.17,2.54,15.58,6.7,23.35,10.16,6.27,2.8,12.87,4.64,19.22,7.24,5.59,2.29,10.97,4.18,16.8,5.77,4.82,1.31,9.37,3.23,14.11,4.75,5.28,1.7,10.52,2.87,15.53,5.34,6.4,3.14,13.11,5.31,19.86,7.52,5.94,1.94,10.13-2.26,15.54-4.27,3.03-1.13,3.88-.86,5.06-4.41,1.36-4.1,1.96-9.16,5.54-12.08,1.41-1.15,3.21-1.1,4.89-1.45,4.76-1.01,9.14-2.68,13.8-.45,2.89,1.38,5.89,4.59,9.16,4.62,1.22.01,1.96-.58,3.11-.74,1.74-.24,2.31.4,3.76.93,6.37,2.3,5.16-5.95,6.28-9.93.53-1.91,1.27-2.84,2.57-4.32,2.63-3,5.52-5.77,8.12-8.82,2.03-2.38,3.99-4.67,5.47-7.42,2.21-4.13,2.52-9.22,3.15-13.78.48-3.48.93-6.95,1.27-10.44.28-2.92.44-5.48,2.05-7.96,1.42-2.19,3.25-3.83,4.94-5.8,2.73-3.17,4.29-6.07,5.85-9.91s2.62-6.29,5.03-9.49c3.71-4.92,8.11-9.18,12.37-13.63,2.84-2.97,5.94-5.89,8.59-9.04,2.31-2.76,3.75-5.41,5.27-8.63,1.6-3.39,3.01-5.41,5.65-7.86s4.94-4.44,7.15-7.24c2.04-2.58,3.76-4.96,6.16-7.24,3.96-3.75,8.14-7.11,15.1-11.81,1.52-1.31,3.02-2.66,4.48-4.04,1.06-.54,2.08-1.16,3.06-1.86l3.44-3.88c3.79-6.46,7.54-12.96,11.25-19.47,1.44-2.24,7.63-13.45,12.51-14.25,2.79.25,5.58.58,8.35.99,2.13.77,4.31,1,6.52.68l.89-2.73c-.48-2.72-.53-5.43-.13-8.14-.45-2.06.27-3.51,2.17-4.35,2.67-2.59,5.93-4.22,9.78-4.88,6.41-3.03,12.5-6.7,18.83-9.88,4.87-2.45,10.17-4.3,14.68-7.38,5.56-3.79,9.72-13.17,13.13-17.96,5.7-8.02,12.02-15.37,18.44-22.8,6.01-6.95,11.48-14.51,17.89-21.07,5.27-5.39,11.46-9.91,17.11-14.91,9.03-7.99,16.66-16.79,22.85-27.14,3.55-5.95,6.52-12.19,10.31-18.01,3.45-5.29,6.58-10.79,9.81-16.22,3.43-5.77,6.84-11.54,10.24-17.32,1.66-4.17,3.32-8.35,4.97-12.52,1.96-7.74,1.83-15.75,4.33-23.43,1.8-5.53,3.98-10.73,6.83-15.8,4.24-7.56,9.52-14.43,14.94-21.17,4.95-6.16,9.53-11.83,12.57-19.25s6.01-15.29,9.19-22.87c3.39-8.08,6.88-16.68,6.52-25.64l-.66-5.48-.45-3.79c.63-1.57,1.73-2.45,3.3-2.64,1.12-.02,1.89-.54,2.31-1.54,1.91-2.16.9-7.44.76-10.34-.1-2,.17-3.22-1.91-3.99-3.95.47-7.89,1.02-11.82,1.65-4.82.64-9.61,1.47-14.36,2.48-17.7,3.33-34.85,8.93-52.46,12.61-14.5,3.03-29.25,4.85-43.93,6.71-10.13,1.28-20.03,2.5-30.21,2.93-13.11.56-26.3-.05-39.39.66-6.17.33-12.09,1.34-18.16,2.4-7.91,1.38-15.89,2.16-23.81,3.49-7.48,1.25-14.82,2.94-22.22,4.61-2.83.64-5.64,1.31-8.47,1.97-1.1.26-4.24,1.29-9.84.81-16.81,1.46-33.38,5.26-50.26,6.09-9.14.45-18.34-.03-27.49-.05-8.39-.01-16.78.21-25.17.25-9.36.04-18.98.3-28.29-.9-8.51-1.1-16.99-3.44-25.08-6.23-21.63-7.47-42.47-17.43-63.77-25.75-19.89-7.77-41.04-12.14-60.75-20.34-2.35-.15-3.97-1.19-4.87-3.11-1.23-.95-1.37-2.04-.4-3.27.69-1.95,2.61-3.7,2.34-5.68-.38-2.77-8.49-5.16-10.5-5.97-6.02-2.45-12.16-4.51-18.35-6.48-7.46-2.37-15.18-5.04-33.05,2.38Z" fill="none" stroke="#fff" stroke-miterlimit="10"/><path d="M362.38,196.83c16.43,4.79,31.87,11.75,47.77,17.97,2.21.86,4.42,1.61,6.47,2.82,1.92,1.14,2.03,1.79,3.49-.32,3.41-4.92,6.33-10.67,8.52-16.27,2.38-6.08,1.86-12.07,3.69-18.16,1.54-5.09,3.58-9.75,4.46-15.08,1.02-6.11,1.44-12.3,2.36-18.43" fill="none" stroke="#fff" stroke-miterlimit="10"/><path d="M454.68,139.3c-4.79,14.36-9.31,28.55-13.3,43.12-1.78,6.5-2.73,13.02-4.24,19.56-1.43,6.19-3.57,12.27-6.86,17.72-1.27,2.1-4.27,4.54-2.56,7.06,1.96,2.89,5.9,4.42,8.87,5.84,4.61,2.19,9.38,3.36,14.11,5.17,10.14,3.87,19.95,8.92,30.59,11.18,5.56,1.18,10.58,3.94,15.73,6.21,7.75,3.41,15.56,6.87,23.54,9.7,4.06,1.1,7.97,2.6,11.71,4.52,2.24,1.54,4.61,2.83,7.13,3.85,4.95,1.95,10.06,2.91,14.9,5.17,4.24,1.98,9.46,2.09,14.03,2.79,3.51.54,7.07.96,10.6,1.26,4.83.29,9.66.51,14.49.67,2.97.38,5.91.89,8.83,1.54,4.3,0,8.59-.24,12.86-.68,4.53-.23,9.06-.1,13.57.38,6.1.57,11.72.94,17.78-.18,3.59-.82,7.23-1.43,10.89-1.83,3.64-.15,7.27-.5,10.88-1.05,6.7-1.27,13.22-3.41,19.93-4.66,7.36-1.38,14.74-1.36,22.14-2.16,4.11-.45,8.08-1.65,12.25-1.76,5.5-.14,10.42.53,15.9-.73,3.98-.92,7.79-1.65,11.84-2.12,4.93-.57,11.15-.22,15.84-2.11.9-.4,1.78-.84,2.64-1.32.15-2.23.12-4.45-.09-6.68-.52-5.15-1.23-10.27-2.12-15.37-.87-3.1-.33-5.86,1.62-8.26,1.86-1.15,3.86-1.63,6.01-1.44,1.51,0,2.19-.99,2.05-2.94,1.74-4.33,3.05-8.79,3.93-13.36,1.39-5.39,2.42-10.86,3.1-16.4,2.68-12.54,8.57-23.92,11.95-36.24,2.17-7.92,3.36-15.56,3.34-23.79-.02-12.18-2.33-24.16-2.6-36.3-.13-5.79.18-10.86,3.28-15.81-2.22-1.34-4.69-1.97-7.39-1.89-5.62-.65-11.19-1.55-16.73-2.69l-6.76-2.14c-5.48-1.63-11.03-2.93-16.66-3.9-4.3-.65-6.53-2.87-6.69-6.64-1.24-3.54-1.42-7.2-.53-10.96.21-6.89.21-13.78-1.37-20.52" fill="none" stroke="#fff" stroke-miterlimit="10"/><path d="M754.95,31.69c.34,6.81.63,13.56,1.22,20.34.28,3.24-.03,6.49.45,9.72.27,1.87.73,4.86,2.11,6.39s4.22,2.73,6,3.25c6.53,1.93,13.27,3.03,19.87,4.61,2.44.58,4.76,1.16,7.29,1.31,2.98.17,5.97,1.7,8.83,1.19,1.29-4.4,2.29-8.87,3.54-13.28,2.08-7.31,4.93-14.36,7.32-21.56,1.28-3.85,2.44-7.67,3.81-11.46-1.44-1.92-3.39-3.13-5.88-3.64-5.15-2.01-10.34-3.91-15.56-5.71" fill="none" stroke="#fff" stroke-miterlimit="10"/><path d="M826.71,22.06c-2.99,11.53-5.94,23.07-9.15,34.54-1.35,4.81-3.08,9.36-5.42,13.77-1.09,2.04-2.33,4.07-2.95,6.32-1.05,3.8.19,7.61.73,11.38.66,4.55.28,7.62-1.27,11.86-1.22,3.32-1.73,6.07-1.69,9.58.13,9.87.98,19.65,1.58,29.5.34,5.49.63,11,.04,16.48-.85,7.87-4.86,15-6.75,22.62-1.06,4.26-2.07,8.43-3.33,12.61-1.35,4.47-1.8,9.2-2.56,13.78-.95,5.79-2.2,11.18-4.21,16.66-1.55,4.24-2.09,9.09-4.03,13.12-1.48,3.09-4.65,3.85-7.22,5.84-1.48,1.15-1.41,1.06-1.33,3.43.11,3.12.66,6.25.92,9.36.18,2.22-.28,4.96,1.39,6.46,1.26.84,2.7,1.04,4.32.6,4.57-.55,9.05-1.51,13.45-2.9,5.06-1.41,9.86-2.76,15-3.79,2.88-.58,5.57-.98,8.08-2.51,4.31-2.63,8.62-5.97,11.87-9.84,4.53-5.39,9.27-9.14,15.37-12.6,3.91-2.21,7.66-4.71,11.72-6.63,4.4-2.08,8.06-3.67,12.06-6.51,5.34-3.78,10.31-7.91,15.19-12.25,5.65-5.02,11.81-9.55,17.07-14.98,5.97-6.16,12.04-12.1,18.18-18.11,4.43-3.81,8.31-8.09,11.64-12.85,2.25-2.84,4.32-5.8,6.2-8.9,5.08-7.06,11.26-13.38,17.1-19.81s11.46-12.01,17.76-17.54c-.27-1.49-1.28-1.78-3.03-.87-1.97.07-3.92.24-5.87.49-4.82.5-9.54.68-14.37.42l-5.89-.43c-2.69-.6-4.91.05-6.67,1.96-5.36,3.98-7.64,10.61-11.39,15.95-3.25,4.63-7.19,8.29-8.64,13.95-.87,3.4-1.68,12.3-5.43,13.89-5.48,2.32-9.89-1.87-13.69-5.36-5.48-5.04-11.38-10.24-16.25-15.85-2.77-3.19-5.28-6.48-7.47-10.08-1.26-2.07-2.38-4.2-3.38-6.41-.7-1.38-1.32-2.8-1.86-4.25-.24-2.35,1.2-5.22,1.81-7.41,2.39-8.61,4.4-17.34,5.93-26.14,1.01-5.79,1.72-11.34,4.02-16.76,2.96-6.99,6.18-13.3,7.84-20.75,1.33-5.98,2.45-12.07,3.24-18.16.71-5.45.67-10.95,1.83-16.32" fill="none" stroke="#fff" stroke-miterlimit="10"/><path d="M913.01,7.51c-3.07,10.04-5.86,19.59-8.06,29.77-1.11,5.13-3.12,9.9-4.62,14.9-2.91,9.67-3.17,19.81-6.48,29.44-1.29,3.75-2.58,7.44-3.54,11.3-.77,3.09-1.54,6.24-3.32,8.94-2.72,4.12-6.07,7.74-3.91,12.94,4.9,11.77,14.48,19.55,22.59,28.94.57.66.96,1.57,1.92,1.59l1.78-1.57c1.87-1.94,3.39-4.1,4.58-6.5,2.27-3.96,3.04-8.23,4.94-12.32,1.36-2.92,3.2-5.53,5.07-8.14,4.01-5.59,8.73-12.11,15.43-14.54,3.18-1.16,7.23-.54,10.58-.8,3.99-.3,7.95-.79,11.96-.72,5.73.11,11.38,1.12,17.14.79,2.9-.16,8.09-.63,9.49-3.92,1.2-2.83-2.3-5.41-4.05-7.01-1.22-1.11-2.23-2.42-3.33-3.64-2.68-2.97-4.18-3.57-1.57-7.53s6.94-7.12,9.93-10.96c3.57-4.58,4.04-9.9,5.87-15.17,1.57-4.54,4.81-8.52,5.82-13.25l.12-6.16c-.16-8.5.69-16.92,2.56-25.24" fill="none" stroke="#fff" stroke-miterlimit="10"/><path d="M1016.5,8.09c-1.18,13.63-1.82,27.38-5.92,40.53-2.36,7.6-5.76,14.62-10.17,21.23-1.73,2.57-3.53,5.1-5.4,7.57-1.29,1.67-2.79,3.11-4.51,4.32-2.17,2.96,1.61,7.07,3.14,9.53s4.98,6.45,4.55,9.65-4.45,4.68-6.69,6.23-4.35,2.27-5.65,4.68c-2.32,4.27-5.28,8.09-7.92,12.17-4.38,6.77-9.52,13.25-14.46,19.61-2.36,3.33-5.17,6.24-8.41,8.72-2.9,2.46-5.38,5.29-7.42,8.51-3.46,4.68-6.76,9.6-10.71,13.9-3.47,3.78-7.62,6.49-11.74,9.46-6.13,4.42-12.15,8.83-17,14.69-2.04,3.07-4.48,5.78-7.32,8.13-3.29,2.44-6.44,5.06-9.44,7.84-8.36,7.71-17.1,14.89-26.42,20.96-11.71,7.24-23.13,15.15-35.9,20.44-3.07,1.27-6.01,2.99-9.09,4.16-1.96.74-3.37.93-4.84,2.56,1.06,2.37,2.89,2.31,5.36,2.06,2.85-.29,5.56-1.15,8.32-1.93,7.29-2.07,15.01-2.71,22.48-3.98,6.29-1.08,12.6-2.04,18.96-2.65,10.13-.98,19.81-3.47,29.69-5.88,6.2-1.52,12.22-3.46,18.33-5.28,6.48-1.92,12.98-3.18,19.62-4.43,7.48-1.4,15.12-2.89,22.71-3.52,2.47-.2,7.8,1.13,9.68-.67,1.05-1,1.25-2.84,1.4-4.16.55-4.83-.72-10.52-1.38-15.17s-1.88-9.96-2.02-14.88l.26-5.42,2.8-5.45c2.85-3.63,5.6-7.33,8.26-11.09,2.1-2.89,4.17-5.79,6.23-8.71,3.88-5.46,7.88-10.88,11.14-16.73,5.16-9.26,11.15-17.71,17.19-26.42,3.94-5.68,7.25-10.64,13.03-14.44,3.88-2.55,6.18-5.78,8.22-9.92,2.18-4.41,4.66-8.48,7.47-12.5,3.39-4.84,6.39-10.03,10.11-14.63,6.63-8.2,15.59-13.99,22.16-22.2,3.14-3.93,7.1-7.18,10.18-11.13,1.83-2.34,3.41-4.8,4.89-7.36,5.65-9.76,10.76-19.65,14.95-30.13" fill="none" stroke="#fff" stroke-miterlimit="10"/><path d="M1116.04,10.15c-4.21,9.89-7.53,20.71-13.73,29.6-3.77,5.41-8.51,9.97-12.48,15.17-2.29,3-3.93,6.27-6.3,9.29-3.3,4.2-6.88,8.22-10.48,12.16-4.07,4.45-8.36,8.56-12.03,13.35-3.45,4.5-7.09,8.84-10.53,13.34-4.13,5.4-6.34,11.89-10.62,17.16-5.46,6.73-14.14,10.92-18.65,18.42-4.14,6.9-7.68,14.09-11.93,20.94-5.41,8.7-11.36,17.06-16.01,26.2-1.15,2.26-2.3,4.53-3.61,6.71-1.43,2.39-3.4,4.46-4.51,7.01-1.44,3.31-.61,8-.45,11.35.19,3.98.35,7.95.31,11.93-.03,3.7-.19,7.45-.46,11.15-.16,2.2-.4,3.89.68,5.86,1.16,2.11,2.01,3.52,2.15,6.04.17,3.06-1.37,6.52-1.43,9.68-.23,11.55-.15,24.28-4.42,35.19-3.58,9.15-7.54,18.25-10.76,27.55-.92,2.64-1.66,5.34-2.48,8.01-.44,1.44-1.32,3.33-1.32,6.35-6.62,6.73-13.41,13.06-19.54,20.24-6.45,7.55-11.93,15.98-15.17,25.41-1.66,4.84-2.33,10.11-3.17,15.14-.9,5.46-2.13,10.85-3.17,16.28-.84,4.39-1.46,8.96-2.97,13.18-2.72,7.59-7.31,14.63-10.84,21.86-3.85,7.88-7.9,15.45-13.25,22.42-6.68,8.7-14.3,16.66-21.32,25.1-4.23,5.09-8.35,9.93-13.25,14.4-4.43,4.04-8.56,8.11-12.65,12.52-6.09,6.56-12.77,12.74-19.35,18.8-2.29,2.1-4.51,4.26-6.68,6.48-2.43,2.49-2.67,3.16-4.41,7.83-4.36,5.93-8.39,12.1-12.84,17.97,1.02.85,2.24.85,3.64,0,4.37-.98,8.53-2.52,12.5-4.62,5.05-2.7,10.18-5.25,15.38-7.65,4.96-1.99,9.94-3.92,14.94-5.8,13.42-5.13,27.1-10.23,41.06-13.68,13.35-3.3,26.98-3.22,40.65-3.65,22.76-.72,45.23-4.41,67.87-6.7,5.17-.72,10.36-.98,15.57-.78,4.72.33,9.43.8,14.12,1.43,9.44,1.04,18.92,1.43,28.09,2.71,11.42.21,22.06.97,33.08,4.17,8.87,2.58,17.65,5.56,26.45,8.36,3.24,1.12,6.54,1.99,9.91,2.63,3.37.39,6.59,1.28,9.67,2.66,1.88.95,5.15,4.3,7.44,3.8,5.63-10.81,6.34-23.26,10.27-34.71,4.77-13.89,12.24-26.89,17.92-40.42,3.3-8.4,6.75-16.73,10.35-25,3.46-7.43,7.16-14.74,11.1-21.93,4.14-7.98,8.97-15.86,12.11-24.26l-2.1-2.46c-2.85-.43-4.09-1.77-3.71-4.03-.11-3.43,4.19-6.79,6.37-9.33,2.75-3.2,4.88-6.68,7.07-10.27,4.23-6.9,8.51-13.77,12.97-20.52,4.05-6.14,8.36-12.08,12.46-18.19s7.37-11.88,11.48-17.53c3.14-4.32,6.03-8.8,10.39-13.31,8.23-10.77,16.77-21.39,24.46-32.56,6.03-8.76,11.33-17.99,17.29-26.79,4.34-6.4,9.05-12.47,13.9-18.49,1.95-2.44,3.92-4.88,5.91-7.3,2.19-1.87,3.48-4.23,3.86-7.08-2.47-1.46-5.09-2.5-7.87-3.13-2.1-.19-3.86-1.06-5.28-2.6,1.84-5.23,3.92-10.37,6.23-15.41,2.9-7.71,5.71-15.46,8.42-23.24,4.51-10.7,10.35-20.41,16.89-30s12.6-18.35,18.06-28.33c2.33-4.34,4.72-8.65,7.2-12.91.68-1.77,1.6-3.38,2.78-4.83" fill="none" stroke="#fff" stroke-miterlimit="10"/><path d="M1391.78,99.42c-9.22,14.69-18.75,29.27-26.88,44.6-3.37,6.37-6.44,12.89-10.13,19.08-3.36,5.64-7.66,10.9-10.44,16.87-1.51,3.24-2.72,6.54-4.56,9.63s-3.52,6.36-4.83,9.79c-.75,1.96-1.81,4.16-2.13,6.25-.6,3.92,3.12,4.04,5.71,5.53,3.17,1.82,7.84,5.16,6.34,9.24-1.81,4.92-5.21,9.18-8.13,13.48-4.82,7.09-9.53,14.24-14.22,21.41-4.05,6.19-7.87,12.54-12.06,18.64s-8.85,12.05-13.19,18.12c-4.76,6.66-9.62,13.06-14.92,19.29-3.42,4.02-6.26,8.38-9.32,12.67-14.74,20.66-29.28,41.46-44.32,61.91-2.74,3.72-5.16,7.64-7.96,11.32-1.16,1.12-1.84,2.49-2.05,4.11l.96,2.19c.96,4.22-1.18,8.32-2.62,12.18-2.15,5.79-4.39,11.49-7.19,17.01-1.91,3.76-3.71,7.44-5.27,11.36-2.71,6.83-6.51,13.12-9.56,19.79-5.53,12.1-10.19,24.68-15.03,37.07-4.49,11.48-8.42,23.54-13.99,34.55-1.7,3.36-3.65,6.66-5.03,10.18-.85,2.18-1.99,4.86-.95,6.38,12.3,6.42,25.06,11.8,37.37,18.17,4.03,2.35,8.19,4.43,12.48,6.25,1.31.82,1.79.92,1.45.31,11.51,4.39,22.76,9.63,34.08,14.52,7.83,3.39,15.64,6.81,23.53,10.07,8.86,3.67,17.8,7.21,26.2,11.87,3.67,2.03,7.18,4.31,10.91,6.24,2.83,1.47,8.99,3.13,10.05,6.23.85.77.92,1.63.18,2.59-.36,1.1-.73,2.21-1.11,3.3-.76,2.22-1.36,3.7.31,5.53,2.32,2.54,4.73,5.1,7.16,7.53l4.69,4.34,3.26,2.26c2.16.53,4.45-3.37,6.42-4.35,3.75-1.87,5.25,1.65,8.36,2.57,2.44.72,3.37-1.96,4.56-3.58,11.87-16.14,22.82-32.78,33.65-49.62,4.29.86,6.3,4,6.02,9.41,2.45,7.41,4.76,14.87,6.93,22.37,4.99,16.73,9.83,33.45,12.2,50.8.9,9.78,1.99,19.54,3.27,29.28,2.76,12.27,6.23,24.34,10.4,36.21,4.87,17,7.73,34.36,9.38,51.95.16,4.79.62,9.54,1.38,14.27,2.56,2.25,5.4,2.25,8.5,0,5.41-1.88,10.76-3.93,16.04-6.15,7.46-2.99,15.02-5.73,22.68-8.19,7.14-2.36,14.2-4.59,21.5-6.38s15.91-2.44,22.12-6.69c-1.05-4.42-2.71-8.61-4.97-12.58-3.15-7.6-4.99-15.51-5.52-23.73-.85-10.07-1.94-20.11-3.26-30.13-1.29-9.19-2.46-18.4-3.5-27.63.67-2.61,2.31-3.99,4.92-4.15,4.72-1.07,8.29-4,10.71-8.8,3.53-5.95,6.98-11.95,10.36-17.98,5.65-7.15,11.43-14.2,17.35-21.14,13.13-16.4,24.16-33.88,35.35-51.6,6.5-10.3,13.45-20.27,20.29-30.34,7.29-10.73,15.48-20.89,22.23-31.97,3.57-5.85,6.17-12.17,12.24-19.6,6.03-8.38,11.9-16.87,17.9-25.27,4.39-6.15,8.67-12.56,13.7-18.23,2.1-2.36,4.23-4.7,5.98-7.34,4.35-6.54,6.46-14,7.91-21.64,1.03-1.89,1.04-3.68.03-5.39-.4-2.39-2.09-3.42-5.05-3.07-9.12-2.81-18.5-4.81-27.82-6.85-8.36-1.83-16.77-3.23-25.19-4.74-3.67-.58-7.31-1.31-10.92-2.18-4.03-.45-7.75-1.8-11.17-4.03l2.22-7.21c2.65-4.11,5.31-8.22,7.96-12.33,6.65-9.86,13.73-19.17,18.98-29.92,4.08-8.36,7.89-16.84,11.81-25.28,2-4.81,4.39-9.42,7.16-13.83,3.78-7.36,8.47-14.11,14.07-20.27" fill="none" stroke="#fff" stroke-miterlimit="10"/><path d="M1677,313.13c-5.7,4.17-10.43,9.22-14.19,15.16-2.45,4.58-4.73,9.25-6.84,13.99-1.92,4.83-3.99,9.6-6.18,14.31-2.16,4.13-4.31,8.26-6.47,12.38-4.22,8.24-8.4,16.43-13.08,24.43-.91,1.56-3.88,4.54-3.92,6.37,7.06,3.7,15.44,4.51,23.05,6.52,12.1,3.2,23.99,7.18,36.25,9.72,3.82.79,7.47,1.22,9.76,4.77,2.42,3.76,2.23,8.05,1.68,12.33-.95,7.37-6.05,15.34-9.82,21.53-3.77,6.19-7.6,12.36-11.7,18.34-11,16.08-25.39,29.74-34.99,46.78-3.33,5.91-6.32,12-9.84,17.81-3.8,6.28-7.72,12.5-11.76,18.64-13.13,19.97-28.02,38.77-41.65,58.39-4.37,6.29-8.28,12.84-12.18,19.43-5.7,9.65-11.34,18.85-17.64,28.08-2.73,4.01-5.25,8.09-8.42,11.78-3.81,4.43-8.08,8.45-12.47,12.3-2.3,2.02-8.41,5.28-9.31,8.72l-.09,5.66c1.01,4.14,1.6,8.34,1.77,12.59.66,8.71.51,17.45,1.07,26.17.45,7.01.84,16.79,3.57,23.6,1.49,3.72,3.54,7.13,6.02,10.28,1.29,1.64,2.69,3.98,4.71,4.85,2.19.94,5.67-.09,7.75-.76,8.02-2.6,15.6-6.54,23.29-9.97,14.6-6.51,29.42-13.15,44.51-18.5,7.93-2.81,15.42-6.58,23.53-8.82,3.48-.96,7.17-2.26,10.7-3.09,2.69-.63,5.54-.15,7.83-1.68-1.03-2.72-1.93-5.48-2.68-8.28,1.08-3.68,3.1-6.8,6.05-9.36,5.25-6.44,10.85-12.53,16.11-18.97,12.41-15.21,25.94-29.63,35.61-46.83,2.57-4.57,5.32-8.81,8.05-13.26,2.92,3.17,6.97,5.51,10.35,8.01,5.32,3.96,10.35,8.28,15.66,12.25,3.66,2.74,7.4,4.92,11.5,6.87,5.6,2.67,9.24,7.52,13.77,11.55s9.82,7.64,14.62,11.63,9.32,7.66,14.42,10.99c5.91,3.86,12.43,6.91,17.67,11.73,3.07,2.83,5.68,6.24,9.26,8.46,2,1.24,4.22,2.78,6.32,3.79,2.51,1.2,4.88-1.66,6.71-3.07,6.42-4.93,11.77-10.67,17.28-16.54,6.64-7.06,13.66-12.93,20.83-19.36,3.54-3.18,7-6.42,10.73-9.38,3.43-2.72,5.83-5.24,7.53-9.27s1.98-11.46,6.99-13.4c2.87-1.11,5.29.93,7.68,2.26" fill="none" stroke="#fff" stroke-miterlimit="10"/><path d="M1896.13,682.34c-7.9,5.04-15.3,10.73-22.21,17.06l-9.33,9.12c-5.07,5.07-10,10.16-14.17,15.98-3.14,4.38-5.97,9.28-10.03,12.92-2.05,1.84-4.25,2.77-6.95,2.2-8.64-1.82-14.26-9.97-20.77-15.16-3.29-2.63-6.87-4.55-10.39-6.8-8.49-5.4-14.83-13.43-23.31-18.91-7.25-4.69-14.55-9.04-21.54-14.14s-14.63-9.32-21.33-14.88c-3.82-3.16-7.28-6.72-11.4-9.5-2.54-1.71-5.22-4.33-8.24-2.47-4.47,2.76-6.95,9.23-9.6,13.62-3.33,5.52-5.86,11.64-10.34,16.34-3.3,3.46-6.54,6.75-9.52,10.51-3.26,4.11-7.17,7.63-11.7,12.75-3.02,3.38-6.5,6.68-9.14,10.37-1.14,1.59-1.99,3.6-3.33,5.03-1.09,1.17-3.25,2.41-3.81,4-.07,2.2.46,4.24,1.56,6.11.96,1.96,1.72,3.99,2.28,6.1-2.05,2.55-4.71,4.25-7.99,5.11-4.51,2.23-9.16,4.14-13.94,5.72-6.71,2.26-13.49,4.33-20.22,6.52-25.44,8.29-50.12,18.51-75.4,27.23-7.45,2.57-14.85,5.28-22.37,7.68-7.97,2.54-15.99,4.76-23.86,7.61-8.98,3.25-18.08,6.21-27.03,9.54-5.24,1.95-11.04,3.59-16.07,4.72-1.37,10.19-2.72,20.39-3.58,30.64-.97,11.54-.79,22.62.21,34.08,1.45,16.7,1.7,33.37,1.72,50.13,0,8.62.02,17.21-.86,25.8-.79,7.7-2.07,15.32-2.74,23.04s-1.47,16-2.87,23.99c-1.21,6.94-2.01,13.83-2.3,19.34-2.03,13.64-3.49,27.48-6.88,40.87-1.62,6.4-3.26,12.83-4.96,19.21-4.91,18.47-13.62,35.68-22.01,52.74-3.13,6.36-6.74,12.46-10.22,18.63-1.28,2.29-2.57,4.58-3.88,6.85-1.24,1.12-1.34,2.34-.3,3.65,1.06,3.86,3.88,6.38,8.48,7.54,4.05,2.08,8.11,4.17,12.16,6.25,5.91,2.68,11.64,5.7,17.19,9.05,5.47,3.23,11.02,6.3,16.66,9.22,7.85,3.78,16.03,6.68,23.97,10.22,7.39,3.29,14.55,7.31,21.67,11.16,6.42,3.47,12.77,7.08,19.03,10.84,4.15,2.5,8.15,5.37,12.84,6.79,2.14.48,4.31.71,6.5.71,3.18.03,6.32.41,9.44,1.14,7.84,1.4,15.74,3.04,23.32,5.46,6.8,2.17,13.95,5.46,22.98,5.36,6.37-2.26,12.16-5.55,17.38-9.85,6.43-5.11,12.49-10.63,18.18-16.56,9.49-9.74,18.13-20.33,27.86-29.83,6.23-5.66,12.45-11.33,18.66-17.02,11.01-10.17,22.17-20.17,33.49-30,15.79-13.9,31.17-28.08,46.28-42.72,27.99-27.12,55.16-55.06,82.81-82.53,11.43-11.36,23.13-22.44,34.82-33.52,7.95-7.54,15.65-15.28,20.82-24.79,4.51-2.51,8.73-5.43,12.67-8.75,2.01-1.86,4.18-3.51,6.51-4.94,2.05-1.31,5.2-2.37,6.06-4.81,0-2.47-.13-4.93-.37-7.39-.28-3.65-.54-7.29-.77-10.94-.09-4.52,1.83-8.07,5.75-10.65,3.25-3.12,6.62-6.09,10.11-8.92" fill="none" stroke="#fff" stroke-miterlimit="10"/><path d="M1934.89,948.17c-9.84,6.49-19.26,13.09-27.77,21.24-3.2,3.07-6.56,5.94-9.81,8.95-4.7,4.35-8.93,9.15-13.32,13.8-8.6,9.1-18.41,17.05-27.79,25.34-11.19,9.88-23.01,19.31-33.62,29.83-9.99,9.9-19.7,20.04-29.8,29.84-7,6.79-14.12,13.44-20.87,20.48-3.88,4.04-8.24,7.44-12.39,11.18-4.38,3.96-8.44,8.31-12.56,12.54-6.5,6.67-13.24,13.13-21.41,20.53-7.11,9.29-15.91,17.58-24.56,25.43-5.05,4.58-10.48,8.58-15.87,12.73-7.7,5.91-15.11,12.16-22.43,18.53-15.91,13.83-31.14,28.27-46.01,43.2-9.58,9.61-18.9,19.57-28.99,28.65-5.9,5.31-12.26,10.01-18.27,15.18-12.77,10.99-24.9,22.73-37,34.43-17.02,16.46-33.11,33.94-50.7,49.79-6.11,5.51-12.33,10.89-18.37,16.48-6.69,6.2-12.3,12.62-17.6,18.53-14.63,15.05-29.69,29.68-43.91,45.11-4.45,4.83-9.1,9.54-13.97,13.95-7.49,6.79-16.75,11.69-24.2,20.77,7.3,6.02,14.99,11.47,23.08,16.36,8.2,5.44,16.58,10.56,25.16,15.38,11.81,7.09,23.26,14.65,34.82,22.15,25.17,16.33,49.2,34.48,75.76,48.56,9.92,5.26,19.81,10.51,29.41,16.34,11.58,7.03,22.63,14.91,34.15,22.04,9.81,6.08,19.72,12.1,30.81,15.6s22.67,5.57,34.21,7.45" fill="none" stroke="#fff" stroke-miterlimit="10"/><path d="M1635.18,1656.69c-9.81-2.04-20.06-3.42-29.24-7.61-3.22-1.47-6.53-2.67-9.87-3.85-6.93-2.44-12.66-6.29-19.08-9.76-2.8-1.51-4.78-2.75-7.26-4.39-1.61-1.07-2.32-1.38-3.92.95-1.39,2.03-1.97,4.46-.7,6.73l4.02,3.18c2.62,1.08,4.84,2.66,6.68,4.73,1.45.73,1.98,1.84,1.61,3.35.3,1.58-.06,3.04-1.07,4.36-2.27,5.22-4.46,10.6-6.94,15.71-3.18,6.54-6.48,13.03-9.71,19.54-4.89,9.87-11.93,18.58-17.87,27.83-2.74,4.27-5.09,8.73-7.29,13.3-2.78,5.79-4.69,11.69-8.55,16.85" fill="none" stroke="#fff" stroke-miterlimit="10"/><path d="M1507.68,1753.97c2.81-6.11,5.27-12.56,8.39-18.51,1.91-3.63,4.8-6.39,7.06-9.77,2.54-3.79,4.51-7.85,6.57-11.91,2.88-5.67,6.21-11.09,9.26-16.67,4.48-8.18,9.2-16.22,13.51-24.49,2.47-4.74,4.92-9.11,8.09-13.4,1.33-1.81,3.69-4.2,4.35-6.41.9-.97.88-2.01-.06-3.13l-4.01-2.99-6.14-4.01-4.38-4.46v-4.99c.98-1.63,1.97-3.26,2.96-4.9.3-.45,3.92-4.38,4.03-6,.11-1.72-2.23-3.07-3.42-3.93-3.87-2.82-8.06-5.04-12.41-7-5.23-2.35-9.15-6.55-13.97-9.6-3.08-1.95-6.32-3.25-9.88-4.03-2.99-.65-5.78-1.24-8.43-2.8-4-2.36-7.26-5.7-10.99-8.44-2.69-1.97-5.58-3.69-8.31-5.6-7.99-5.58-16.1-11.1-23.87-16.97-5.21-3.93-10.32-7.96-15.85-11.43-7.05-4.42-14.45-8.2-21.77-12.16-6.47-3.5-13.01-6.93-19.09-11.1s-11.87-8.87-18.02-13.03c-7.06-4.77-13.46-10.42-20.39-15.38-4.2-3-8.55-5.97-12.39-9.43l-1.44-1.3c-2.56.04-4.56,1.18-6,3.41-2.53,2.22-5.01,4.49-7.46,6.8-2.91,3.13-6.25,5.71-10.02,7.73-2.01-1.46-2.41-2.73-3.59-4.91-1.81-3.34-4.2-6.48-6.29-9.64-5.35-8.07-12.02-14.95-18.04-22.52-3.24-4.07-6.61-8.08-10.56-11.48-2.12-1.83-4.3-3.57-6.31-5.52-3.95-3.82-5.92-7.46-9.87-10.71-11.62,9.51-23.55,18.68-34.88,28.53-10.62,9.23-19.43,19.94-28.78,30.4-14.44,16.16-29.25,32.31-45.56,46.62-7.35,6.45-14.82,12.63-21.7,19.6-7.83,7.93-15.58,15.94-23.37,23.9-15.01,15.33-28.09,31.14-37.15,50.67-3.59,7.75-6.81,15.65-10.29,23.44-5.07,11.33-11.75,21.22-18.1,31.81-2.86,4.78-5.61,9.48-9.07,13.87-2.16,2.74-7.43,6.46-6.51,10.41,1.25,5.35,9.58,6.83,14.14,8.81,5.07,2.2,9.56,5.28,14.27,8.14,9.32,5.65,19.41,9.46,29.19,14.13,4.06-3.66,4.27-8.8,7.31-12.91,3.68-4.99,12.94,1.51,17.13,3.36,10.17,4.5,21.24,7.03,31.86,10.29,4.51,1.38,8.67,3.62,13.13,5.15,5.21,1.79,10.37,3.62,15.51,5.62s10.67,3.97,16.21,5.33c3.72.92,7.51,1.05,11.11,2.46,3.28,1.93,6.66,3.66,10.14,5.21,4.81,2.49,9.88,4.29,15.22,5.41,10.47,3.14,19.23,4.73,30.17,5.95,7.59.58,15.14,1.46,22.65,2.65,6.17.78,12.29,1.89,18.35,3.3,11.9,1.88,23.68,1.38,35.64,1.71,11.01.31,21.95,2.01,32.92,2.95,6.41.55,12.59,1.86,18.86,3.23,12.56,2.75,24.85,6.14,37.22,9.61" fill="none" stroke="#fff" stroke-miterlimit="10"/><path d="M1413.31,1819.9c-6.71-1.83-13.31-4.14-20.21-5.17s-14.4-1.38-21.6-1.83c-17.02-1.06-34.1-1.69-51.08-3.26-18.6-1.72-36.99-5.21-55.23-9.16-5.88-1.32-11.67-2.95-17.37-4.87-5.37-1.27-10.74-2.54-16.11-3.83-8.03-2.37-15.95-5.52-23.89-8.2-7.68-2.6-14.35-7.13-21.95-9.89-5.64-1.7-11.33-3.21-17.07-4.53-4.68-1.34-9.32-2.82-13.92-4.44-6.88-2.22-13.93-3.97-20.64-6.69-3.51-1.67-6.99-3.4-10.44-5.18-2.51-.72-4.2.23-5.09,2.86-2.29,2.88-4.82,5.53-7.59,7.95-2.05,1.85-4.26,2.03-6.65.55-9.07-2.64-17.86-6.61-26.49-10.37-13.09-5.7-25.78-11.55-38.47-18.08-5.97-3.1-12.11-5.84-18.4-8.22-6.98-3.16-13.5-7.1-20.41-9-10.68-4.09-21.48-8.73-32.58-11.61-1.94-.51-3.87-.52-5.87-.2-6.4,1.01-12.83,3.68-18.8,6.07s-11.55,5.42-17.54,7.42c-6.92,2.31-11.3.51-17.46-2.54s-12.05-5.2-18.53-6.33c-4.03-.7-7.81-1.42-11.68-2.73-10.66-3.6-21.34-7.26-32.03-10.74-9.4-3.06-19.41-2.7-28.6-6.72-8.28-3.62-15.45-6.66-24.68-5.23-9.98,1.55-18.31,8.18-28.1,10.37-8.04,1.79-15.8-.53-23.85-1-10.79-.63-21.96,2.17-32.53,4.06-6.51,1.17-13.4,2.23-19.65,4.45-6.58,2.35-12.53,6.11-18.12,10.24-6.51,4.81-12.15,9.73-19.26,13.69-8.6,4.78-15.24,10.89-22.81,17.09-9.62,7.86-19.31,15.6-28.74,23.7-9.97,8.56-20.68,16.17-30.27,25.17-10.58,9.93-21.13,19.84-30.93,30.56" fill="none" stroke="#fff" stroke-miterlimit="10"/><path d="M1273.07,1432.47c-21.3,14.52-41.57,30.83-60.62,48.22-9.82,8.96-17.86,19.21-26.11,29.55-4.71,5.9-10.21,10.96-15.24,16.57-5.71,6.37-10.49,13.27-17.29,18.63-6.42,5.07-13.46,9.35-19.51,14.92-7.76,7.14-13.95,15.8-20.94,23.64-6.08,6.82-10.81,13.36-15.56,21.24-4.1,6.81-8.36,13.41-12.85,19.98-5.25,7.68-10.45,15.3-14.68,23.62-3.49,6.86-6.49,13.93-9.9,20.82-5.72,11.57-11.17,23.54-18.59,34.14-2.7,3.86-5.49,7.64-7.97,11.65-1.91,3.09-2.8,4.22-6.7,2.7-4.17-1.62-8.05-4.3-12.18-6.08-6.15-2.66-12.41-5.02-18.53-7.78-10.64-4.81-21.35-9.15-33.2-6.93-9.12,1.7-18.15,4.34-27.07,6.84-4.81,1.35-10.53,3.42-15.56,3.19-3.83-.18-7.41-1.23-11.07-2.24-5.46-1.51-10.99-2.78-16.4-4.47-6.37-1.99-12.47-4.81-18.91-6.56-5.23-1.42-10.58-2.32-15.83-3.63-2.86-.71-6.9-1.2-9.25-3.02-3.02-2.34-3.91-6.56-5.01-10.14-2.35-7.62-4.39-15.67-8.38-22.65-2.86-5-6.63-10.47-10.89-14.31,9.08-3.76,15.91-11.07,24.32-15.85,6.76-3.84,13.99-6.61,20.74-10.55,11.78-6.86,23.03-14.67,34.04-22.69,8.14-5.93,15.51-12.08,22.24-19.56,8.92-9.91,17.67-20.12,26.51-30.11,5.64-6.37,10.96-12.63,15.47-19.87,3.23-5.18,7.67-9.58,11.67-14.18,3.17-3.63,6.35-6.94,10.1-10.01,4.49-3.68,6.81-8.56,10.04-13.2,4.08-5.87,10.14-10.2,14.65-15.71s7.36-10.52,9.43-17.11c1.82-5.81,4.18-10.2,9.23-13.65,4.62-3.16,9.98-5.67,14.93-8.27,5.88-3.1,11.82-6.05,17.65-9.25,1.89-1.04,8.22-5.69,11.2-6.13,2.8-.41,6.06,1.93,8.72,2.58,2.14.53,5.78,2.13,8.01,1.64,3.01-.66,4.23-5.29,5.9-7.4,2.03-2.56,4.81-4.21,7.34-6.25,7.55-6.1,13.71-13.06,21.75-18.71,5.51-3.88,11.07-7.71,16.62-11.54,9.26-6.39,18.12-14.28,28.73-18.25,7.81-2.92,15.26-6.48,22.65-10.32,10.63-5.53,22.78-11.75,32.34-19.08,9.97-7.65,19.19-16.11,29.43-23.43,15.69-11.23,31.14-22.93,44.63-36.78,1.57-1.61,7.75-10.04,11.52-9.19,4.14.93,7.19,5.99,10.11,8.66,2.73-.37,4.44-2.06,5.13-5.06,2.69-4.41,5.71-8.59,9.05-12.52,4.66-5.89,9.3-11.57,14.85-16.68,4.39-4.05,6.57-6.03,9.63-10.96,4.63-7.45,9.24-13.95,16.26-24.13,3.16-5.09,6.39-10.16,9.35-15.35.54-.94,1.3-2.89,2.36-3.3,1.45-.55,3.42,1.53,4.41,2.2,4.67,3.17,9.33,6.25,14.49,8.59,5.99,2.72,12.62,4.31,18.39,7.51,3.99,2.21,7.55,4.89,11.24,7.54,4.1,2.94,8.28,5.7,12.8,7.95,5.97,2.98,12.38,4.94,18.29,8.08,4.27,2.27,8.33,4.96,12.61,7.2,5.26,2.76,11.04,4.17,16.3,6.89,5.37,2.78,9.86,7,15.25,9.71,4.8,2.42,9.84,3.91,14.97,5.41,9.9,2.89,20.01,5.45,30.31,6.28,6.72.54,13.05,3.12,19.78,2.43-.44,1.99-1.65,3.47-3.61,4.45-4.3,4.1-8.77,7.99-13.43,11.68-12.62,10.85-24.8,21.97-36.11,34.2-15.67,16.95-31.07,34.65-48.42,49.93-12.48,11-24.9,22.06-36.77,33.72-5.42,5.32-10.75,10.69-16.35,15.82-9.21,8.43-18.87,16.31-28,24.82s-19.64,17.06-29.2,25.88c-6.24,5.76-11.62,12.1-17.45,18.24-2.98,3.13-6.04,7.8-9.53,10.11-.78,1.36-1.98,1.94-3.59,1.74l-3.24-2.68c-3.4-4.17-7.05-8.11-10.94-11.83l-7.31-7.33c-5.92-6.32-10.64-13.2-16.83-19.28-4.5-4.42-8.53-9.69-13.24-13.88-2.27-2.02-4.35-4.17-7.62-3.8-1.42.16-2.74.85-5.54,2.76Z" fill="none" stroke="#fff" stroke-miterlimit="10"/><path d="M1070.58,1121.53c11.82,16.8,22.66,34.16,33.63,51.51,13.95,22.05,26.01,45.21,39.1,67.77,12.48,21.49,25.92,42.36,38.26,63.93,3.1,5.42,6.53,10.55,9.84,15.83,2.08,3.32,6.08,7.89,6.52,12.45-6.6,1.6-12.91,3.95-18.95,7.05-3.95,2.22-7.77,4.65-11.46,7.28-6.79,4.35-14.55,7.02-21.24,11.46-2.12,1.6-4.24,3.2-6.36,4.8-3.13,1.87-6.29,3.69-9.47,5.48-7.73,5.14-12.86,12.86-19.86,18.77-3.97,3.35-7.38,6.95-11.07,10.57-2.96,2.91-6.94,6.78-11.5,6.74-6.16-.06-5.6-10.61-6.36-14.97-.56-3.21-.62-7.02-2.21-9.94-2.71-4.97-6.62-3.81-11.43-2.29-2.75,1.27-5.62,2.13-8.61,2.56-4.92.32-9.81.9-14.66,1.76-7.07,1.51-14.2,2.68-21.38,3.54-8.87.68-17.74,1.43-26.6,2.25-14.65,1.45-29.08.94-43.78,1.45-15.25.53-30.67,1.32-45.88-.27-11-1.15-22.62-1.94-33.39-4.49-9.04-2.14-18.3-2.87-27.36-5.02-7.18-1.71-14.3-2.49-21.52-3.85.03-.16.07-.33-1.88-2.65-13.74-4.8-27.27-9.99-40.73-15.48-7.63-3.11-14.57-7.22-21.79-11.1-10.25-5.51-19.18-12.56-28.87-18.97-10.54-6.97-21.93-12.64-32.12-20.14-7.52-5.53-15-11.6-21.91-17.87-8.63-7.84-15.99-16.98-23.96-25.46-6.11-6.5-12.79-12.67-18.49-19.53-3.88-4.67-5.91-8.89-8.14-13.53,11.3-6.88,22.5-13.76,33.08-21.73,9.67-7.29,18.19-15.83,28.2-22.66,7.23-4.93,14.89-9.14,22.44-13.57,12.36-7.25,24.28-15.1,35.91-23.49,17.4-12.54,34.83-25.06,52.02-37.88,8.46-6.31,17.08-12.43,25.39-18.93,3.38-2.64,7.6-5.35,9.35-9.37" fill="none" stroke="#fff" stroke-miterlimit="10"/><path d="M821.26,1074.71c-11.44,8.95-22.5,18.36-34.07,27.12-9.09,6.89-17.27,14.82-26.57,21.46-10.25,7.33-20.28,15-30.84,21.88-12.14,7.9-24.74,15.04-36.65,23.29-20.72,14.34-41.41,28.67-61.25,44.2-3.23,2.53-6.55,6.02-10.11,8.06-3.85,2.2-5.74-2.46-7.79-5.54-3.46-5.2-7.45-9.92-11.11-14.99-4.79-6.65-8.96-14.1-12.64-21.44s-8.3-14.89-12.22-22.47c-4.51-8.72-8.27-18.28-11.09-27.7-3.24-10.8-6.04-21.65-9.62-32.36s-6.62-21.79-8.49-33.25c-1.72-10.48-2.07-20.83-2.76-31.39-.56-8.66-2.12-16.88,1.95-27.01-.74-14.93-2.78-31.79-2.05-47.06.54-11.22,3.58-22.64,5.52-33.64,1.2-6.82,1.99-13.74,3.65-20.46,2.26-9.11,6.09-17.67,7.38-27.02,1.07-7.75,2.27-15.34,4.46-22.86,1.12-3.41,2.3-6.8,3.54-10.17.75-1.79,1.32-3.63,1.71-5.53-.44-3.64-6.15-3.61-8.68-4.28-4.53-1.2-8.96-2.74-13.45-4.06-.63-2.08.46-3.5,3.3-4.28,3.11-2.88,5.46-6.27,7.08-10.18,1.39-3.37,3.76-5.73,7.11-7.09,3.8-.68,7.48-.22,11.03,1.39,4.42,1.28,14,5.79,18.97,3.9,6.24-2.38,4.53-9.57,7.48-14.15,2.31-2.31,4.81-4.39,7.5-6.25,2.99-2.76,5.15-6.06,6.5-9.9,1.68-3.5,4.37-6.48,5.86-10.03,1.28-4.91,1.88-9.9,1.79-14.98.65-4.69,2.38-8.94,5.17-12.75,5.27-9.37,11.1-17.52,20-26.19,6.96-8.15,14.37-16.2,20.27-25.18,3.77-5.75,7.26-10.84,12.21-15.58s9.56-10.02,14.35-15.1c4.44-4.71,9.59-8.28,14.28-12.67,7.67-7.17,12.11-16.72,17.61-25.48,2.39-3.81,7.2-3.45,11.17-4.83,5.96-2.06,10.16-4.99,12.83-10.83,1.67,3.87,2.96,7.89,3.85,12.04,2.93,7.6,7.09,14.45,12.48,20.54,6.24,8.5,11.57,17.53,17.76,26.07,8.12,11.21,17.67,21.81,24.55,33.9,5.89,10.34,10.96,20.78,18.08,30.42,8.59,11.64,16.26,23.76,24.29,35.78,4.22,6.32,8.66,12.55,12.53,19.1,5.28,8.93,7.1,22.47,15.6,29.03" fill="none" stroke="#fff" stroke-miterlimit="10"/><path d="M891.41,808.58c-8.66-10.14-16.94-21.14-23.35-32.82-8.77-15.98-16.72-32.41-25.09-48.61-9.35-18.09-20.66-34.81-31.68-51.9-15.87-24.61-31.64-49.09-47.57-72.96,8.36-4.9,16.68-9.87,24.97-14.9,2.11-1.97,4.52-3.43,7.23-4.37,1.01.38,1.93.9,2.77,1.57,1.38,1.22,3.09,1.56,5.12,1.02,5.22,0,10.48-1.61,15.18-3.75,11.52-5.24,22.7-10.54,34.65-14.82,10.88-3.89,21.81-7.87,33.01-10.77s23.6-7.01,35.34-7.42c10.95-.38,21.77.72,32.74-.55,13.54-1.57,26.28-5.6,39.99-5.88,11.06-.22,21.92-.46,32.98.11,13.09.67,26.55.85,39.45,3.46,12.07,2.44,23.54,7.16,35.65,9.43,4.98.93,9.75,1.95,14.64,3.34,7.51,2.13,14.85,3.8,22.56,4.91,4.7.16,9.16,1.26,13.38,3.3,4.3,3.03,8.91,5.49,13.82,7.4,7.84,2.97,14.94,4.26,22.39,8.12,6.28,3.25,12.71,6.22,19.68,9.58,13.31,4.88,26.01,9.47,38.43,16.19,7.62,4.12,16.2,5.85,23.97,9.82l7.73,4.05c5.3,1.65,10.66,3.07,16.08,4.26,3.02,1.38,4.56,3.61,7.38,4.98,3.39,1.66,2.84,3.57,1.67,6.76-3.33,5.04-6.9,9.92-10.7,14.62-3.02,4.17-5.86,8.45-8.53,12.84-5.35,8.6-11.13,17.06-16.82,25.43-8.54,12.58-17.01,25.88-27.43,36.97-9.81,10.44-22.43,19.43-33.45,28.4s-22.06,17.49-32.92,26.45c-9.56,7.9-18.74,16.34-27.8,24.81-3.78,3.54-7.86,7.12-13.47,6.83-12.96-.66-16.52-17.95-21.56-27.33-1.63-4.14-4.25-7.46-7.89-9.97l-6.18-1.27c-6.81.73-13.4,2.36-19.77,4.9-4.28.61-7.74,2.47-10.08,6.49-9.22,4.53-18.09,9.65-26.62,15.34" fill="none" stroke="#fff" stroke-miterlimit="10"/><path d="M1051.85,811.48c6.62-4.57,13.42-8.54,20.14-12.9,4.32-2.81,8.61-5.72,13.33-7.82,5.57-2.47,13.36-3.56,17.57,2.13,3.61,4.87,4.67,11.41,7,16.88,1.72,4.04,3.94,8.62,7.96,10.88,1.39.78,5.65,1.42,6.56,3.14,1.61,3.06-3.55,7.11-5.42,8.97-6.05,4.82-12.29,9.38-18.73,13.66-4.58,3.17-8.99,6.56-13.21,10.19" fill="none" stroke="#fff" stroke-miterlimit="10"/><path d="M1097.09,868.65c16.86-12.26,32.53-24.59,47.75-38.74,8.82-8.2,17.74-16.28,26.31-24.74,7.03-6.94,13.87-14.23,21.08-20.98,12.41-11.61,26.97-20.81,40.22-31.41,12.07-9.65,24.09-19.59,34.17-31.38,5.77-6.75,10-13.99,14.03-21.92,4.54-8.94,8.93-17.99,13.69-26.82,4.15-7.68,9.16-16.48,15.22-22.87,7.7,3.3,11.32,12.74,18.78,16.95,2.77,1.56,5.01,2.19,7.73.38,3.17-2.11,4.82-5.6,7.79-8.09,3.16,1.72,5.99,4.43,9.67,2.23,4.86-2.91,8.1-8.75,10.56-13.57,5.6-11,10.83-22.29,18.72-31.92,3.42,4.62,3.07,10.77,3.47,16.33.48,6.66,1.67,12.57,3.59,18.99,2.57,8.59,5.68,16.99,8.64,25.45,4.93,14.08,7.98,28.07,9,42.95.68,9.91,1.12,19.84,2.36,29.71,1.34,10.62,4.51,20.85,6.28,31.39,1.56,9.31,3.18,18.64,4.65,27.96,1.08,6.86,1.26,13.77,2.77,20.55,4.02.73,7.75-.18,11.19-2.71,2.83-1.91,5.89-2.72,9.16-2.41.97,1.83.51,3.9.47,5.89-.16,7.61-.02,15.22-.25,22.83-.54,17.82-.49,35.72-1.46,53.51-.47,8.75-1.57,17.39-2.54,26.09-.72,6.43-.48,12.84-.71,19.3-.68,18.66-5.43,36.88-6.92,55.48-2.34,29.26-8.13,58.4-16.44,86.57-4.47,15.18-8.95,30.09-17.08,43.76-9.91,16.66-21.33,32.28-30.32,49.5-4.87,9.32-9.54,19.31-15.53,27.98-2.94,4.26-6.75,7.87-9.99,11.88-4.23,5.24-7.37,11.12-11.32,16.52l-3.93,4.86-4.24-.37c-3.89-.99-6.61-4.67-11.18-3.4-1.84.51-3.98,3.33-5.53,4.47-4.4,3.23-8.9,6.14-13.14,9.62-8.67,7.12-17.19,14.48-25.53,21.99-10.44,9.39-20.75,19.46-33.67,25.23-7.86,3.51-14.81,8.67-22.61,12.3-1.6.75-2.83,1.24-4.17,2.39-.91.78-1.74,2.35-3.08,2.3-11.51-16.51-19.72-35.48-29.05-53.28-6.03-11.49-12.5-22.32-20.24-32.75-6.41-8.64-11.68-17.41-17.02-26.85-12.36-21.87-25.49-43.39-36.71-65.88-6.64-13.31-14.81-25.77-21.31-39.11" fill="none" stroke="#fff" stroke-miterlimit="10"/><path d="M1153.85,1031.27c.69-2.9,4.45-4.47,6.66-6.05,7.21-5.15,13.34-12.26,17.56-20.04,4.28-7.89,7.82-16.14,10.31-24.75,3.09-10.72,3.55-21.63,3.71-32.72s-.96-19.43-4.34-29.79c-2.16-6.64-3.73-13.91-7.21-19.95-2.25-3.92-4.04-3.82-8.12-3.16-12.09,1.98-22.99,5.74-33.4,19.33,8.03-2.39,16.94-5.84,25.3-7.67,1.32-.29,2.69-.47,4.04-.45,1.08.02,1.75.71,2.89.1,4.93,5.65,6.69,16.11,8.38,23.15,2.88,11.99,6.62,24.94,3.45,37.29-2.15,8.35-6.6,15.78-9.31,23.88-.94,2.8-1.69,5.4-3.22,7.98-1.64,3.48-4.43,5.89-8.38,7.23-8.57,3.82-17.14,7.62-8.31,25.62Z" fill="none" stroke="#fff" stroke-miterlimit="10"/></svg>