<?xml version="1.0" encoding="UTF-8"?><svg id="high" xmlns="http://www.w3.org/2000/svg" width="1966.75" height="1944.04" viewBox="0 0 1966.75 1944.04"><path d="M820.08,879.23c-7.41-.55-14.45-2.33-21.12-5.33-3.24-1.04-6.26-2.53-9.06-4.47-1.38-.48-3.47-1.02-4.86-.21-2.57,1.51-6.49,8.44-7.75,10.72-2.25,4.07-4.03,8.2-6.8,12.02-5.15,7.1-12.05,14.64-21.15,16.1-3.86.62-8.71-.09-12.22,2.06-4.05,2.47-4.04,6.45-3.67,10.7-3.17,2.82-7.85-3.04-10.31.23-3.79,5.03,6.78,13.56,9.17,16.83,3.82,5.24,3.94,14.09,11.12,15.62,5.09-.25,10.07-1.12,14.93-2.63,1.47-.88,2.94-1.08,4.41-.59-.27,2.31-1.92,3.53-4.96,3.66-6.68,1.95-13.11,4.51-19.3,7.69-7.5,6.02-8.79,16.91-9.2,25.89,2.4,1.83,5.1,2.73,8.1,2.71,4.32.63,8.64,1.3,12.95,1.99l5.3,3.55c.86,3.09,1.54,6.22,2.05,9.38.79,4.38,2.83,7.67,7.7,8.58,9.15,1.72,16.88-2.88,24.34-7.48" fill="none" stroke="#fff" stroke-miterlimit="10"/><path d="M833.15,1085.18c-4.59-1.73-12.19-6.48-17.27-3.51-3.54,2.07-6.93,7.87-9.08,11.12-2.83,4.3-5.06,8.66-7.52,13.16-1.44,2.65-2.19,6.75-6.21,5.72-2.53-.65-6.59-4.69-8.72-6.16-1.57-1.08-5.24-4.3-7.34-4.75s-3.38,1.84-4.62,2.9c-2.82,2.41-5.89,4.66-9.36,6.03-5.2,2.04-11.49,1.79-16.44,4.26s-6.53,8.79-11.49,11.71c-6.16,3.63-14.35,5.42-21.29,6.91-3.66.78-6.94,1.9-10.15-.99-2.58-2.32-4.82-6.1-6.42-9.13-1.16-2.2-1.88-5.29-3.61-7.12-2.22-2.36-6.08-3.94-8.89-5.22-6.27-2.85-13.19-4.77-17.14-10.88-2.13-3.28-2.18-6.67-2.79-10.38-.5-3.04-1.77-5.77-2.46-8.75-1.32-5.76-.62-11.58.02-17.36.46-4.21,2.82-11.95.19-15.82-1.4-2.06-3.87-3.97-5.7-5.63-7.5-6.78-2.68-16.14-.33-24.18.99-3.38,1.92-5.91,1.23-9.38-.61-3.08-1.82-5.61-3.29-8.4-2.46-4.65-5.45-7.69-8.82-11.52l-6.47-7.64-3.76-11.95,2.23-7.74c1.68-8.74,5.77-16.36,12.27-22.87,2.87-4.36,6.45-7.93,6.69-13.24.19-4.3-1.17-7.87-1.6-12.1-.72-6.89-.04-14.17,3.66-20.23,4.98-8.17,12.41-14.72,19.47-21.03,11.12-9.93,20.55-21.68,31.44-31.87,8.21-7.69,17.11-14.19,25.94-21.13,3.73-2.93,7.46-5.73,10.73-9.16,1.89-1.98,4-3.93,5.74-6.05,1.93-2.34,1.68-3.18,2.37-6.56.57-2.82.53-4.52,2.82-6.27s4.34-1.12,7.17-1.23c4.58-.17,6.12-.8,9.32-3.65,3.77-3.37,6.92-7.91,10.35-11.64,5.67-6.17,11.19-13.19,19.32-15.91,3.76-1.26,7.26-1.56,11.25-1.49,3.17.05,7.72,1.35,10.79.5,2.02-.56,3.82-2.48,5.21-3.82,3.11-2.99,6.56-5.84,10.14-8.25,8.61-5.8,18.91-7.69,28.3-3.03,5,2.48,8.92,6.19,13.34,9.3,1.14.81,1.46,1.73,3.15,1.16,2.57-.87,12.09-12.45,11.83-12.22,4.39-3.85,8.47-7.39,14.3-8.22,7.84-1.11,15.32-3.16,23.33-2.12,6.48.84,11.8,2.51,18.4.97,11.35-2.65,22.81-12.16,26.23-23.62,1.03-3.45,1.11-7.54,1.12-11.11.02-7.21,2.16-13.41,3.53-20.32,1.03-5.21,1.2-9.55.14-14.71-1.59-7.77-6.6-14.91-7.33-22.84-.33-3.57-.1-7.33-.01-10.91.4-2.06.14-4.03-.78-5.9-.71-2.84-1.94-5.45-3.69-7.84-2.49-9.39,4.76-17.68,8.65-25.7,4.3-8.86,7.22-20.29,8.48-30.14.9-7.06-.02-12.48-6.28-14.38-1.64-6.35-1.6-12.53.14-18.54-.04-2.77,1.3-4.64,4.03-5.6,2.69-2.97,4.04-6.59,4.94-10.46s.94-5.75-.17-9.68c-2.8-9.91-7.46-19.37-11.38-28.86,1.61-2.85,4.26-3.74,7.96-2.67,5.77-.66,11.48-.36,17.16.88,4.95,1.11,9.52,3.08,13.71,5.9,4.43,2.23,8.06,1.17,10.9-3.17,5.17-5.59,8.66-17.33,11.13-23.93,3.6-7.57,5.49-15.54,5.66-23.9-.25-7.05-1.26-13.99-3.03-20.81-1.5-7.1-3.82-13.91-6.96-20.45-1.28-4.62-4.11-7.2-8.51-7.75-4.31.94-9.01,6.12-12.04,8.93-6.31,5.86-4.83,13.54-8.54,20.65-3.27,6.26-11.23,11.56-17.88,13.02-1.07-5.38-1.43-10.83-1.08-16.33-.86-6.11-1.07-12.24-.63-18.39,3.97-6.82,13.75-7.11,17.48-13.78,4.34-7.76-3.89-12.93-8.61-17.38-5.48-4.31-9.48-9.72-12.01-16.23-2-5.35-3.24-10.86-3.72-16.52-1.4-10.57-2.81-20.02-8.49-29.23s-9.3-17.96-12.47-27.92c-2.78-8.73-4.09-18.32-8.32-26.57-2.27-3.98-5.24-7.35-8.91-10.11-4.19-1.93-6.6-5.05-7.25-9.38,2.41-2.47,5.29-3.81,8.63-4.03,2.73-.1,5.09-1.09,7.1-2.98-1.17-8.81-6.18-15.68-9.52-23.81-3.57-8.69-6.72-17.52-5.84-28.99-3.48-14.95-7.69-29.17-16.73-46-4.22-8.02-11.26-25.74-19.91-33.14-1.07-1.76-2.45-2.23-4.14-1.41-3.6.46-6.76,2.09-9.48,4.88-12.93,7.89-25.33,16.37-37.2,25.79-14.67,11.65-28.34,24.47-42.99,36.14-9.13,7.28-18.14,14.72-27.41,21.84-10.85,8.32-22.77,17.76-34.97,24.13-17.77,9.28-36.56,15.83-50.5,32.58-18.38,3.14-36.58,5.64-54.71,10.01-7.32,1.76-14.67,3.43-22.18,4.1-2.77.24-6.41-.24-9.08.58-3.77,1.16-6.63,5.45-9.14,8.26-1.35,1.51-3.21,4.43-5.2,5.28s-4.14,0-5.99-.49c-6.86-1.78-13.66-2.76-20.74-3.45-8.08-.78-16.03-2.23-24.04-3.51-12.32-1.96-24.03-.46-36.46.33-9.94.64-19.52.77-29.45-.08-10.59-.91-21.04-1.91-31.7-2.24-14.65-.45-26.82-6.6-40-12.47-10.67-4.75-21.15-9.72-31.71-14.69" fill="none" stroke="#fff" stroke-miterlimit="10"/><path d="M298.42,277.07c7.45,4.52,15.28,8.22,23.49,11.11,6.77,1.79,13.58,3.36,20.44,4.73,6.57,1.4,12.83,2.5,19.47,3.26,6.28.72,11.5,1.95,17.66-.39,7.24-2.75,13.34-9.14,21.8-7.2,7.78,1.78,11.87,9.68,18.17,13.77,2.88,1.87,6.17,2.46,9.59,2.53,9.5.18,18.17-5.06,27.69-5.62,12.02-.71,24.11,2.59,36.11,3.12,23.48,1.03,46.76-3.24,70.25-3.11,11.33.13,22.62.91,33.86,2.34,5.15,1.38,9.33.16,12.55-3.66,1.34-2.66,3.31-4.63,5.91-5.91,2.51-1.99,5.43-2.99,8.77-2.98,8.19-.14,10.47,6.64,16.04,11.1,6.32,5.07,11.93,3.44,19.39,2.06,10.6-1.96,20.97-2.3,31.74-2.73,8.4-.15,16.72-1.03,24.96-2.64,5.74-1.66,11.55-2.27,17.46-1.82,6.26,2.22,9.05,8.17,16.45,7.49,2.32-5.66,3.73-9.47,10.7-9.87,2.92-.17,4.83.13,7.73-.92,2.42-.88,9.62-3.01,11.28-5.42,2.96-4.3-1.35-12.56-3.68-16.21,2.12-2.28,4.79-3.71,8.01-4.29,5.76-2.36,10.69-5.88,14.78-10.55,5.05-5.19,10.29-9.68,15.76-14.43,1.15-2.24,2.85-3.18,5.08-2.81l3.36,5.18c3.55,7.13,7.62,13.95,12.21,20.46,3.49,3.54,6.55,7.4,9.2,11.59,2.52,6.1,4.88,17.82-.61,22.84-2.99,1.43-6.03,2.74-9.12,3.93l-2.22,4.39c.28,4.73,1.41,9.26,3.38,13.58.59,3.41,1.19,6.82,1.82,10.22,3.29,4.57,9.88,5.27,12.56,10.68,2.49,5.03.18,7.93-1.94,12.26-5.26,10.77-.04,24.76,1.45,35.94,1,7.92,2.16,15.82,3.46,23.7,2.48,9.38,5.66,18.52,9.54,27.41,4.31,12.93,5.52,26.23,6.15,39.77s-1.62,23.86-5.04,36.29c-3.17,11.5-4.31,23.1-6.62,34.74-1.24,6.22-3.09,17.03-7.8,22.06-6.09,6.51-17.15,5.94-25.11,4.74,3.11-7.53,6.49-14.87,6.73-23.16.14-4.89-1.14-7.6-5.39-10.87l-6.34-4.07-6-1.88c-3.56.87-4.74,5.11-5.37,8.11-1.15,5.52-.85,12.05-1.26,17.7s-.13,10.29,3.5,14.6c3.9,4.65,8.85,7.95,14.21,10.72,2.22,1.15,4.04,1.26,4.64,3.83l-.71,3.74c.05,2.47.89,4.58,2.5,6.31,1.57,2.15,2.63,4,2.85,6.61s-.24,3.68,1.19,5.96c4.64,7.39,9.01,14.64,12.97,22.46,2.07,4.08,4.46,6.32-.92,8.37-3.64,1.39-10.46,3.55-14.37,2.5-3.51-.94-4.08-3.39-6.53-5.38-6.58-5.33-17.58,6.34-22.71,9.83s-9.86,7.91-15.3,10.72c-4.21,2.17-9.41,2.92-13.85,4.51-10.24,3.67-18.82,10.34-27.62,16.51-7.37,5.17-14.97,9.21-23.64,11.69s-18.42,2.56-26.19,6.77c-3.92,2.12-7.53,5.2-7.32,10.05.19,4.51,4.81,8.12,4.48,12.69.54,1.74.04,3.18-1.52,4.33-1.32,2.12-2.92,4.01-4.8,5.67-6.98,7.33-13.58,15.5-18.98,24.09-2.67,4.24-3.57,8.99-4.21,13.88-.59,4.49.73,9.01-3.36,15.97-5.93,4.52-12.2,8.52-18.8,12-4.66,2.03-8.97,4.63-12.92,7.8-2.89,3.19-3.76,7.94-4.82,11.92-1.09,4.36-2.27,8.69-3.54,13-1.5,5.14-2.93,10.3-4.28,15.48l-1.87,3.8c-2.25,1.21-4.58,2.21-7,3.01-4.54,3.61.99,6.23,2.95,9.22,3.35,5.11,2.24,8.23-.68,13.6s-9.2,12.13-9.22,18.38c-.19,1.78.27,3.46,1.36,5.03,1.65,4.69,2.9,9.48,3.76,14.38,1.49,4.12.37,7.07-3.36,8.85l-7.03.58c-5.34-.92-8.98,1.03-10.93,5.84-.33,3.67-.02,7.29.92,10.84.9,9.11-2.45,17.71-5.31,26.08-3.31,9.7-1.95,20.34-2.63,30.43-.58,8.6-1.08,15.49.44,24.02.54,3.64,1.33,7.23,2.37,10.76,1.84,2.51,4.06,4.61,6.65,6.32,4.03,5.59.16,15.26.99,21.34-.32,5.97,2.36,9.65,8.06,11.02,4.43.71,8.38,2.42,11.87,5.14l-1.07,4.72-6.38,7.82c-2.88,3.61-8.27,8.17-6.12,13.49l5.72,4.67c3.64,2.18,6.49,5.07,8.53,8.68,3.23,4.76,6.04,9.71,9.44,14.36,10.82,14.76,16.7,31.37,23.61,48.12,2.33,5.66,4.74,8.46,10.85,9.53,8.61,1.5,17.56,2.79,26.26,3.32,11.55.71,25.73,2.13,36.66-2.68,8.05-3.55,14.77-9.18,23.74-10.64,3.29-.53,6.71-.36,9.99-1.04,4.05-.84,4.85-2.36,7.03,1.52s4.83,6.97,7.99,9.87c2.62,2.41,5.1,4.69,6.36,8.06,5.42-1.05,4.97-14.63,5.07-17.89.2-6.39-1.38-13.83,4.09-18.39,2.54-1.48,5.27-2.41,8.19-2.77,6.15-1.13,12.26-2.41,18.35-3.84,6.96-1.62,14.2-2.98,20.66-6.14,3.41-1.7,6.87-3.31,10.37-4.83,4.88-1.92,9.12-1.06,12.72,2.57,3.28,3.51,7.25,5.9,11.89,7.18,3.43.81,6.89,1.3,10.39,1.46,2.03.26,4.07.29,6.11.07,1.5-.69,3.01-1.36,4.54-2,5.01-.9,10.06-1.41,15.16-1.52,8.54-1.11,16.96-2.78,25.27-5" fill="none" stroke="#fff" stroke-miterlimit="10"/><path d="M1121.42,1062.7c6.27,2.55,12.54,5.1,18.81,7.66,3.26-.41,6.51-.82,9.77-1.22,3.32-1.62,6.5-11.07,7.83-14.76,1.08-3.02,1.87-2.88,4.58-1.29,1.47,1.01,3.06,1.78,4.77,2.29,1.53,1.42,2.94,1.44,4.22.06,2.66-1.19,3.89-3.52,3.68-7.01l4.55-6.93c4.34-5.33,10.62-9.11,15.01-14.44,3.57-4.35,5.71-9.5,8.79-14.14,3.44-5.19,6.78-7.84,12.3-4.84,2.81,1.53,5.02,2.86,5.48,6.13,1.15,8.19.27,18.8,0,26.64-.26,7.24-.01,15.15-1.47,22.3-.84,4.12-2.19,5.91-5.52,8.52-4.66,3.65-11.42,5.84-15.37,10.37s-1.83,9.63-.19,14.46c1.35,4,2.25,8.02,3.1,12.15,1.94,9.43,4.35,21.45-.24,30.5-5.05,9.97-14.58,15.57-20.52,24.72-4.46,6.88-7.05,14.93-10.18,22.44-2.62,6.29-4.68,12.17-4.52,19.01.2,8.43,2.22,16.48,4.67,24.51,2.86,9.36,6.49,20.41,13.01,27.95,2.76,3.19,5.88,5.92,9.14,8.59s6.83,6.21,10.55,8.4c5.71,3.37,11.97,2.4,18.22,1.28,8.48-1.52,15.84-5.04,23.25-9.4,8.17-4.81,16.1-9.77,24.96-13.2,9.75-3.78,20.69-5.48,29.28-11.86l7.27-6.87,3.92-3.85c3.02-.96,4.64,3.28,5.38,5.31.41,2.92.83,5.84,1.24,8.76.44,5.63.96,11.26,1.55,16.88.35,3.46,1.96,10.2,1.33,17-1.93,15.77-3.82,31.38-8.13,46.7-1.13,5.06-2.9,9.86-5.29,14.41-1.21,3.56-3.43,6.39-6.66,8.5-8.88,8.42-17.76,17.78-27.73,24.9-15.05,10.76-34.1,19.17-51.48,25.11-6.36,2.03-12.72,4.05-19.08,6.08-10.97,3.49-21.95,6.97-32.94,10.42l-9.4,1.48c-5.26-1.1-9.99-3.34-14.18-6.72l-8.03-3.48c-4.56-1.67-8.32-.93-11.3,2.22-6.62,4.91-5.91,9.89-.45,15.14-3.74,5.36-9.08,8.76-16.01,10.23-11.88,6.63-23.01,14.31-33.4,23.04-11.26,7.99-21.27,17.38-30.02,28.16-8.35,11.41-16.81,22.73-25.39,33.96-9.6,10.41-24.67,17.79-32.08,30.17-5.88,9.82-5.39,19.66-5.32,30.43.1,15.14,7.18,26.96,19.41,36.07,11.56,8.61,23.91,14.89,32.16,27.4,5.92,8.97,11.81,20.34,15.9,30.1s5.48,19.47,10.25,28.43c1.8,3.9,4.2,7.42,7.19,10.56,5.06,3.14,9.88,6.62,14.46,10.44,9.89,9.05,16.78,20.41,29.39,26.18,5.64,1.79,11.26,3.67,16.84,5.65,3.63,1.14,7.16,2.52,10.6,4.15,16.48,4.59,32.99-8.47,44.92-17.91,6.37-4.98,12.66-10.07,18.87-15.25,6.93-3.99,13.93-7.85,21-11.6l10.59-11.35c3.45-7.98,8.96-13.85,16.53-17.61,6.29-1.6,12.77,2.59,17.79-3.12,1.34-2.21,2.11-4.61,2.3-7.19-.32-3.42.98-5.64,3.91-6.65,4.74,3.73,9.68,8.95,16.11,8.58,3.04-.85,5.8-.23,8.29,1.88,2.26,3.03,4.28,6.22,6.06,9.55,2.7-2.8,3.77-6.31,3.23-10.52-.54-4.06.24-7.76,2.34-11.08,4.28-.53,8.54-1.19,12.78-1.98,7.34-1.84,14.42-4.39,21.25-7.66,8.7-4.04,10.3-6.09,16.29-13.34,4.81-5.97,10.11-11.47,15.9-16.51,2.76-3.39,6.2-5.41,10.33-6.05,6.87,2.41,2.39,18.77,1.36,21.95-5.11,15.89-14.35,30.28-20.7,45.66-3.94,9.67-7.27,19.54-9.97,29.62-4.09,8.38-9.98,15.27-17.69,20.67-7.71,5.43-14.37,11.92-19.99,19.47-2.69,4.59-4.52,9.49-7.33,14.96,4.19,8.28,7.49,16.91,9.9,25.87,2.12,8.6,3.73,17.28,4.82,26.06,2.41,16.35,4.32,32.76,6.36,49.16l-.16-.74" fill="none" stroke="#fff" stroke-miterlimit="10"/><path d="M1662.69,1639.77c-13.61,3.82-27.36,7.02-41.25,9.58-3.31.15-6.44,1.03-9.39,2.64-4.5,1.68-8.32,4.34-11.46,7.95-1.32,3.11-3.36,5.62-6.12,7.53-4.54.79-9,1.89-13.38,3.3-5.76,1.2-11.03,3.57-15.82,7.13-2.66,1.63-4.15,3.87-4.46,6.74-2.11,2.88-4.86,5.03-8.23,6.45-5.42,3.07-9.2,7.53-11.34,13.38-.96,5.33-3.52,9.7-7.67,13.12-4.73,3.59-13.05,5.44-15.24,11.56-.31,2.59-.52,5.18-.62,7.79-1.04,2.35-2.56,4.33-4.58,5.95-2.32,6.88-3.43,13.97-3.32,21.28-2.79,4.63-2.71,7.95.24,9.95" fill="none" stroke="#fff" stroke-miterlimit="10"/><path d="M1723.85,1575.48c-14.77,7.73-29.55,15.45-44.33,23.15-7.39,3.15-14.07,7.41-20.04,12.79-6.71,6.07-12.77,12.23-20.26,17.45-6.87,4.19-13.95,7.98-21.24,11.37-5.78,2.99-11.71,5.64-17.8,7.96l-6.72-.02c-4.2-2.2-8.63-3.12-13.28-2.76-8.89-.29-16.42,2.79-23.23,8.36-4.36,3.57-6.76,8.36-11.49,11.41-6.22,4.03-13.67,3.71-20.25,6.67-4.13,1.12-6.08,3.51-5.85,7.14-.75,3-.42,5.94,1,8.83l-1.07,4.27c-4.98,2.1-10.03,4-15.16,5.69-12.13,4.27-23.39,10.31-34.41,16.88l-8.68,5.35c-3.92,2.21-5.84,5.39-5.78,9.54-1.09,4.76-1.14,9.58-.15,14.46v8.52c-1.68,6.26-7.08,3.5-11.31,6.64s-5.76,8.15-7.23,13.01c-1.71,5.66-2.31,9.99-1.59,16.01l2.38,13.79c-.57,5.31.67,9.77,3.71,13.39" fill="none" stroke="#fff" stroke-miterlimit="10"/><path d="M1404.99,1831.61c-4.37-1.93-8.75-3.85-13.12-5.78-3.85-2.62-4.75-5.67-2.69-9.15.91-2.13,1.37-4.35,1.38-6.66.88-2.85.17-5.37-2.11-7.56-1.72-2.7-2.95-3.62-.97-6.75,3.01-4.75,10.38-4.85,11.43-10.64-4.03-2.01-8.03-4.06-12.02-6.14-5.14-2-6.64-5.34-4.5-10.04,2.6-2.83,5.3-5.56,8.09-8.2,2.35-2.02,4.34-4.35,5.99-6.99,6.71-6.45,14.58-1.8,22.5-4.11,6.44-1.88,7.44-7.58,2.08-12.07-4.12-3.46-9.52-2.57-13.35-6.56-2.82-5.66-2.09-10.93,2.2-15.79,4.31-4.31,9.46-5.94,15.42-4.89l6.22,1.81c3.42,1.4,5.84.21,7.26-3.56,1.87-4.53,4.49-8.58,7.85-12.15,6.73-5.18,13.55-10.24,20.47-15.17,14.32-10.37,27.33-21.98,40.59-33.62,9.34-8.2,16.68-12.85,28.37-17.66,8.81-2.97,17.35-6.55,25.63-10.76,5.31-3.9,10.63-7.81,15.95-11.71,9.87-5.74,22.47-8.21,31.14-15.74,2.63-2.69,5.15-5.49,7.55-8.39l4.82-4.73c6.85-8.1,2.49-21.88,12.44-27.11,5.1-.47,9.87-1.94,14.3-4.41,5.95-2.15,10.98-5.75,15.09-10.78,5.75-6.03,11.26-12.26,16.53-18.71,3.37-1.75,4.53-3.95,3.49-6.62-5.21,1.14-10.45,2.15-15.71,3.04-8.83,1.61-17.67,3.19-26.52,4.74-4.9,1.6-9.8,3.21-14.71,4.81l-11.84,5.73c-14.1,5.79-33.86,5.36-48.58,4.39-12.5-.82-24.72-2.94-37.12-4.56-6.11-.8-10.7-1.33-15.69-5.4-8.61-7.04-15.83-15.53-24.75-22.3-19.59-14.85-44.49-20.83-68.11-26,.66-4.29,2.66-7.99,5.99-11.09,3.21-4.52,5.98-9.3,9.34-14.06-1.68-6.51-4.57-12.4-8.65-17.68-2.63-3.05-4.92-6.33-6.87-9.84-.95-6.94,13.46-11.82,18.28-14.31,8.73-3.87,17.3-8.09,25.69-12.66,4.61-2.55,9.19-5.15,13.76-7.77,4.64-4.3,6.77-9.75,6.39-16.36.62-8.39.88-16.8.77-25.21.28-8.7-.23-17.37-1.54-26-1.77-9.69-3.86-19.31-6.29-28.85-.85-7.35-.71-14.71.44-22.06-.03-9.45,2.48-18.01,7.51-25.67,3.22-7.77,8.34-14.14,15.37-19.11,8.38-7.51,15.77-15.9,22.16-25.17,5.14-7.57,10.01-15.3,14.62-23.2,1.45-2.33,3.28-4.27,5.5-5.83-2.08-3.35-5.34-5.07-9.79-5.17-6.59-2.16-13.14-4.46-19.63-6.9-4.7-.9-8.88-2.88-12.56-5.93-2.7-4.62-5.04-9.42-7.02-14.39-4.21-4.49-9.39-7.26-15.52-8.3-7.42-2.95-15.12-4.67-23.1-5.16-9.9.8-19.4,3.21-28.48,7.22-5.15,3.09-9.51,2.83-13.07-.76-3.68-2.25-6.74-5.21-9.18-8.86-4.52-2.7-7.22-6.58-8.1-11.64,2.3-6.28,5.26-12.24,8.87-17.88,2.23-4.35,4.12-8.84,5.67-13.47,1.89-5.27,6.31-12.98,1.93-17.82s-6.37-11.02-11.38-22.57c-6.51-3.12-17.16-6.16-21.41-12.68-2.22-3.42-.88-13.59-1.24-17.2-.54-5.39-2.25-9.81-3.48-14.97-.68-2.86-1.29-3.81.76-5.73l6.13-3.02c6.79-3.22,13.76-5.97,20.91-8.27,2.79-1.32,5.58-2.64,8.36-3.96,4.76-4.21,8.45-9.21,11.08-14.99,2.97-5.08,6.99-10.05,6.15-16.16.11-3.66-1.65-6.43-5.27-8.31-3.4-.29-5.7-1.84-6.9-4.65,7.99-10.9,17.39-21.55,23.04-33.97,1.53-3.37,2.79-6.87,4.4-10.2,1.36-2.8,3.39-5.24,3.36-8.41-.05-4.57-4.6-11.32-6.1-14.96-2.53-6.13-4.67-12.41-6.7-18.73-1.8-5.61-3.15-10.84-3.35-16.78-.13-3.8,1.15-11.27-2.11-14.12l-4.79-2.41-6.79-4.19c-6.98-4.91-11.62-12.44-18.64-17.34-5.67-3.95-11.85-6.88-17.56-10.81-5.18-3.57-10.25-7.27-15.57-10.65-4.6-2.92-8.83-4.8-13.78-6.87-6.92-2.88-13.26-7.06-20.13-9.97-9.48-4.01-21.29-.54-31.36-.56-.83-4.5-4.33-8.98-6.83-12.61-3.8-5.52-8.09-10.6-12.84-15.33-2.35-2.34-5.16-4.29-7.79-6.3-1.54-1.18-4.22-2.76-4.39-5.01-.42-5.45,9.37-7.47,12.07-10.11,1.6-1.56,2.11-3.52,1.64-5.7-1.18-5.48-6.71-4.52-10.93-2.88-5.31,2.07-9.43,4.86-12.1,9.98-1.09,2.09-1.59,5.84-4.92,5.56-4.31-.37-7.71-4.8-12-5.77-3.82-.87-8.46-.92-12.37-1.06-5.39-.2-8.32,1.78-11.7,6.12-2.68,3.44-4.01,6.02-8.77,6.03-5.94,0-11.29-1.73-17.05.97s-6.42,8.92-10.83,12.83c-5.03,4.47-10.91,3.82-17.18,3.97-1.01,2.59-.63,5.12,1.14,7.59.92,5.31-1.18,8.93-6.3,10.84-5.59.36-8.51-2.28-8.76-7.94.63-2.17.61-4.29-.05-6.35-4.55-.83-7.91-3.61-11.53-6.35-2.98-2.25-2.53-2.54-5.69-2.01-8.99,1.53-31.64,11.75-33-5.9.52-6.62,3.55-11.71,9.07-15.28l3.99-1.41c2.29-.28,3.29-1.84,2.99-4.68,1.47-6.1,3.2-12.12,5.2-18.06,1.61-7.83-.15-15.36.86-23.37,1.61-6.36,2.86-12.8,3.73-19.3-.86-2.98-1.6-5.99-2.2-9.03,3.76-2.17,7.87-3.01,12.33-2.53l8.09-1.94c5.8-3.64.95-11.05-.91-15.49-1.74-4.14-4.51-7.58-8.2-10.16-1.41-1.09-2.96-1.94-4.64-2.55-2.78-1.36-4.67-3.5-5.66-5.88-6.82-6.05-9.83-13.49-9.02-22.33,2.23-7.36,4.09-14.8,5.57-22.35,4.11-19.73,7.45-39.55,9.26-59.62.89-9.82,1.42-19.85,7.76-27.92,3.24-3.42,6.37-6.94,9.39-10.56,4.46-4,6.73-8.86,6.82-14.59-6.32-3.63-12.99-5.07-19.57-8.17.8-9.38,5.86-19.58,10.81-27.55,2.37-3.81,4.86-7.01,5.78-11.54,1.19-5.83.07-12.75-.49-18.58-3.47-36.34-12.97-72.11-12.86-108.76-.05-3.78,0-7.56.17-11.34.52-2.21.39-4.34-.4-6.38.04-1.92-.96-2.79-3.02-2.6-2.47-.72-4.97-1.34-7.5-1.85-7.74-1.8-14.81-5.2-21.62-9.26-5.72-3.42-11.69-6.09-16.56-10.66-5.33-5-8.29-11.7-12.44-17.7-3.52-5.1-7.48-8.36-12.6-11.8-4.42-2.97-6.9-6.97-8.53-12-.84-2.59-1.37-7.18-3.09-9.4" fill="none" stroke="#fff" stroke-miterlimit="10"/><path d="M1053.21,166.26c-4.21-29.6-8.34-59.12-15.06-88.3-1.1-4.56-2.2-9.12-3.3-13.68-2.37-8.38-5.61-16.4-9.72-24.07l-5.01-11.71c-2.55-7.02-3.72-14.25-3.5-21.68" fill="none" stroke="#fff" stroke-miterlimit="10"/><path d="M1106.53,1.6c-1.06,14.68-2.46,29.32-4.2,43.92-1.11,1.86-1.06,3.35.15,4.45,3.59,1.61,6.78,3.85,9.58,6.72,6.78,6.38,13.14,13.15,19.09,20.31,18.31,20.6,32.99,43.72,48.74,66.29,4.77,6.86,9.43,13.79,13.98,20.79,4.44,5.97,8.98,11.86,13.63,17.66,5.22,7.76,9.65,16.04,14.67,23.93,1.95,3.07,9.95,14.22,4.48,17.49-5.79.17-11.34-1.02-16.64-3.57-4-3.88-8.28-5.06-12.85-3.55,4.09,10.39,7.74,20.72,10.63,31.51,3.65,13.63,5.48,26.94,6.95,40.89-.64,6.67,1.07,12.54,5.12,17.6l4.9,1.95c10.02,4.31,17.73,14.36,24.98,22.31,18.43,20.2,29.65,45.75,30.59,73.2.42,12.26-3.55,24.2-3.83,36.45,1.33,3.81.23,6.54-3.3,8.18-4.08,1.92-7.98,4.13-11.72,6.62-3.34,2.13-6.71,4.22-10.1,6.26-3.54.89-6.89,2.25-10.04,4.06-10.42,5.29-10.21,15.12-9.2,25.5-.22,4.58,1.09,8.72,3.95,12.41,5.01,1.17,9.92.98,14.75-.57,4.89-.96,9.76-2.02,14.61-3.18,3.05.34,5.59,1.61,7.63,3.81,6.51,5.26,14.09,6.48,21.97,8.46,3.2.77,6.38,1.63,9.54,2.58,4.01,1.54,5.71,4.32,5.09,8.36.89,5.46.77,10.94-.35,16.44-1.51,4.53-.61,7.86,2.69,10,2.4,2.7,5.57,3.95,9.53,3.76,4.89,1.07,9.71,2.41,13.66,9.52-6.8,12.97-13.82,25.82-21.04,38.55-2.09,4.17-2.18,8.33-.27,12.51,3.36,7.05,11.49,9.05,18.6,9.07s4.41,8.62,8.32,12.99c2.22,1.75,4.53,3.38,6.91,4.89.45,2.78,1.11,5.52,2,8.2,5.36.39,9.15-2.01,11.37-7.21,6.59-6.85,11.84-14.66,15.75-23.45l6.95-11.42c2.62-3.37,5.95-4.81,10-4.31,1.95,1.91,2.4,4.12,1.36,6.6-.86,2.74-.56,5.4.89,7.97,3.83-.64,7.63-.54,11.42.3,1.54,5.81,2.73,11.7,3.57,17.66,1.9,3.86,4.5,7.1,7.79,9.74,3.23,2.35,5.33,5.56,6.28,9.63,2.79,6.92,5.96,13.65,9.52,20.21,1.55,5.01,3.1,10.02,4.65,15.04,3.08,16.07,6.76,32.01,11.04,47.81,3.8,13.21,7.28,26.51,10.42,39.89,2.45,9.82,4.76,19.66,6.95,29.54,2.7,9.24,6.69,18.18,10.56,26.98.92,3.98,2.98,7.14,6.16,9.48,3.31,1.88,6.8,3.26,10.48,4.15,10.71,3.15,20.65-1.64,31.43-1.99l7.85.06c4.52,5.24,5.31,11.39,2.37,18.44-1.66,10.37-2.88,20.79-3.65,31.25-.92,12.06-2.34,24.06-4.26,36-2.9,15.39-6.66,29.82-15.63,42.66-3.43,4.91-6.53,8.69-9.15,13.92s-3.19,6.9-.72,13.38c3.54,9.3,7.77,17.86,9.75,27.77.55,4.06,1.24,8.1,2.07,12.11.82,2.75,1.03,5.56.63,8.42-5.84,4.56-12.41,7.72-19.73,9.47l-16.18,1.35c-9.26-2.12-17.71-5.98-25.34-11.59-4.77-3.3-9.81-6.09-15.13-8.37l-.85,2.13c4.03,4.47,8.59,8.3,13.66,11.49,6.84,4.88,13.52,9.95,19.96,15.35,4.52,3.8,8.58,7.51,12.05,12.29,6.54,9.02,12.3,18.68,18.17,28.14,3.93,6.33,7.74,12.71,11.2,19.31,3.8,7.25,12.94,6.21,19.94,5.38,9.67-1.16,18.81-5.23,28.69-5.67s22.16,4.24,33.5,7.01c9.26,8.64,18.04,17.75,26.34,27.31,5.36,5.99,10.38,12.25,15.07,18.77,5.88,16.22-18.51,27.23-28.86,34.41-9.9,6.24-18.76,13.77-26.59,22.58-8.16,8.15-15.55,16.95-22.15,26.39-2.76,3.97-4.12,8.31-4.08,13.04.34,2.51.28,4.99-.2,7.46-6.59,2.79-13.25,5.4-19.98,7.85-11.42,1.28-16.25,6.46-14.49,15.55,6.45,2.09,13.03,3.39,19.76,3.89,4.97-.68,8.86,1.09,11.67,5.31,1.17,4.64,1.78,9.34,1.81,14.11.95,5.68-.31,11.01-3.81,16l-9.92,15.07c-6.12,6.74-9.72,14.41-10.82,23.04-2.8,6.34-1.05,11.84,5.25,16.52l13.53,14.73c8.33,11.47,17.91,21.76,28.73,30.89,4.94,2.19,9.89,4.37,14.83,6.56,9.32,2.17,18.66,4.25,28.02,6.24,13.15,2.64,26.13,5.98,38.95,10l21.44,6.53c6.45,1.45,12.77,1.25,18.97-.57,16.28-3.4,31.83,1.76,47.88,4.22,6.42,1.22,12.89,1.9,19.42,2.06l5.88,1.14c4.17,1.64,7.78,8.38,7.16,12.7l-3.26,8.17c-3.75,6.77-8.08,13.15-12.99,19.12-3.24,3.06-7.17,5.33-9.98,8.79-3.13,3.86-5.88,7.2-9.81,10.3-2.96,2.34-6.53,3.93-9.46,6.24-3.58,2.82-6.24,8.05-8.79,11.61-2.81,3.92-5.61,7.85-8.77,11.5" fill="none" stroke="#fff" stroke-miterlimit="10"/><path d="M1933.04,899.91c-12.26,4.75-27.27,9.9-29.74,24.6-1.16,6.91.18,13.52,1.96,20.25,2.54,9.57,5.14,19.13,6.14,29.02.7,6.91.57,13.91,1.29,20.8.5,4.84,1.78,9.31,2.95,14.01,1.37,5.53,1.44,10.62,5.19,15.12,4.63,5.56,10.53,9.93,16.21,14.39" fill="none" stroke="#fff" stroke-miterlimit="10"/><path d="M1905.63,1230c-6.42-6.89-12.84-13.79-19.25-20.68l-12.61-12.91-4.94-6.33.5-5.54c1.24-6.28,4.74-12.74,6.61-18.91,2.28-7.52,4.61-15.27,6.2-22.96s2.68-15.73.9-23.31c-1.79-7.65-6.66-14.61-8.1-22.43l-.45-13.69-.85-13.24-6.9-11.9c-3.87-4.25-7.74-8.5-11.61-12.75l-11.25-14.55c-2.48-3.7-4.96-7.4-7.44-11.09-4.27-4.84-10.34-7.5-14.67-12.04l-6.26-10.09,2.57-16.4,9.11-24.09,10.03-26.39c6.09-15.08,13.01-29.47,20.71-43.78,4.79-8.92,10.44-17.7,14.44-27.03,2.49-5.8,4.15-12.03,5.42-18.2.81-5.94,1.63-11.88,2.44-17.83.71-9.44-1.48-17.95-6.57-25.54-6.28-12.03-13.39-23.39-18.9-35.81-2.73-7-6.08-13.69-10.05-20.07-2.86-6.91-7.12-12.82-12.76-17.71-7.14-7.75-14.78-13.89-23.01-20.41-8.05-6.38-15.78-13.06-24.01-19.21-7.67-5.73-16.49-11.01-22.37-18.62-3.27-4.24-5.3-9.79-9.77-12.71-4.81-3.15-8.73-1.58-13.84-2.26-8.97-1.19-9.68-11.02-13.47-17.66-1.89-3.31-4.36-4.49-7.75-6.19-6.65-3.33-12.53-6.98-18.15-11.86-18.4-15.98-34.15-35.22-44.89-57.13-3.12-6.36-5.91-13.1-9.62-19.15-2.36-3.85-4.95-7.52-9.01-10.54-7.01-12.63-15.69-23.97-26.06-34.02-6.27-6.16-12.74-12.1-19.41-17.83-13.33-11.69-25.77-24.83-40.51-34.67-4.72,1.1-7.99,3.84-9.82,8.23-2.46,4.81-6.21,8.37-11.25,10.69-7.42-4.83-10.58-11.83-9.48-21,.64-5.69,3.34-9.8,8.11-12.34-2.9-3.45-6.79-3.7-10.62-5.9l-8.03-6.12-.44-6.56,5.84-4.92,3.44-5.86-3.08-10.34-3.63-13.3-2.17-13.72c-1.58-5-3.15-9.99-4.73-14.99l-6.01-17.77c-.88-5.99-1.77-11.98-2.65-17.97-.29-4.6-.58-9.2-.87-13.81l-4.43-10.46-7.01-11.24c-3.17-6.09-4.17-12.38-3.01-18.87.72-3.16.67-6.29-.14-9.39.39-3.23-1.09-5.18-4.43-5.88-7.12-4.3-13.98-8.22-20.16-13.81-4.95-4.47-9.38-9.72-14.65-13.78-2.12-1.41-3.93-3.15-5.43-5.22-3.23-2.76-5.15-6.31-5.77-10.66-3.56-9.49-4.08-19.06-5.75-29.01.3-3.16-.67-5.77-2.91-7.83-1.41-1.97-2.96-3.83-4.64-5.58-5.67-6.38-6.58-13.39-6.91-21.7-.51-12.73,1.08-25,4.47-37.27" fill="none" stroke="#fff" stroke-miterlimit="10"/><path d="M1458.46,119.52c10.08,13.62,16.12,28.61,18.11,44.97-6.28,1.9-12.17,4.65-17.66,8.25-3.35,9.09-2.01,17.72,4.04,25.88,7,13.45,16.25,26.77,27.08,37.37,7.97,7.8,18.44,13.69,23.89,23.79,1.7,2.86,2.32,5.91,1.85,9.14-.42,7.63-.67,15.27-.74,22.91.27,11.91,1.29,21.12,8.49,31.23,10.65,14.96,26.88,24.14,40.85,35.49,5.8,5.27,11.63,10.52,17.49,15.73,5.31,3.25,8.29,7.97,8.93,14.15l-.25,12.49c-1.56,7.63-1.79,15.28-.7,22.95,2.69,4.59,6.51,7.68,11.48,9.25,5.31,2.85,10.88,5.1,16.71,6.75,11.59,3.54,23.72,4.99,34.35,11.14,11.74,6.8,19.81,19.54,27.74,30.14,12.26,16.38,24.84,32.31,37.42,48.45,13.33,17.1,27.95,33.21,40.88,50.58,9.76,13.1,18.98,26.52,33.79,34.29,5.72,2.41,11.4,4.91,17.04,7.49,7.61,3.4,15.18,6.9,22.7,10.5,17.91,7.98,36.61,14.18,54.26,22.72" fill="none" stroke="#fff" stroke-miterlimit="10"/><path d="M1866.79,586.67l-25.32-15.26c-10.1-4.41-19.92-9.35-29.47-14.83-5.62-2.18-10.35-5.58-14.19-10.2-5.74-4.7-10.3-10.4-13.68-17.1-6.49-9.28-13.4-18.05-20.6-26.79-11.69-14.19-23.18-28.66-35.95-41.89-3.29-4.08-7.11-7.57-11.46-10.46-4.49-3.3-8.83-6.79-13.04-10.45-4.61-5.8-7.18-13.11-11.64-18.98-8.99-11.86-23.03-19.87-34.65-28.76-16.15-12.36-33.69-24.45-48.21-38.67-8.12-7.96-15.47-16.57-23.05-25.02-8.95-9.98-18.72-19.19-27.93-28.93-4.37-3.68-7.71-8.12-10.02-13.34-4.59-6.48-7.29-13.75-8.11-21.8-1.41-3.59-2.81-7.18-4.22-10.76l-7.45-6.52c-6.01-4.53-13.21-7.06-19.17-11.83s-11.59-9.91-15.89-15.89l-3.23-4.78c-.35-2.92-.69-5.83-1.04-8.75.5-9.44,1.45-18.83,2.86-28.17.64-5.64,1.48-11.26,2.52-16.84" fill="none" stroke="#fff" stroke-miterlimit="10"/><path d="M1509.29,156.07c.93,11.27,2.39,22.21.9,33.41-.59,4.42-.32,8.91-.34,13.36-.03,5.74,1.08,14.09,5.5,18.1,4.82,4.38,10.55,7.6,15.17,12.25,2.37,2.39,4.38,5.09,7.11,7.09,1.79,1.31,3.76,2.29,5.63,3.48,4.49,2.86,8.24,6.5,12.3,9.89,3.74,3.12,8.16,4.33,10.89,8.52,1.42,2.18,2.81,3.25,4.83,4.72,1.2.88,2.21,1.89,3.46,2.72,2.27,1.51,5.28,1.9,7.41,3.61,2.47,1.99,4.06,6.2,5.47,8.92,2.79,5.37,5.01,10.99,8.03,16.24s7.82,11.22,13.41,13.66c3.61,1.58,7.56,2.41,11.19,3.99,8.15,3.55,15.69,11.03,22.72,16.34,6.41,4.85,12.56,9.92,18.78,15.01,9.18,7.51,16.59,16.69,25.74,24.23,6.55,5.4,13.32,10.63,20.75,14.76s14.32,9.22,20.3,15.81c5.67,6.23,10.63,12.72,16.84,18.5,6.01,5.6,16.68,15.05,25.35,17.25l.14-3.18" fill="none" stroke="#fff" stroke-miterlimit="10"/><path d="M1732.01,355.38c-12.21-9.44-24.08-19.27-35.64-29.5-6.9-6.76-14.82-11.92-23.75-15.48-7.36-2.55-15.62-4.26-23.21-6.25-5.23-1.37-14.31.59-14.93-6.76.34-2.44.3-4.88-.11-7.31-1.63-2.9-3.73-5.41-6.3-7.52-3.84-3.64-7.46-7.48-10.86-11.52-2.72-3.94-5.63-7.73-8.74-11.36-2.85-1.91-5.98-3.15-9.41-3.74-6.39-1.41-12.7-3.1-18.93-5.06-13.65-4.06-29.07-11.64-38.34-22.93-9.61-11.7-10.76-28.6-14.23-42.75" fill="none" stroke="#fff" stroke-miterlimit="10"/><path d="M1560.12,197.19c-.57,8.97-.52,17.93.18,26.87-.7,4.58.66,8.49,4.09,11.71l8.25,3.04c6.55.84,13.04,2,19.46,3.49" fill="none" stroke="#fff" stroke-miterlimit="10"/><path d="M1368.8,65.27c-1.81,24.97-1.55,49.91.78,74.8,2.15,12.49,4.9,24.85,8.25,37.07,10.44,36.33,32.48,67.67,49.14,101.24,6.09,10.4,10.67,21.39,13.73,32.98,1.76,10.57,5.26,20.54,10.49,29.93,8.54,12.26,16.76,24.73,24.66,37.41,8.32,6.92,10.79,14.39,7.43,22.43-12.58-5.51-25.35-10.54-38.31-15.09-8.73-6.36-16.98-7.03-24.74-2.01,5.16,9.76,13.49,15.67,24.98,17.73l20.94,5.72c9.97,2.75,19.11,7.16,27.44,13.23,4.01,1.78,7.55,4.17,10.63,7.18,2.92,1.87,3.82,4.78,2.7,8.71.04,6.29.51,12.55,1.39,18.76,1.39,11.55,4.19,22.81,9.42,33.24,1.98,6.18,6.08,10.61,12.3,13.3,9.68,4.59,17.72,11.22,24.14,19.89,3.14,5.19,6.28,10.38,9.42,15.57,2.93,5.83,4.99,11.93,6.2,18.31,7.54,20.42,25.17,38.14,39.97,53.16,18.49,18.77,39.35,35.11,57.73,53.92,8.16,7.51,14.92,16.06,20.27,25.67,5.94,9.33,11.71,18.77,17.31,28.32,5.37,8.42,12.02,15.54,19.96,21.35,6.11,4.91,12.12,9.95,18.02,15.12,6.7,7.74,11.36,16.5,13.99,26.26,4.42,10.43,7.05,21.35,7.89,32.75,1.21,19.47-4.72,37.9-11.07,55.96-4.56,12.96-10.46,25.05-17.32,36.87-4.91,7.62-8.71,15.77-11.42,24.44-.78,5.32-1.56,10.64-2.33,15.96-.17,10.42-1.05,20.78-2.66,31.07-2.05,5.44-1.64,10.48,1.25,15.11,2.38,6.7,6.29,12.5,11.72,17.41,5.36,6.54,10.7,13.09,17.7,19.05,5.4,13.06,10.98,26.01,15.3,39.48,1.68,5.24,3.07,10.32,6.07,15.02s7.3,9.27,12.18,12c4.08,2.28,10.03,2.96,13.39,6.53,3.96,4.22,3.5,10.69,3.71,15.98.01,5.74.03,11.49.04,17.23-.08,6.01-.16,12.01-.23,18.02l-3.33,11.99-7.53,9.57-7.33,12.12c-2.15,7.21-4.65,14.29-7.5,21.24-3.49,8.93-8.14,17.13-10.39,26.46-1.8,7.44-1.8,14.5-2.24,22.11-.13,2.85-.34,5.7-.63,8.54-.75,4.1-.47,8.16.82,12.18,2.05,12.48,7.8,23.88,13.77,34.97,4.03,7.48,7.96,15.03,12.45,22.24,3.12,5.01,6.41,8.26,12.14,9.84,7.78,2.14,15.32,3.67,23.38,4.27,12.82.95,25.76-.16,38.63.04" fill="none" stroke="#fff" stroke-miterlimit="10"/><path d="M1834.34,1411.42c-29.78,1.97-59.26,3.61-89.03.34-12.37-1.13-24.5-3.52-36.38-7.16-10.99-2.62-21.55-6.43-31.68-11.42-5.39-2.36-8.83-6.32-10.3-11.88-2.67-8.04-6.44-15.54-11.32-22.48-6.12-4.28-12.88-5.18-20.27-2.69-9.06.87-18.12.87-27.16-.01-.45-7.14,2.08-13.42,7.59-18.85,4.18-8.64,8.15-17.37,11.9-26.2,5.17-6.82,10.65-13.39,16.44-19.7,6.18-10.24,12.36-20.47,18.56-30.7,13.7-19.3,32.71-34.49,48.73-51.78,5.69-5.81,10.86-12.06,15.52-18.75,5.22-8.07,7.59-16.84,7.12-26.31-3.26-5.57-8.18-7.13-14.78-4.7-8.64.75-16.99-.47-25.05-3.66-7.36-4.11-12.16-10.26-14.42-18.43-3.78-10.61-8.49-20.79-14.14-30.55-3.35-5.76-6.7-11.53-10.05-17.29-4.21-8.43-10.34-15.01-18.41-19.75-20.7-14.11-53.04-21.37-52.76-52.44-1.33-12.63,3.69-20.67,15.08-24.12,8.82.95,17.38-.06,25.68-3.03,3.94-5.42,6.57-11.39,7.91-17.91,2.63-8.7,5.24-17.4,7.82-26.11,3.47-12.15,6.02-24.49,7.67-37.02,2.16-15.18,6.53-29.69,13.12-43.53,5.72-8.57,8.39-17.96,8.02-28.15-1.69-11.45-5.26-22.28-10.73-32.5-5.76-9.62-11.09-19.46-16-29.54l-5.61-13.67c-3.09-8.15-8.42-14.36-16-18.63-7.99-4.42-15.33-9.74-22.02-15.96-6.42-6.27-13.45-11.75-21.1-16.43-6.49-3.93-12.84-8.07-19.06-12.42-7.1-4.69-13.98-9.83-22.43-11.49" fill="none" stroke="#fff" stroke-miterlimit="10"/><path d="M1540.55,689.38c-6.3-6.37-13.48-11.4-21.55-15.07-5.77-2.75-11.24-6.02-16.39-9.8,2.87-3.37,6.5-4.9,10.91-4.6,4.44-.63,8.87-1.35,13.29-2.16-1.3-5.1-3.68-9.44-5.53-14.35-2.87-7.61-4.44-15.83-6.69-23.64-1.58-5.48-3.42-10.87-5.13-16.31-2.84-9.05-4.61-18.33-7.05-27.48-3.09-11.64-7.19-22.78-12.17-33.75-3.39-7.48-6.88-17.33-12.37-23.65-4.96-5.71-12.58-.36-17.86-6.46-3.15-3.64-2.6-8.14-.85-12.43,1.52-3.71,2.56-6.04-.63-8.78-5.11-4.39-9.16-9.77-13.11-15.19-6.81-9.34-13.01-18.96-18.46-29.15s-9.83-20.06-15.35-29.79c-5.18-9.14-11.11-17.74-17.19-26.3-1.91-3.52-4.4-6.53-7.47-9.04-1.5-2.89-3.72-3.84-6.65-2.84-3.08-.28-5.86.58-8.35,2.58-5.05,2.53-10.19,4.88-15.41,7.04l-8.56-6.3c-4.02-11.57-8.04-23.13-12.05-34.71-1.61-7.29-4.53-13.98-8.77-20.05-2.95-4.43-5.42-9.11-7.43-14.03,6.43-2.1,12.96-2.61,19.6-1.54,6.46.29,12.92.68,19.37,1.16-.96-9.26-9.29-19.03-13.51-26.79-6.32-11.62-12.96-25.04-17.07-37.66-4.19-12.86-5.68-25.33-6.31-38.83l-.69-13.35c-1.92-10.2-4.88-20.09-8.29-29.68-7.79-13.76-14.96-27.82-21.52-42.18-2.76-5.88-5.5-11.76-8.25-17.65-6.65-9.13-22.93-15.12-32.18-19.78-13.7-6.9-27.8-12.43-38.38-24.07s-20.29-25.38-28.41-38.78" fill="none" stroke="#fff" stroke-miterlimit="10"/><path d="M421.43,174.34c13.82,4.54,27.21,8.88,41.92,9.26,9.5.24,20.63-2.06,29.8,1.05,3.23,1.1,8.49,2.51,11.25,4.59,3.62,2.73.58,10.55.24,14.17,7.93,1.35,15.91,1.52,23.95.5,10.7,1.28,21.42,1.68,32.18,1.2,7.59-2.6,15.01-5.63,22.25-9.08,5.99.35,11.63,1.96,16.93,4.82,18.24,3.44,33.56-13.19,46.84-22.49,15.12-9.19,29.59-19.31,43.4-30.37,4.88-6.59,10.74-12,17.58-16.22,3.74-3.98,8.11-4.04,13.11-.17,8.93,4.76,18.43,6.31,28.5,4.64,12.3-3.49,23.05-9.68,32.25-18.57,9.02-7.53,18.69-14.09,29.03-19.68,8.84-3.73,15.09-9.86,18.76-18.41-2.34-5.62-3.45-11.47-3.33-17.56,8.55-11.5,17.96-22.26,28.22-32.28,6.73-6.38,11.9-13.72,15.51-22.03" fill="none" stroke="#fff" stroke-miterlimit="10"/><path d="M838.57.19c-9.45,23.06-19.64,45.8-30.56,68.2-4.82,9.11-10.89,17.26-18.21,24.44-13.51,12.28-38.36,20.33-55.15,9.76-4-5.53-9.03-9.72-15.08-12.56-6.43-5.1-13.86-5.73-22.3-1.87-13.69,4.86-26.47,11.47-38.35,19.83-8.98,5.07-16.04,12.06-21.15,20.98-6.34,11.79-15.01,21.52-26.02,29.2-9.81,7.22-20,8.26-30.57,3.14l-9.21-7.28c-6.96-3.01-13.47-2.18-19.54,2.49-3.13,3.16-6.52,3.68-10.17,1.54-5.14-3.71-10.64-6.79-16.5-9.24-11.75-4.86-23.89-7.16-34.34-14.99" fill="none" stroke="#fff" stroke-miterlimit="10"/><path d="M515.16,103.17c17.75,5.53,35.03,12.24,51.84,20.13,6.79,4.03,13.87,4.69,21.24,1.96,7.28-2.57,14.56-5.16,21.83-7.75,7.48-2.93,13.77-7.53,18.86-13.79,4.71-5.3,8.95-10.94,12.71-16.94,4.7-7.94,9.81-15.6,15.34-22.99,6.48-5.27,13.82-8.84,22.02-10.72,7.39-3.41,14.79-6.77,22.22-10.09,10.92-4.9,24.93-9.02,31.87,3.68,2.47,7.54,4.89,15.09,7.27,22.66,2.23,7.01,6.88,9.77,13.95,8.27,6.17-1.8,12-4.36,17.49-7.68,4.66-1.88,8.77-4.61,12.33-8.17,5.35-9.34,8.47-19.44,9.36-30.29,1.47-6.91,2.04-13.86,1.71-20.85" fill="none" stroke="#fff" stroke-miterlimit="10"/><path d="M266.95,309.43c3.52,3.32,5.52,7.32,8.52,11.32,10,16,16,30,25,46,12,21,37,21,58,27,1,1,3,2,5,3,2,2,4,6,7,7,13,2,21-12,25-22,2-4,7-4,10-2,12,12,25,22,41,28,10,3,20,7,30,13,6,4,5,12,9,17,3,3,7-1,9-4,3-6,2-15,8-17,10-4,20,4,30,7,4,5,1,12,0,18-1,7,6,12,12,16,3,2,7,5,10,8,1,1,3,1,4,2,6,6,13,11,20,14,3,1,6,4,9,1,15-16,25-37,45-48,4-2,8-3,11,0,4,5-1,11,0,17s7,9,12,10c13,2,22-8,29-17,6-6,12,4,17,8,10,6,24,5,29,17-3,13-13,22-23,31-2,1-5,3-7,5-1,1-3,1-4,2l-3,3c-1,1-3,1-4,2s-2,2-2,3l3,63c0,2-1,4-2,6-6,6-12,10-13,19-1,2-2,4-4,6-10,8-22,11-30,21-4,5-6,10-10,15-3,3-8,5-12,8-3,4,1,9-3,13-8,7-18,12-23,21-1,16,0,33-2,49-2,13-6,26-13,38-5,10-14,18-23,26-1,2-2,5-2,7,0,6,2,13-2,19-8,1-17,6-13,17,2,6-1,13-1,19-1,5-2,9-3,14-2,19-4,38-10,56-5,17-15,32-22,48-1,4,1,9,2,13,2,11,9,19,12,30,1,6-2,13,1,19,6,8,16,12,15,23-2,10-11,19-5,29,12,19,21,38,29,59,9,22,21,43,29,65,1,3,2,6,2,10,0,3,3,5,6,6,12,3,23,4,34,8,14,6,23,19,36,27,6,4,13,5,19,7,10,4,18,10,29,13,4,0,7,1,11-1,1-1,2-2,3-2,20-7,37-18,55-30,5-4,9-9,14-11,15-4,29-8,43-17,5-4,12-9,18-6,16,7,21,24,29,39,1,3,3,5,5,7,1,2,2,5,3,7,3,5,6,9,11,10,14,3,24-10,37-14,7-2,15-1,19-8,3-7,3-17,10-21,2-1,5-1,13.09-4.12,8.89,2.14,17.09.95,24.6-3.57,1.99-4.6,3.27-9.37,3.84-14.32.76-5.88,2.27-11.57,4.54-17.09,1.51-7.87,5.45-14.04,11.84-18.49,4.9,3.29,8.37,7.65,10.43,13.07,1.38,5.66,5.07,8.86,11.06,9.58,7.41-4.37,13.49-10.12,18.23-17.28,3.45-6.8,6.62-13.73,9.52-20.79,5.03-10.54,13.35-16.42,24.94-17.62,7.43-3.68,14.57-3.79,21.4-.32l-3.24,15.06c-3.37,11.92-3.97,23.87-1.8,35.84.35,7.35,1.51,14.57,3.49,21.66,2.16,6.5,2.97,13.15,2.41,19.97,1.05,8.57-.28,16.83-3.99,24.79l-2.1,10.72,1.61,10.04c2.16,4.58,5.25,5.74,9.26,3.48,3.45-1.45,6.93-1.42,10.45.07,5.32-.13,9.37,2.22,12.15,7.03,7.05,5.33,11.55,12.48,13.5,21.48-1.18,4.74-2.37,9.48-3.55,14.22-4.46,4.1-8.92,8.2-13.38,12.31l-15.97,9.87c-16.68,5.53-12.25-6.69-23.13-11.34-.24,8.01-2.1,15.58-5.58,22.69-1.32,8.69-6.9,13.17-16.75,13.44-6.17.82-12.34,1.63-18.51,2.45-11.23,3.97-18.57,11.34-22.01,22.12-5.12,10.48-10.83,20.64-17.11,30.48-7.74,5.94-15.49,11.88-23.23,17.82-14.83,9.03-28.66,19.35-41.49,30.95-10.5,8.75-20.72,17.82-30.66,27.21-10.41,9.62-20.55,18.73-28.05,30.92-4.12,5.99-7.34,12.45-9.65,19.39l-3.68,4.68c-2.72-1.05-5.03-.67-6.93,1.13-2.89,1.65-5.07,4.06-6.56,7.22l-9.97,4.97c-9.74,2.26-13.82,8.1-12.25,17.51,3.72,1.75,7.44,3.5,11.16,5.25,8.34-1.5,16.27-4.14,23.78-7.93,3.73-3.53,7.68-4.19,11.84-1.99,6.08.51,9.5,4.39,10.25,11.63l8.55,9.96c4.88,2.94,9.75,5.87,14.63,8.81,8.5,4.2,16.21,9.47,23.14,15.82,5.14,2.84,8.43,7.1,9.87,12.79-4.33,4.08-6.46,9.11-6.41,15.09l9.12,4.34c7.96-2.84,15.47-2.33,22.51,1.54,6.13,1.04,10.8,4.28,14.02,9.7,5.6,6.07,11.39,11.95,17.16,20.04,2.49,7.85,6.86,14.29,13.1,19.32,4.46,4.77,9.41,8.99,14.85,12.64,6.23,6.49,12.46,13,18.67,19.52,8.13,9.26,17.37,17.3,27.74,24.11,13.38,9.09,27.21,17.21,40.14,27,6.38,5.24,13.31,9.65,20.79,13.22,9.33,1.32,14.83-2.48,16.49-11.39,5.3-10.33,10.84-20.53,16.6-30.61,5.59-3.33,11.19-6.65,16.78-9.98,8.07.16,16.01-.67,23.81-2.49,6.13-.36,11.43-2.8,15.9-7.29l6.19-3.88c3.16-.09,6.32-.28,9.48-.57,6.95-1.34,13.08-5.21,20.07-6.13,1.03,15.14-15.68,24.31-26.76,31.37l-17.59,10.35c-4.94,3.01-9.89,6.01-14.83,9.02-3.48,3.36-6.97,6.71-10.45,10.07-5.2,4.52-6.79,9.54-4.76,15.05-.37,3.34,1.06,5.42,4.28,6.24,2.18,2.2,4.76,2.85,7.75,1.95,7.65-.27,14.65-2.68,22.36-2.6,3.85-.76,7.4-.08,10.63,2.06,3.84.82,6.55,3.06,8.15,6.73,3.7,4.02,6.21,8.73,7.53,14.13,5,11.5,9.35,23.25,13.05,35.24" fill="none" stroke="#fff" stroke-miterlimit="10"/><path d="M1222.99,1904.36c-7.91-15.03-17.23-29.08-27.94-42.15-3.99-6.72-9.33-12.07-16.02-16.06l-11.2,1-19.95,7c-15.47,5.06-36.81,11.21-53.04,3.63l-19.43-13.4c-13.56-13.82-25.39-28.94-35.49-45.36-9.77-14.62-19.34-29.3-30.09-43.22-13.51-17.5-25.74-35.6-40.78-51.86-6.93-9.42-15.84-16.43-26.72-21.05l-12.64-5.4c-9.98-6.02-12.91-21.1-24.71-24.66-5.97-1.8-12.16-1.3-17.95-3.84-7.92-3.47-13.53-7.89-18.62-14.76l-7.67-12.69c-2.98-4.45-6.36-8.56-10.12-12.34-3.79-3.36-6.08-7.69-6.89-13.01-.06-5.98-.12-11.97-.18-17.95,2.93-11.1,8.24-20.78,15.93-29.02,6.51-8.21,12.94-16.48,19.28-24.82,3.89-5.54,7.78-11.07,11.67-16.61,7.39-8.74,14.29-17.84,20.71-27.31,3.75-4.62,6.94-9.6,9.55-14.93,2.05-4.06,4.35-7.97,6.88-11.75l2.94-7.34c-.09-5.03-.45-10.04-1.07-15.03,5.39,2.92,10.66,6.07,15.79,9.43,4,2.65,7.15,1.82,9.45-2.51,3.82-5.64,7.21-11.53,10.19-17.67,3.56-6.14,6.98-12.36,10.26-18.65,2.71-5.66,6.03-10.95,9.96-15.87,8.52-8.35,17.05-16.69,25.58-25.02,10.46-14.68,8.96-33.01,9.9-50.14l-3.71-.67c-7.12,5.42-13.49,11.6-19.1,18.53-3.7,3.9-7.19,7.97-10.49,12.2-2.02,3.68-5.06,6.14-9.11,7.37l-7.93-2.23-6.16-10.15c-3.78-8.54.13-14.25-1.67-22.12-2.77,1.26-5.54,2.53-8.31,3.79-4.44,3.02-8.88,6.05-13.32,9.07l-10.33,4.38c-4.21-.05-8.37-.53-12.48-1.43-10.42-1.87-20.33-4.64-30.29-8.2-6.75-2.04-13.23-4.71-19.46-8-6.79-4.48-14.29-6.34-22.51-5.57-8.49,12.09-15.48,25.02-20.97,38.79-8.52,13.54-19.62,24.3-33.3,32.27-5.53,1.24-8.03,4.46-7.51,9.64,1.31,5.59.23,10.52-3.25,14.79-2.42,6.24-7.05,10.43-13.89,12.58-5.76,2.25-11.03,1.63-15.81-1.84-2.68-3.26-6.18-5.14-10.5-5.62-9.46,0-18.42,2.17-25.89,10.75-11.7-1.05-23.25-3-34.63-5.85-13.34-2.05-25.99-6.35-37.94-12.88-6.21-3.22-12.41-6.44-18.62-9.65l-18.92-4.81c-6.18-.45-12.32-.24-18.41.61-4.54,1.35-8.49-.06-11.86-4.23l-6.96-14.24c-1.13-7.82-2.81-15.52-5.02-23.09-2.72-10.02-9.53-19.27-9.61-29.97l1.78-15.21c3.26-7.58,2.38-13.92-2.63-19.03-3.6-5.97-8.66-10.52-15.19-13.65-4.05-4.38-8.1-8.77-12.16-13.15-3.32-4.67-6.63-9.33-9.95-14-6.36-10.84-11.04-22.38-13.22-35.62-3.73-11.72-7.05-23.55-9.94-35.5-2.62-10.69-5.51-21.3-8.67-31.85l-5.99-5.63-9.83-1.63c-6.25-.67-9.24-3.83-8.99-9.48-1.67-7.43-3.08-14.9-4.22-22.43-2.5-8.92-5.04-17.1-11.53-23.88-10.86-11.34-19.9-21.76-27.39-36-3.02-6.23-6.04-12.46-9.06-18.69-3.54-3.26-5.88-7.07-7.02-11.44-1.51-3.88.74-6.9,6.75-9.04l9.74-17.03c7.03-14.25,12.35-29.41,21.12-43.21,4.5-13.03,9.65-25.79,15.47-38.29,4.53-7.86,9.78-15.19,15.76-21.97-2.85-4.52-6.87-7.51-12.06-8.97-6.59-2.4-12.01-6.46-16.25-12.2,3.24-5.22,7.82-8.19,13.74-8.92,6.47-1.34,12.18-4.31,17.12-8.89,4.51-6.42,5.89-13.24,4.16-20.46-.42-5.44-1.06-10.85-1.93-16.23l3.71-2.9c3.86-.71,7.02-2.54,9.49-5.51,4.16-2.95,6.86-7.02,8.09-12.21-.5-6.05-.22-12.04.82-18,.14-7.71,2.91-14.58,8.32-20.59l9.51-13.99c8.03-12.9,14.82-28.95,16.28-44.19l.8-16.17c2.42-12.09,7.83-22.7,16.21-31.83l11.58-14.98c5.2-3.47,8.62-8,10.25-13.61-6.11,2.45-12.01,5.34-17.69,8.67-6.42,4.31-13.53,6.86-21.33,7.66l-8.51-1.02c-2.73-.44-4.52.57-5.36,3.05-4.18,6.19-8.71,12.14-14.58,16.86s-12.52,10.33-20.24,11.34c-4.76-7.98-8.52-16.7-12.23-25.22-4.93-11.29-10.39-23.04-10.73-35.51-.43-4.23-.09-8.41,1.04-12.54.8-4.55-.73-8-4.59-10.36l-7.08-1.95c-5.39-1.18-10.41-3.23-15.07-6.15-3.36-2.08-6.48-4.49-9.24-7.3-1.89-3.19-4.8-4.02-8.72-2.48l-11.67,5.97c-10.16,6.16-20.99,7.27-32.47,3.33-8.45-.98-16.89-1.97-25.34-2.95-14.99.74-27.2-4.52-36.62-15.78-7.73-10.26-17.41-12.45-27.74-3.25-7.31-.57-12.42-4.03-15.34-10.36-.58-7.92-2.75-15.38-6.52-22.39-8.37-8.65-18.27-15.03-29.69-19.16-12.5-3.36-20.98-10.71-25.43-22.05,6.33-3.81,13.2-5.69,20.6-5.65,3.16-7.24,2.65-14.49-1.53-21.76-2.2-4.8-2.84-9.68-1.9-14.62.79-6.52,1.28-13.06,1.47-19.63-1.16-10.41-.41-20.61,2.26-30.6" fill="none" stroke="#fff" stroke-miterlimit="10"/><path d="M99.81,559.47c.4,19.26.53,38.51.38,57.78-.78,22.92-2.85,45.73-6.22,68.41-.78,11.38-3.27,22.34-7.49,32.89-3.31,5.15-5.74,10.66-7.28,16.52-1.87,4.57-2.62,9.36-2.28,14.35.19,4.58-1.58,8.13-5.3,10.66-6.1,3.67-12.47,6.81-19.11,9.43-7.25,3.08-14.55,6.03-21.9,8.84" fill="none" stroke="#fff" stroke-miterlimit="10"/><path d="M15.45,843.99c14.45-6.13,29.22-11.31,44.32-15.56l9.42-3.74c5.97-3.89,11.74-8.07,17.29-12.54l11.69-13.05c7.49-11.82,13.89-24.19,19.19-37.14l4.82-10.66c.03-7.14-.97-14.16-3.01-21.05-1.53-6.02-1.41-11.86.38-17.53,2.03-7.92,5.78-14.73,5.88-23.17.12-10.25,6.76-18.11,10.93-27.13,9.5-20.55,14.59-43.27,20.38-65.11,2.67-10.78,5.83-21.41,9.46-31.91.37-8.68,4.02-14.01,10.94-15.99,4.91,25.13,5.2,51.16,7.75,76.65,1.45,14.51,2.98,28.61,6.9,42.74,3.13,11.26,6.48,22.44,9.82,33.64,2.9,9.72,4.88,19.52,6.53,29.53.33,5.94,1.98,11.5,4.95,16.68,1.44,5.8,4.36,10.69,8.77,14.65,2.1,4.25,5.36,6.95,9.76,8.12,2.7,1.82,5.66,2.62,8.87,2.39,7.53.58,14.57,2.82,22.05,3.67,12.17,1.39,24.7.49,36.54-2.71l15.08-5.26,8.59-1.86,6.6,3.37,7.53,4.94c4.18,2.58,8.16,5.16,12.19,7.95s6.68,4.11,11.6,3.97c3.56-1.18,7.16-2.17,10.82-2.96,2.5-.61,5.01-1.17,7.54-1.67,6.69-1.41,12.8-4.63,19.03-7.41,2.43-1.76,5.09-2.52,8-2.29,2.72-.8,5.06-.09,7,2.14-.84,10.23-11.38,15.5-19.39,20.31-20.49,12.3-42.82,21.32-62.89,34.39,2.41,5.43,4.72,10.9,6.91,16.42,2.6,9.3,3,18.59,1.22,27.88-.66,6.55-1.64,13.05-2.92,19.5-.23,12.48.92,24.83,3.43,37.08,2.2,8.74,3.31,17.6,3.32,26.56.54,7.11.36,14.21-.55,21.3-.43,5.52-.27,11.71-2.75,16.82-1.14,1.83-1.95,3.79-2.44,5.89-2.81,3.72-6.64,4.84-11.48,3.36l-8.33.67c-5.55,5.54-8.31,12.35-8.28,20.41-1.54,6.83-1.31,13.51.69,20.05.8,6.43,3.27,12.25,7.41,17.44,5.11,8.63,5.45,17.52,1.02,26.67-6.03,5.51-7.07,10.59-3.12,15.23,2.2,5.28,6.84,6.64,13.91,4.09,10.04.5,15.15,5.97,15.34,16.42,2.98,15.12-3.19,36.74,13.2,45.87,6.67,1.24,13.37,2.32,20.1,3.23,6.51-.25,11.31,2.92,14.41,9.49,9.04,11.19,18.21,22.29,27.49,33.28,7.27,11.74,12.83,24.22,16.66,37.44,5.51,14.48,9.89,29.31,13.13,44.49,2.57,8.23,2.76,16.35.57,24.38-.6,8.8,4.79,17.97,9.45,25.03,3.94,4.14,6.68,8.97,8.2,14.48l-.12,7.8c-1.51,4.75.35,8.2,5.57,10.36,6.02,3.46,10.66,8.2,14.09,17.17,5.68,8.65,9.05,18.11,10.12,28.39-1.29,6.22-1.82,12.5-1.61,18.84,5.56,8.2,12.97,14.26,22.25,18.16l15.65,10.02c8.48,7.85,16.1,16.46,22.87,25.82,2.69,5.04,6.67,7.45,11.93,7.24,11.34-1.54,22.57-3.69,33.69-6.45,9.59-2.44,19.12-5.09,28.59-7.95,15.82-4.69,32.33-8.44,48.95-8.12,12.09.62,23.95,2.57,35.58,5.86,4.73,1.53,9.5,1.97,14.32,1.32,4.08-.36,8.16-.58,12.26-.66,5.14,1.04,10.08.48,14.81-1.69,4.73-2.21,7.22-5.9,7.49-11.05-2.64-4.74-1.94-8.5,2.09-11.3,5.62,1.08,10.74,3.26,15.35,6.52,3.24,2.32,6.76,4.07,10.57,5.26,3.33-1.73,4.92-4.43,4.77-8.08.93-4.51,1.74-9.04,2.44-13.59l7.65-4.16c4.48,1.5,8.78,1.45,12.93-.12,3.14-.17,4.88-2.03,5.22-5.57,3.05-6.5,6.79-12.6,11.22-18.31,10.93-11.37,25.02-19.13,39.54-24.78,1.96,10.72.74,21.28-3.65,31.67-2.61,11.23-5.13,22.47-7.56,33.74-5.69,7.25-11.96,13.99-18.8,20.21-10.58,11.34-18.21,24.36-22.88,39.06-1.56,8.89-4.13,17.48-7.7,25.75-3.86,8.1-3.3,16.11,1.67,24.03,5.81,13.07,12.48,25.69,20.02,37.84,6.26,9.76,10.32,20.29,12.19,31.6,2.34,10.57,5.21,21,8.59,31.29,9.71,8.67,19.9,16.73,30.58,24.19,14.58,18.46,26.05,38.71,34.4,60.75,7.99,18.22,16.56,36.16,25.71,53.82,12.2,23.62,26.31,46.57,35.26,71.73,4.62,12.98,8.96,30.42.58,42.96" fill="none" stroke="#fff" stroke-miterlimit="10"/><path d="M860.93,1938.28c-5.89-16.82-12.63-32.72-20.18-48.8-3-7.31-6.42-14.41-10.27-21.31-1.75-2.8-4.15-4.19-7.2-4.16-8.86-1.43-15.36,2.08-22.29,7.21-9.26,6.85-19.82,4.37-30.55,3.53,1.91-5.25,4.23-10.32,6.96-15.21,4.19-8.91,6.09-18.28,5.7-28.09-.26-7.04.04-14.04.92-21.02.96-7.45,1.2-14.94.71-22.46-2.17-15.7-2.53-31.45-1.08-47.27,1.72-15.44,4.15-30.76,7.3-45.97,1.41-11.51,4.61-22.52,9.61-33.04,5.24-4.05,9.66-8.85,13.24-14.39.27-8.93-.84-17.69-3.33-26.29l-3.21-11.94c-2.88-7.81-8.56-11.51-17.02-11.09-7.93,1.59-15.04,4.9-21.33,9.93-3.48-.14-6.95-.28-10.43-.43-9.16-4.16-16.2-10.57-21.14-19.23,1.25-7.34,5.04-13.19,11.39-17.55,4.87-4.44,6.9-9.66,6.1-15.65-5.7-.66-15.04,5.76-18.99,7.37-17.59,7.16-36.98,7.85-54.33,15.59l-14.34,7.2c-2.29,2.79-5.1,4.33-8.45,4.61-3.81.95-7.68.93-11.61-.08-3.65.42-7.3.85-10.95,1.27-4.42,2.39-9.09,3.95-14.02,4.69l-8.8-2.69c-8.31-2.61-16.43-5.72-24.35-9.33-7.76-2.97-15.17-6.68-22.22-11.12l-6.71-6.48c-4.59-6.01-10.25-10.63-16.99-13.86-7.59-5.08-15.81-8.91-24.66-11.48-9.31-3.91-18.32-8.39-27.04-13.44-9.02-5.27-18.4-9.83-28.13-13.67-6.26-2.35-12.53-4.71-18.79-7.06-9.21-3.43-16.32-9.18-21.34-17.27-6.38-8.6-13.55-16.5-21.51-23.72-7.09-3.82-14.18-7.64-21.27-11.47-12.55-4.77-24.81-10.18-36.79-16.25l-15.89-6.1c-7.12-.3-12.38-3.22-15.77-8.75-4.83-4.36-6.47-10.08-4.91-17.15.91-4.27,1.81-8.55,2.72-12.82,3.56-4.23,3.8-7.79.72-10.68-1.81-3.38-4.97-4.34-9.49-2.87-6.7.14-13.45,4.79-19.74.1l-7.6-9.72c-4.01-5.2-4.69-10.45-2.05-15.74,6.66-2.2,13.3-1.85,19.91,1.07,5.5,2.84,10.85,5.95,16.03,9.33,3.92,2.77,8.15,4.95,12.71,6.54,6,2.84,11.55,2.24,16.64-1.8.68-8.28-3.65-13.31-12.96-15.08-9.61-.6-15.56-5.09-17.86-13.48,3.2-4.54,6.34-9.13,9.42-13.74,3.46-3.41,4.46-7.58,2.98-12.52-2.2-5.52-6.7-8.9-11.8-11.5-10.76-5.48-24.61-3.1-35.87-6.88-3.27-1.29-6.54-2.58-9.81-3.87-4.48-1.49-9.06-2.41-13.76-2.77-4.03-.4-8.03-1.04-11.99-1.92-4.14-.68-8.23-1.59-12.27-2.74l-8.1-7.26c-8.31-9-15.67-18.71-22.06-29.14-10.49-12.8-15.89-27.84-16.17-45.14.6-13.11,1.21-26.21,1.81-39.32l4-31.48c.74-12.98,5.47-24.18,16.78-34.2,0-17.41.07-34.96.89-52.36,0-7.07.67-14.08,2-21.03l-.42-9.59-4.64-10.16c-4.6-4.91-7.92-10.53-9.98-16.87-4.37-10.33-7.31-21.14-12.1-31.28-2.08-4.45-4.2-8.89-6.34-13.31l1.96-10.3,10.02-10.2,14.07-4.2c6.33-1.03,12.44-2.79,18.33-5.27,4.29-1.55,8.52-3.26,12.68-5.13-1.47-4.02-4.43-6.14-8.88-6.36-5.69-2.03-11.37-4.06-17.06-6.09-3.35-3.15-4.93-6.88-4.73-11.19.01-3.65-.89-7.1-2.71-10.33l-6.11-12.57c-3.87-12.57-10.87-22.99-21.01-31.26l-10.87-10.06c-1.77-11.22-3.53-22.45-5.27-33.68-12.43-2.47-19.28,3.84-20.55,18.95-3.52,10.6-3.29,20.96.68,31.09,5.01,8.44,5.03,16.99.07,25.64-6.12,5.01-13.07,7.46-20.85,7.37-4.57,9.08-7.72,18.64-9.45,28.68-9.35,9.49-20.66,15.62-33.93,18.39-11.09,5.56-20.85,12.85-29.29,21.88-9.3,6.26-19.47,10.36-30.52,12.29" fill="none" stroke="#fff" stroke-miterlimit="10"/><path d="M.23,1028.17c8.41-2.38,13.2-5.29,20.45-1.02,3.54-3.39,5.94-7.44,7.2-12.16,2.15-5.81,4.82-11.37,8.01-16.7,7.54-9.83,17.75-18.04,28.74-23.47.32,6.3-.64,12.46-2.87,18.48-.53,11.15.77,22.08,3.9,32.8,2.03,14.84,3.24,29.75,3.64,44.73l2.33,27.96c2.21,21.89,2.56,43.81,1.05,65.77-1.72,19.37-4.09,38.66-7.1,57.87-1.56,12.43-1.11,24.79,1.35,37.08l2.04,21.62c.29,15.57,1.5,31.06,3.64,46.48,1.27,12.76,4.76,24.85,10.47,36.26,3.49,4.86,8.2,7.63,14.13,8.32l17.16,6.56c14.17,5.18,28.08,10.96,41.74,17.35,7.63,4.49,14.79,9.64,21.46,15.45,5.9,5.53,12.24,10.47,19.05,14.81,5.06,1.4,9.7,3.65,13.93,6.74,24.8,15.21,45.86,36.74,63.4,59.74,7.27,12.15,16.42,22.67,27.43,31.57,9.11,6.18,18.01,12.65,26.7,19.41,7.84,5.09,14.37,11.58,19.57,19.47,6.14,8.45,13.41,15.76,21.81,21.95,12.51,11.21,22.6,25.74,38.11,32.93,12.36,5.73,26.06,4.95,38.46-.85,4.24-1.68,7.73-4.33,10.48-7.95,5.52-3,11.14-3.41,16.84-1.23,6.67,1.06,13.18,2.75,19.54,5.06,9.79,3.3,18.53,8.45,26.23,15.44,7.37,6.11,15.05,11.77,23.06,17,4.02,1.38,7.48,3.61,10.37,6.68-5.58,3.15-11.46,5.57-17.65,7.24-9.58,2.31-17.93,7.02-25.07,14.15-4.64,4.35-9.27,8.7-13.91,13.04l-15.7,10.65c-7.34,4.68-17.89,8.21-13.49,19.57l8.37,11.3c8.49,5.76,17.44,10.63,26.85,14.61,5.46,2.52,10.92,5.05,16.39,7.57,5.81,2.63,11.57,5.37,17.28,8.22l5.96,1.28c4.13-1.35,7.85-3.41,11.16-6.18,3.52-2.12,6.49-4.86,8.89-8.24l2.75-3.36,3.95.19c5.67,2.87,11.5,5.36,21.51,5.99,6.51,7.61,13.73,19.43,23.24,23.43,2.94,1.24,5.2,1.68,7.79,3.71,4.2,2.63,6.26,6.8,6.18,12.51,1.23,6.76,2.47,13.51,3.7,20.27l2.86,21.07c1.31,8.39-1.54,13.06-8.57,14-6.53,2.47-12.85,3.01-19.8,3.47-5.94.39-10.78,3.27-15.98,5.94-6.39,3.29-11.92,5.99-15.6,12.54-.26,9.96,1.68,19.41,5.81,28.36,2.51,9.41,6.77,18,12.79,25.75" fill="none" stroke="#fff" stroke-miterlimit="10"/><path d="M1127.8,904.28c11.67-15.12,18.92-22.94,36.44-30.15,7.25-2.98,14.73-5.41,21.08-10.16,3.63-2.71,6.43-6.1,9.75-9.13,9.85-8.98,21.73-11.54,34.96-10.08,10.91,1.21,22.33,3.3,31.33,9.61,4.31,3.51,8.18,7.47,11.63,11.89,4.15,4.04,8.3,8.08,12.45,12.13,16.3,17.57,19.76,42.11,21.22,65.22l.93,28.25c-1.49,15.47-4.33,30.66-8.5,45.59-4.02,16.22-5.9,37.28-17.92,49.98-6.97,7.37-17.11,12.19-10.84,23.98,4.67,8.79,6.36,17.75,9.54,27.04,4.9,11.55,11.8,21.65,20.7,30.3,8.28,9.51,16.88,18.74,25.78,27.69,10.53,9.97,19.95,20.05,35.72,18.06,12.37-1.56,22.17-8.62,33.19-13.89,15.37-7.35,26.39-6.71,42.89-7.06,10.34-.22,21.95-3.12,30.58,3.51-4.92,7.96-10.33,15.21-16.84,22.01-7.16,7.48-16.12,11.95-21.35,20.88-3.6,6.15-5.32,12.98-9.88,18.43-5.64,6.73-9.81,13.93-13.48,21.88-3.39,8.9-8.63,16.66-15.72,23.31-4.77,4.97-9.54,9.95-14.31,14.92-6.73,9.84-10.99,23.62-12.06,35.43l-.13,13.11c2.83,3.2,5.65,6.4,8.48,9.6,6.39,2.77,11.08,7.1,14.07,12.98,2.32,2.7,3.69,5.82,4.1,9.36,1.25,2.73,1.65,5.55,1.18,8.46.84,4.4-1.52,6.8-7.07,7.18-8.01,4.33-16.14,8.42-24.39,12.28-21.55,10.02-42.15,21.79-61.8,35.28-23.11,13.34-45.91,27.53-72.36,33.3-6.89,1.05-13.79,2.09-20.68,3.14l-8.59.61c-5.92,1.71-7.05,7.14-8.94,12.22-3.04,8.17-4.73,15.66-13.78,18.21-8.55,2.4-14.87,3.09-22.65,7.85-9.95,6.09-18.49,16.33-19.91,28.56-.92,8,1.28,11.99,4.61,19.15,3.84,8.25,7.1,15.15,3.99,24.37l-5.05,9.19c-1.21,4.96-.17,9.31,3.13,13.06,4.55,8.01,7.48,16.97,7.23,26.22-.14,5.18-.7,9.56,1.2,14.3s7.4,11.86,12.19,13.74c6.31,2.48,13.03-1.57,18.53-4.15,8.4-3.96,17.03-8.55,24.98-13.37,11.73-7.11,21.66-16.55,34.47-21.82,6.95-2.86,14.5-5.15,20.33-9.95,9.91-8.16,16.25,4.48,24.71,10.06,5.34,3.52,12.68,8.21,19.35,6.59,6.17-1.5,5.33-5.76,5.03-11.42-.51-5.09-.42-10.18.26-15.26-.77-6.7.93-12.73,5.12-18.08,4.35,2.85,8.52,5.94,12.52,9.27,5.69-2.48,9.56-6.74,11.61-12.77l5.7-4.96c5.81-2.86,11.65-2,17.36-5.49,5.67-3.48,10.92-4.65,17.92-4.12,5.96.45,11.19,3.21,17.24,2.16,15.51-2.69,27.24-12.23,43.86-12.7l34.73,3.34c16.8,2.41,33.49,5.38,50.08,8.93,6.6-.62,12.11-4.48,18.35-6.48,1.2,7.46-18.06,18.62-23.53,22.2-11.09,6.25-22.65,11.39-34.7,15.43-5.29,2.3-7.82,6.05-7.59,11.25-2.31,15.15-15.55,14.51-27.07,20.31-6.4,1.84-10.58,6.14-12.55,12.89-.05,6.13,2.09,11.33,6.42,15.59-2.07,4.41-5.62,6.37-10.65,5.89-6.43,1.1-12.7,2.84-18.8,5.2l-.44,6.55c4.35,3.63,5.06,7.23,2.12,10.79-2.49,5.74-9.58,7.63-13.78,12.2-4.59,5-6.24,12.14-8.19,18.63-3,9.99-4.1,16.39-14.79,20.76-4.52,1.4-8.66,3.52-12.43,6.37-5.02,1.11-7.21,4.05-6.58,8.84-1.35,5.01-.91,9.96,1.32,14.85l-.76,8.56c-.4,8.94,1.67,16.46,4.1,25.02,4.22,14.83,8.49,29.11,16.08,42.49" fill="none" stroke="#fff" stroke-miterlimit="10"/></svg>